<svg width="673" height="462" viewBox="0 0 673 462" fill="none" xmlns="http://www.w3.org/2000/svg">
<g clip-path="url(#clip0_123_2662)">
<path d="M221.737 103.99C221.737 103.99 224.059 122.089 225.926 126.242C227.794 130.395 234.053 148.478 234.053 148.478C234.053 148.478 238.562 154.27 236.829 155.036C235.096 155.803 232.37 150.577 232.37 150.577L223.958 148.508C223.958 148.508 216.454 130.379 214.704 126.41C212.954 122.441 210.38 106.136 210.38 106.136" fill="#FFC8A9"/>
<g filter="url(#filter0_d_123_2662)">
<path d="M326.876 442.019L24.4972 279.242C14.8733 274.322 6.61225 266.246 16.0006 260.929L319.473 101.554C324.033 98.9794 330.948 97.2937 335.575 99.7456L652.995 267.61C662.619 272.698 664.352 286.919 654.678 292.022L366.785 441.758C360.733 444.961 353.868 446.67 346.869 446.716C339.869 446.762 332.978 445.143 326.876 442.019Z" fill="#4444A5"/>
</g>
<path style="mix-blend-mode:multiply" opacity="0.63" d="M193.033 286.046L131.235 322.947L312.81 428.87L386.706 387.249C375.87 380.843 203.902 292.298 193.033 286.046Z" fill="url(#paint0_linear_123_2662)"/>
<path style="mix-blend-mode:multiply" opacity="0.63" d="M575.415 271.671L537.962 291.593L570.367 308.818L607.702 290.566C597.018 284.237 586.267 277.862 575.415 271.671Z" fill="url(#paint1_linear_123_2662)"/>
<path d="M408.343 159.22C408.898 158.147 399.072 171.219 396.717 172.016C392.477 173.441 377.25 181.502 369.948 181.456C370.487 183.739 376.14 186.053 376.678 188.337C380.901 189.869 397.861 183.371 404.591 180.797C410.412 178.56 419.532 167.281 419.532 167.281L408.343 159.22Z" fill="#F2C3BD"/>
<path d="M590.557 255.044C581.96 254.37 572.908 251.979 566.565 246.646V269.848C566.565 276.237 569.352 282.364 574.312 286.882C579.272 291.4 585.999 293.938 593.014 293.938C600.029 293.938 606.756 291.4 611.716 286.882C616.676 282.364 619.463 276.237 619.463 269.848V246.325C610.377 249.604 600.131 255.81 590.557 255.044Z" fill="#68E1FD"/>
<path d="M592.947 259.258C607.554 259.258 619.396 253.543 619.396 246.493C619.396 239.443 607.554 233.728 592.947 233.728C578.34 233.728 566.498 239.443 566.498 246.493C566.498 253.543 578.34 259.258 592.947 259.258Z" fill="#5ED18D"/>
<path d="M592.947 248.669C592.947 248.669 574.961 246.263 570.199 219.767C570.216 219.767 585.51 227.475 592.947 248.669Z" fill="#5ED18D"/>
<path d="M595.605 245.298C595.605 245.298 574.978 211.584 595.605 188.95C601.899 207.295 601.899 226.952 595.605 245.298Z" fill="#5ED18D"/>
<path d="M592.947 224.104C592.947 224.104 574.961 221.698 570.199 195.202C570.216 195.202 585.51 202.91 592.947 224.104Z" fill="#5ED18D"/>
<path d="M595.134 234.892C595.134 234.892 590.558 218.863 615.627 204.627C615.627 204.627 613.742 220.487 595.134 234.892Z" fill="#5ED18D"/>
<path d="M592.947 259.258C607.554 259.258 619.396 253.543 619.396 246.493C619.396 239.443 607.554 233.728 592.947 233.728C578.34 233.728 566.498 239.443 566.498 246.493C566.498 253.543 578.34 259.258 592.947 259.258Z" fill="#146666"/>
<path d="M592.947 248.669C592.947 248.669 574.961 246.263 570.199 219.767C570.216 219.767 585.51 227.475 592.947 248.669Z" fill="#5ED18D"/>
<path d="M595.605 245.298C595.605 245.298 574.978 211.584 595.605 188.95C601.899 207.295 601.899 226.952 595.605 245.298Z" fill="#5ED18D"/>
<path d="M592.947 224.104C592.947 224.104 574.961 221.698 570.199 195.202C570.216 195.202 585.51 202.91 592.947 224.104Z" fill="#5ED18D"/>
<path d="M595.134 234.892C595.134 234.892 590.558 218.863 615.627 204.627C615.627 204.627 613.742 220.487 595.134 234.892Z" fill="#5ED18D"/>
<path d="M430.821 310.013C429.341 311.812 427.727 313.517 425.992 315.116C422.376 317.303 418.599 319.259 414.686 320.97C413.188 321.522 411.102 322.196 411.102 324.372C411.102 326.548 414.248 328.586 418.724 328.326C423.199 328.065 431.275 325.874 433.227 323.974C435.179 322.074 436.07 321.936 436.07 321.936C436.07 321.936 443.843 323.468 446.165 321.798C447.848 320.541 446.603 313.676 445.913 310.626C443.479 311.443 440.891 311.81 438.299 311.705C435.708 311.6 433.165 311.024 430.821 310.013Z" fill="#F3A05E"/>
<path d="M481.363 329.245C481.453 331.771 481.17 334.297 480.522 336.754C479.546 339.298 473.674 349.612 474.65 351.006C475.555 352.089 476.806 352.889 478.231 353.298C479.656 353.707 481.185 353.704 482.608 353.29C486.242 352.14 491.828 348.585 492.804 345.781C493.78 342.976 494.201 336.494 494.907 334.456C495.284 332.427 495.284 330.355 494.907 328.326L481.363 329.245Z" fill="#F3A05E"/>
<path d="M440.596 217.208C440.596 218.204 445.644 241.359 449.194 248.761C452.744 256.163 464.37 280.038 464.37 280.038C464.37 280.038 477.83 323.177 477.83 328.648C477.83 328.648 487.017 334.44 496.203 328.648C496.203 328.648 494.083 312.235 494.083 307.086C494.083 301.937 485.671 282.935 484.19 277.464C482.709 271.993 473.085 215.905 470.158 210.787C467.23 205.669 440.125 205.285 440.596 217.208Z" fill="#335A6B"/>
<path d="M423.738 205.285V232.977C423.738 246.493 429.391 261.956 429.038 267.426C428.684 272.897 429.038 310.887 429.038 310.887C431.667 312.295 434.661 313.037 437.711 313.037C440.761 313.037 443.755 312.295 446.384 310.887C446.384 310.887 449.16 284.161 449.514 279.334C449.867 274.506 449.514 244.562 449.514 239.091C449.514 233.621 446.805 212.013 440.563 207.37C434.321 202.726 423.738 205.285 423.738 205.285Z" fill="#335A6B"/>
<path d="M434.842 138.639C434.842 138.639 426.615 138.501 423.923 140.279C421.231 142.057 405.819 158.392 405.819 158.392C405.819 158.392 410.008 166.974 416.133 169.978H418.219C418.219 169.978 419.901 204.994 420.305 206.757C420.305 206.757 419.077 206.649 419.985 208.825C420.894 211.002 426.564 211.89 426.564 211.89C426.564 211.89 454.864 216.901 466.843 211.998L470.208 210.634C470.208 210.634 472.16 206.542 471.706 205.316C470.373 203.22 468.871 201.218 467.213 199.324C467.213 199.324 476.417 174.805 476.417 164.982C476.352 158.787 473.699 152.847 468.997 148.37C464.504 144.554 450.001 138.563 450.001 138.563L434.842 138.639Z" fill="#68E1FD"/>
<path d="M436.407 138.593L436.642 143.666C436.642 143.666 437.5 148.692 445.812 147.665C445.812 147.665 452.239 145.949 451.936 142.348C451.936 141.382 451.095 131.85 451.095 131.85" fill="#F2C3BD"/>
<path d="M433.748 122.916C433.113 122.895 432.489 122.758 431.913 122.514C431.337 122.27 430.819 121.924 430.392 121.496C429.964 121.068 429.634 120.567 429.422 120.021C429.21 119.475 429.119 118.897 429.155 118.319C429.256 114.135 432.032 112.051 434.421 112.051C436.811 112.051 436.339 107.776 443.894 108.481C451.448 109.185 452.592 111.545 452.592 111.545C452.592 111.545 459.003 112.327 460.063 117.675C461.123 123.023 457.674 128.402 456.529 128.831C455.385 129.261 456.243 132.234 453.854 134.318C452.306 135.589 450.302 136.303 448.218 136.325" fill="#4D4030"/>
<path d="M432.301 121.368C432.499 123.101 432.499 124.847 432.301 126.579C431.931 128.31 429.508 137.168 437.685 142.547C437.685 142.547 445.862 143.65 449.951 134.885C449.951 134.885 451.364 123.698 449.446 122.257C447.528 120.817 447.107 124.418 443.625 123.698C440.142 122.978 435.481 120.234 432.301 121.368Z" fill="#F2C3BD"/>
<path d="M450.607 126.64C449.367 127.454 448.508 128.663 448.201 130.027C447.992 130.038 447.792 130.108 447.628 130.227C447.465 130.347 447.346 130.51 447.289 130.693C447.232 130.877 447.238 131.072 447.309 131.252C447.379 131.432 447.508 131.587 447.68 131.697C448.807 132.402 450.557 131.697 451.566 131.084C452.173 130.762 452.672 130.295 453.007 129.733C453.342 129.171 453.501 128.536 453.468 127.897C453.426 127.612 453.307 127.342 453.123 127.11C452.938 126.878 452.693 126.691 452.409 126.567C452.126 126.442 451.813 126.383 451.498 126.396C451.184 126.409 450.878 126.493 450.607 126.64Z" fill="#F2C3BD"/>
<path d="M450.472 126.579C450.472 126.579 449.278 132.004 448.369 132.586C447.461 133.168 445.593 135.283 443.995 134.915C443.716 134.833 443.455 134.708 443.221 134.548C441.664 133.325 439.796 132.477 437.786 132.08C435.38 131.896 433.193 132.617 432.587 131.988C432.13 131.298 431.827 130.533 431.696 129.736C431.696 129.736 431.561 135.865 432.352 137.919C432.713 139.288 433.506 140.531 434.633 141.495C435.76 142.459 437.172 143.102 438.695 143.344C440.467 143.645 442.297 143.474 443.965 142.851C445.633 142.229 447.069 141.181 448.1 139.834C450.91 135.988 450.91 127.927 450.91 127.927L450.472 126.579Z" fill="#4D4030"/>
<path style="mix-blend-mode:multiply" opacity="0.63" d="M180.97 248.501L117.304 277.418L148.632 296.727L203.717 267.901C192.949 261.572 191.805 254.692 180.97 248.501Z" fill="url(#paint2_linear_123_2662)"/>
<path d="M198.905 181.364C198.905 181.364 199.982 205.239 200.588 212.565C201.193 219.89 200.874 253.864 200.874 253.864C198.508 254.756 195.925 255.062 193.387 254.753C188.844 254.309 184.453 220.457 184.503 215.859C184.554 211.262 177.554 186.298 177.521 176.123C177.487 165.947 183.006 153.887 191.519 155.22C200.033 156.554 198.905 181.364 198.905 181.364Z" fill="#EFB497"/>
<path d="M179.035 191.401C179.035 191.401 177.823 215.277 177.705 222.617C177.588 229.958 174.677 261.91 174.677 261.91C171.464 262.796 168.08 263.052 164.75 262.66C164.75 262.66 161.217 230.28 161.553 223.889C161.789 219.292 157.28 194.62 158.188 184.49C159.097 174.361 165.793 162.775 174.139 164.783C182.484 166.79 179.035 191.401 179.035 191.401Z" fill="#FFC8A9"/>
<path d="M207.486 265.633C203.734 261.45 201.496 251.841 201.496 251.841C201.496 251.841 201.648 251.657 201.21 251.182C200.829 251.928 200.208 252.551 199.43 252.97C198.653 253.388 197.754 253.582 196.853 253.527C192.916 253.251 192.932 248.746 189.853 247.811C189.685 248.102 189.534 248.424 189.349 248.792C187.851 251.857 189.029 269.388 189.029 269.388L194.312 271.748L193.807 266.139C193.807 266.139 195.204 269.112 196.617 272.269C198.03 275.426 202.859 276.943 207.94 278.981C213.021 281.019 215.697 279.441 216.891 275.916C218.086 272.391 211.238 269.802 207.486 265.633Z" fill="#473E39"/>
<path d="M200.689 206.634C201.95 173.104 202.792 140.279 202.792 140.279C202.792 140.279 171.615 126.226 163.017 133.138C159.66 142.354 157.734 151.954 157.297 161.657C156.775 169.962 156.388 189.93 156.338 211.461C171.245 218.373 188.575 217.468 200.689 206.634Z" fill="#847066"/>
<path d="M205.046 123.866C206.394 118.715 208.201 113.672 210.447 108.787C214.182 99.9754 216.841 91.2558 216.218 81.9538C216.077 80.9831 215.646 80.0663 214.973 79.3027C209.623 74.1383 197.913 75.3336 197.913 75.3336C196.3 75.2244 194.68 75.2244 193.067 75.3336C193.073 75.5407 192.993 75.7421 192.843 75.8982C192.694 76.0542 192.485 76.1535 192.259 76.1765C178.799 77.5557 174.543 90.7654 172.759 101.186C171.548 108.266 171.295 115.576 168.486 122.349C166.934 125.901 165.095 129.343 162.984 132.647C166.854 135.252 184.352 145.857 202.22 138.471C203.212 133.659 203.919 128.724 205.046 123.866Z" fill="#A2C609"/>
<path d="M214.081 78.5671C214.081 78.5671 224.832 86.0301 223.049 106.596C223.049 106.596 212.819 108.91 209.252 108.894" fill="#A2C609"/>
<path d="M178.48 114.12L173.752 95.3015L172.49 99.8988C172.503 99.9801 172.503 100.063 172.49 100.144C171.783 105.216 169.445 114.764 169.226 116.25L168.132 124.633L177.891 118.043L178.48 114.12Z" fill="#89A000"/>
<path d="M213.879 69.0199V69.1119C213.445 69.3125 213.088 69.6276 212.853 70.016C211.019 72.9583 209.286 75.9619 207.604 78.9655C206.245 78.7429 204.947 78.2795 203.784 77.6016C201.783 76.5118 200.112 74.9843 198.922 73.1575L201.075 63.6104L213.879 69.0199Z" fill="#F9B495"/>
<path d="M224.9 56.3006C225.186 56.9136 215.865 77.096 210.918 75.3183C205.972 73.5407 198.956 65.5566 201.513 57.404C204.07 49.2513 220.946 47.6423 224.9 56.3006Z" fill="#FFC8A9"/>
<path d="M216.79 46.309C187.498 39.2291 175.333 92.2825 175.333 92.2825C177.706 80.9884 189.719 76.6362 189.719 76.6362L189.921 93.6311C194.329 91.1025 200.958 91.4397 204.071 88.0223L204.373 67.9932C204.373 67.9932 200.874 62.2618 204.121 61.8634C207.368 61.4649 207.94 64.9283 207.94 64.9283L210.801 58.3847L225.035 63.6104C225.035 63.6104 234.692 50.6305 216.79 46.309Z" fill="#8E4228"/>
<path d="M181.155 272.667C177.403 268.484 175.165 258.875 175.165 258.875C175.165 258.875 175.317 258.691 174.879 258.216C174.51 258.976 173.895 259.616 173.117 260.048C172.338 260.481 171.432 260.687 170.522 260.638C166.585 260.362 166.601 255.856 163.522 254.922C163.354 255.213 163.203 255.535 163.018 255.902C161.52 258.967 162.698 276.498 162.698 276.498L167.981 278.858L167.476 273.25C167.476 273.25 168.873 276.223 170.286 279.379C171.699 282.536 176.528 284.053 181.609 286.092C186.69 288.13 189.366 286.551 190.56 283.027C191.755 279.502 184.907 276.851 181.155 272.667Z" fill="#473E39"/>
<path d="M366.835 356.171L407.687 336.831V291.486L366.835 313.139V356.171Z" fill="#68E1FD"/>
<path d="M318.985 286.061L366.415 311.055L365.91 311.852L406.845 290.168L358.911 264.913L318.985 286.061Z" fill="#68E1FD"/>
<path d="M358.911 263.135L399.56 241.605L357.044 219.231L316.445 240.746L358.911 263.135Z" fill="#68E1FD"/>
<path d="M408.511 289.233L449.227 267.779C448.992 267.626 448.756 267.472 448.504 267.334L401.31 242.509L360.661 264.055L408.511 289.233Z" fill="#68E1FD"/>
<path d="M309.782 194.39L279.699 178.575C277.177 177.249 274.316 176.55 271.404 176.55C268.492 176.55 265.632 177.249 263.11 178.575L230.738 195.6L269.2 215.875L309.782 194.39Z" fill="#68E1FD"/>
<path d="M273.171 263.687L271.354 264.637V306.672L316.562 330.487V286.551L273.171 263.687Z" fill="#68E1FD"/>
<path d="M313.097 240.762L269.251 217.652L229.308 238.8L273.154 261.91L313.097 240.762Z" fill="#68E1FD"/>
<path d="M365.237 312.205L318.245 287.44V331.376L365.153 356.094V312.251L365.237 312.205Z" fill="#68E1FD"/>
<path d="M317.32 285.187L357.245 264.024L314.762 241.635L274.836 262.798L317.32 285.187Z" fill="#68E1FD"/>
<path d="M271.488 262.798L228.13 239.949V283.885L269.671 305.784V263.764L271.488 262.798Z" fill="#68E1FD"/>
<path d="M226.465 239.061L189.736 219.706L190.577 218.373L227.592 237.911L267.518 216.764L229.022 196.474L191.973 215.982C189.669 217.19 187.928 219.122 187.076 221.415C186.224 223.709 186.321 226.207 187.347 228.441V235.122C187.327 235.469 187.327 235.817 187.347 236.164V262.4L226.465 283.011V239.061Z" fill="#68E1FD"/>
<path d="M314.762 239.873L355.361 218.357L311.464 195.279L270.916 216.764L314.762 239.873Z" fill="#68E1FD"/>
<path d="M318.245 333.153V366.714H316.562V332.264L271.354 308.435V343.359L358.053 390.697C360.244 391.877 362.648 392.691 365.153 393.103V357.856L318.245 333.153Z" fill="#68E1FD"/>
<path d="M407.67 338.563L366.785 357.887V393.332C371.364 393.789 375.983 392.892 379.959 390.773L409.218 375.05H407.67V338.563Z" fill="#68E1FD"/>
<path d="M409.352 375.05L443.389 356.799C445.926 355.438 448.049 353.52 449.565 351.221C451.081 348.922 451.943 346.314 452.071 343.635L453.349 316.955L409.352 337.766V375.05Z" fill="#68E1FD"/>
<path d="M454.409 289.003L453.972 276.161C453.998 274.786 453.712 273.42 453.133 272.149C452.554 270.878 451.694 269.73 450.607 268.775L409.352 290.597V336.034L453.434 315.178L454.393 289.003" fill="#68E1FD"/>
<path d="M228.13 285.663V319.683H227.979L269.671 342.44V307.546L228.13 285.663Z" fill="#68E1FD"/>
<path d="M187.346 264.162V290.214C187.347 292.436 187.98 294.621 189.183 296.554C190.386 298.488 192.118 300.105 194.211 301.248L226.464 318.855V284.774L187.346 264.162Z" fill="#68E1FD"/>
<g style="mix-blend-mode:multiply">
<path d="M366.835 356.171L407.687 336.831V291.486L366.835 313.139V356.171Z" fill="#68E1FD"/>
</g>
<path d="M318.985 286.061L366.415 311.055L365.91 311.852L406.845 290.168L358.911 264.913L318.985 286.061Z" fill="#68E1FD"/>
<path d="M358.911 263.135L399.56 241.605L357.044 219.231L316.445 240.746L358.911 263.135Z" fill="#68E1FD"/>
<g style="mix-blend-mode:multiply">
<path d="M408.511 289.233L449.227 267.779C448.992 267.626 448.756 267.472 448.504 267.334L401.31 242.509L360.661 264.055L408.511 289.233Z" fill="#68E1FD"/>
</g>
<path d="M309.782 194.39L279.699 178.575C277.177 177.249 274.316 176.55 271.404 176.55C268.492 176.55 265.632 177.249 263.11 178.575L230.738 195.6L269.2 215.875L309.782 194.39Z" fill="#68E1FD"/>
<path d="M273.171 263.687L271.354 264.637V306.672L316.562 330.487V286.551L273.171 263.687Z" fill="#68E1FD"/>
<path d="M313.097 240.762L269.251 217.652L229.308 238.8L273.154 261.91L313.097 240.762Z" fill="#68E1FD"/>
<g style="mix-blend-mode:multiply">
<path d="M365.237 312.205L318.245 287.44V331.376L365.153 356.094V312.251L365.237 312.205Z" fill="#68E1FD"/>
</g>
<g style="mix-blend-mode:multiply">
<path d="M317.32 285.187L357.245 264.024L314.762 241.635L274.836 262.798L317.32 285.187Z" fill="#68E1FD"/>
</g>
<g style="mix-blend-mode:multiply">
<path d="M271.488 262.798L228.13 239.949V283.885L269.671 305.784V263.764L271.488 262.798Z" fill="#68E1FD"/>
</g>
<g style="mix-blend-mode:multiply">
<path d="M229.072 196.474L191.973 215.982C191.062 216.473 190.235 217.082 189.517 217.79C189.845 218.014 190.187 218.218 190.543 218.403L227.558 237.942L267.517 216.764L229.072 196.474Z" fill="#68E1FD"/>
</g>
<g style="mix-blend-mode:multiply">
<path d="M314.762 239.873L355.361 218.357L311.464 195.279L270.916 216.764L314.762 239.873Z" fill="#68E1FD"/>
</g>
<path d="M318.245 333.153V366.714H317.993V368.844L358.019 390.697C360.21 391.877 362.615 392.691 365.119 393.103V357.856L318.245 333.153Z" fill="#68E1FD"/>
<g style="mix-blend-mode:multiply">
<path d="M316.31 363.879C316.308 363.786 316.326 363.693 316.364 363.606C316.401 363.519 316.457 363.44 316.529 363.373V332.264L271.32 308.435V343.359L316.31 367.879V363.879Z" fill="#68E1FD"/>
</g>
<path d="M407.67 338.563L366.785 357.887V393.332C371.364 393.789 375.983 392.892 379.959 390.773L409.218 375.05H407.67V338.563Z" fill="#68E1FD"/>
<g style="mix-blend-mode:multiply">
<path d="M409.352 375.05L443.389 356.799C445.926 355.438 448.049 353.52 449.565 351.221C451.081 348.922 451.943 346.314 452.071 343.635L453.349 316.955L409.352 337.766V375.05Z" fill="#68E1FD"/>
</g>
<path d="M454.409 289.003L453.972 276.161C453.998 274.786 453.712 273.42 453.133 272.149C452.554 270.878 451.694 269.73 450.607 268.775L409.352 290.597V336.034L453.434 315.178L454.393 289.003" fill="#68E1FD"/>
<path d="M228.13 285.663V319.683H227.979L269.671 342.44V307.546L228.13 285.663Z" fill="#68E1FD"/>
<g style="mix-blend-mode:multiply">
<path d="M187.346 264.162V290.214C187.347 292.436 187.98 294.621 189.183 296.554C190.386 298.488 192.118 300.105 194.211 301.248L226.464 318.855V284.774L187.346 264.162Z" fill="#68E1FD"/>
</g>
<path d="M316.562 366.714H318.245V333.153L316.562 332.264V366.714Z" fill="#FFEED9"/>
<path d="M318.985 286.061L358.911 264.913L357.245 264.024L317.319 285.187L318.985 286.061Z" fill="#FFEED9"/>
<path d="M316.562 286.551V330.487L318.245 331.376V287.44L316.562 286.551Z" fill="#FFEED9"/>
<path d="M360.594 264.024L401.243 242.478L399.56 241.605L358.911 263.135L360.594 264.024Z" fill="#FFEED9"/>
<path d="M316.445 240.746L357.043 219.231L355.361 218.357L314.762 239.873L316.445 240.746Z" fill="#FFEED9"/>
<path d="M269.671 307.546V342.44L271.353 343.359V308.435L269.671 307.546Z" fill="#FFEED9"/>
<path d="M273.171 263.687L271.488 262.798L269.671 263.764V305.784L271.353 306.672V264.637L273.171 263.687Z" fill="#FFEED9"/>
<path d="M274.836 262.798L314.762 241.635L313.096 240.762L273.154 261.91L274.836 262.798Z" fill="#FFEED9"/>
<path d="M226.448 319.683H227.979L226.448 318.84V319.683Z" fill="#FFEED9"/>
<path d="M269.25 217.652L267.568 216.764L227.642 237.927L229.308 238.8L269.25 217.652Z" fill="#FFEED9"/>
<path d="M270.916 216.764L311.465 195.279L309.782 194.39L269.234 215.875L270.916 216.764Z" fill="#FFEED9"/>
<path d="M228.13 285.663L226.448 284.774V318.84L227.979 319.683H228.13V285.663Z" fill="#FFEED9"/>
<path d="M228.13 239.95L226.448 239.061V282.996L228.13 283.885V239.95Z" fill="#FFEED9"/>
<path d="M273.154 261.91L229.308 238.8L228.13 239.428V239.95L271.488 262.798L273.154 261.91Z" fill="#FFEED9"/>
<path d="M318.245 287.44L365.237 312.205L365.574 312.036L365.91 311.852L366.415 311.055L318.985 286.061L318.245 286.459V287.44Z" fill="#FFEED9"/>
<path d="M317.32 285.187L274.837 262.798L273.171 263.687L316.563 286.551V285.571L317.32 285.187Z" fill="#FFEED9"/>
<path d="M227.642 237.927L190.56 218.388L189.719 219.706L226.448 239.061V238.54L227.642 237.927Z" fill="#FFEED9"/>
<path d="M316.562 285.571V286.551L318.245 287.44V286.459L318.985 286.061L317.32 285.187L316.562 285.571Z" fill="#FFEED9"/>
<path d="M273.154 261.91L271.488 262.798L273.171 263.687L274.836 262.798L273.154 261.91Z" fill="#FFEED9"/>
<path d="M228.13 239.428L229.308 238.8L227.642 237.927L226.448 238.54V239.061L228.13 239.95V239.428Z" fill="#FFEED9"/>
<path d="M365.103 393.44H366.785C366.213 393.44 365.658 393.302 365.103 393.21V393.44Z" fill="#FFEED9"/>
<path d="M365.977 358.301L365.573 358.086L365.153 357.872V393.118C365.708 393.21 366.263 393.302 366.835 393.348V357.887L365.977 358.301Z" fill="#FFEED9"/>
<path d="M365.573 312.388L365.237 312.205L365.153 312.251V356.094L366.011 356.554L366.835 356.171V313.139L407.686 291.486V290.612L406.845 290.168L365.91 311.852L365.573 312.388Z" fill="#FFEED9"/>
<path d="M409.352 289.724V290.612L450.557 268.775C450.143 268.412 449.698 268.079 449.228 267.779L408.511 289.233L409.352 289.724Z" fill="#FFEED9"/>
<path d="M365.237 312.205L365.574 312.388L365.91 311.852L365.574 312.036L365.237 312.205Z" fill="#FFEED9"/>
<path d="M409.369 375.111V375.035L409.218 375.111H409.369Z" fill="#FFEED9"/>
<path d="M269.234 215.875L230.755 195.585L229.072 196.474L267.568 216.764L269.234 215.875Z" fill="#FFEED9"/>
<path d="M407.687 338.563V375.112H409.218L409.369 375.035V337.766L407.687 338.563Z" fill="#FFEED9"/>
<path d="M357.245 264.024L358.911 263.136L316.445 240.746L314.762 241.635L357.245 264.024Z" fill="#FFEED9"/>
<path d="M407.687 336.831L409.369 336.034V290.597L407.687 291.486V336.831Z" fill="#FFEED9"/>
<path d="M313.096 240.762L314.762 239.873L270.916 216.764L269.25 217.652L313.096 240.762Z" fill="#FFEED9"/>
<path d="M406.846 290.168L408.511 289.279L360.594 264.024L358.911 264.913L406.846 290.168Z" fill="#FFEED9"/>
<path d="M358.911 264.913L360.593 264.024L358.911 263.135L357.245 264.024L358.911 264.913Z" fill="#FFEED9"/>
<path d="M314.762 241.635L316.445 240.746L314.762 239.873L313.097 240.762L314.762 241.635Z" fill="#FFEED9"/>
<path d="M270.916 216.764L269.234 215.875L267.568 216.764L269.25 217.652L270.916 216.764Z" fill="#FFEED9"/>
<path d="M408.511 289.279L406.845 290.168L407.686 290.612V291.486L409.369 290.597V289.724L408.511 289.279Z" fill="#FFEED9"/>
<path d="M226.447 282.996L187.346 262.385V264.162L226.447 284.774V282.996Z" fill="#FFEED9"/>
<path d="M366.835 356.171V357.887L407.687 338.563V336.831L366.835 356.171Z" fill="#FFEED9"/>
<path d="M409.369 337.766L453.35 316.94L453.434 315.178L409.369 336.034V337.766Z" fill="#FFEED9"/>
<path d="M228.13 283.885V285.663L269.671 307.546V305.784L228.13 283.885Z" fill="#FFEED9"/>
<path d="M318.245 331.376V333.153L365.153 357.872V356.094L318.245 331.376Z" fill="#FFEED9"/>
<path d="M271.354 306.672V308.435L316.562 332.264V330.487L271.354 306.672Z" fill="#FFEED9"/>
<path d="M316.562 330.487V332.264L318.245 333.153V331.376L316.562 330.487Z" fill="#FFEED9"/>
<path d="M269.671 305.784V307.546L271.353 308.435V306.672L269.671 305.784Z" fill="#FFEED9"/>
<path d="M226.448 282.996V284.774L228.13 285.663V283.885L226.448 282.996Z" fill="#FFEED9"/>
<path d="M366.011 356.554L365.153 356.094V357.872L365.573 358.086L365.977 358.301L366.835 357.887V356.171L366.011 356.554Z" fill="#FFEED9"/>
<path d="M407.687 338.563L409.369 337.766V336.034L407.687 336.831V338.563Z" fill="#FFEED9"/>
<path d="M339.276 197.424V233.253L369.965 249.236L404.591 230.602V194.773" fill="#68E1FD"/>
<path d="M339.276 197.424L374.878 178.973L404.591 194.773L369.965 213.407L339.276 197.424Z" fill="#68E1FD"/>
<path opacity="0.21" d="M339.276 197.424L374.878 178.973L404.591 194.773L369.965 213.407L339.276 197.424Z" fill="white"/>
<g style="mix-blend-mode:multiply">
<path d="M369.965 213.407V249.236L404.591 230.602V194.773L369.965 213.407Z" fill="#68E1FD"/>
</g>
<path d="M453.131 174.79C453.131 174.79 449.143 181.916 446.822 183.862C444.5 185.808 419.582 196.014 417.277 196.826C414.972 197.639 414.602 198.359 413.357 198.129C412.112 197.899 401.259 197.96 400.721 198.941C400.416 199.619 400.416 200.378 400.721 201.056C400.721 201.056 397.356 202.834 398.046 204.626C398.736 206.419 400.536 210.956 403.564 210.956C406.593 210.956 413.357 205.761 413.895 204.473C413.895 204.473 441.639 202.358 453.131 196.535C464.622 190.712 466.406 182.743 466.406 182.743C465.312 180.366 463.465 178.339 461.1 176.922C458.736 175.506 455.961 174.763 453.131 174.79Z" fill="#F2C3BD"/>
<path d="M198.098 131.13V166.959L228.77 182.942L263.412 164.308V128.479" fill="#68E1FD"/>
<path d="M198.098 131.13L233.699 112.679L263.412 128.479L228.77 147.129L198.098 131.13Z" fill="#68E1FD"/>
<path opacity="0.21" d="M198.098 131.13L233.699 112.679L263.412 128.479L228.77 147.129L198.098 131.13Z" fill="white"/>
<g style="mix-blend-mode:multiply">
<path d="M228.77 147.129V182.942L263.412 164.308V128.479L228.77 147.129Z" fill="#68E1FD"/>
</g>
<path d="M187.077 104.787C187.077 104.787 187.245 116.786 189.416 120.771C191.586 124.755 202.169 144.984 202.674 145.29C203.179 145.597 212.5 150.056 211.271 151.634C210.043 153.213 204.541 150.562 204.541 150.562C204.541 150.562 211.271 160.063 208.563 161.764C205.854 163.465 194.244 154.102 194.177 151.313C194.11 148.523 193.824 144.401 193.824 144.401C193.824 144.401 176.864 123.575 175.552 120.051C174.24 116.526 173.297 102.933 173.297 102.933C173.297 102.933 180.919 99.2092 187.077 104.787Z" fill="#FFC8A9"/>
<path d="M187.969 93.6771L189.18 110.534C187.498 110.258 173.213 111.561 172.927 111.178C172.641 110.795 173.752 95.3015 173.752 95.3015" fill="#A2C609"/>
</g>
<defs>
<filter id="filter0_d_123_2662" x="6.87256" y="98.5518" width="679.257" height="383.165" filterUnits="userSpaceOnUse" color-interpolation-filters="sRGB">
<feFlood flood-opacity="0" result="BackgroundImageFix"/>
<feColorMatrix in="SourceAlpha" type="matrix" values="0 0 0 0 0 0 0 0 0 0 0 0 0 0 0 0 0 0 127 0" result="hardAlpha"/>
<feOffset dx="10" dy="20"/>
<feGaussianBlur stdDeviation="7.5"/>
<feComposite in2="hardAlpha" operator="out"/>
<feColorMatrix type="matrix" values="0 0 0 0 0 0 0 0 0 0 0 0 0 0 0 0 0 0 0.25 0"/>
<feBlend mode="normal" in2="BackgroundImageFix" result="effect1_dropShadow_123_2662"/>
<feBlend mode="normal" in="SourceGraphic" in2="effect1_dropShadow_123_2662" result="shape"/>
</filter>
<linearGradient id="paint0_linear_123_2662" x1="241.641" y1="378.269" x2="270.351" y2="331.642" gradientUnits="userSpaceOnUse">
<stop stop-color="white" stop-opacity="0"/>
<stop offset="0.99" stop-color="#754C24"/>
</linearGradient>
<linearGradient id="paint1_linear_123_2662" x1="561.198" y1="308.251" x2="577.693" y2="278.994" gradientUnits="userSpaceOnUse">
<stop stop-color="white" stop-opacity="0"/>
<stop offset="0.99" stop-color="#754C24"/>
</linearGradient>
<linearGradient id="paint2_linear_123_2662" x1="146.848" y1="286.321" x2="177.783" y2="249.037" gradientUnits="userSpaceOnUse">
<stop stop-color="white" stop-opacity="0"/>
<stop offset="0.99" stop-color="#754C24"/>
</linearGradient>
<clipPath id="clip0_123_2662">
<rect width="673" height="462" fill="white"/>
</clipPath>
</defs>
</svg>
