<svg width="645" height="461" viewBox="0 0 645 461" fill="none" xmlns="http://www.w3.org/2000/svg">
<g filter="url(#filter0_d_150_126)">
<path d="M303.268 420.908L17.3489 252.162C8.24919 247.064 0.442369 238.673 9.30999 233.194L296.24 68.0402C300.549 65.3753 307.08 63.6374 311.456 66.1698L611.629 240.113C620.729 245.393 622.369 260.14 613.286 265.42L340.992 420.643C335.271 423.961 328.781 425.731 322.165 425.777C315.549 425.824 309.035 424.145 303.268 420.908Z" fill="#4444A5"/>
</g>
<path opacity="0.32" d="M542.246 256.863L526.118 239.335L476.907 260.372L506.842 277.685C512.046 274.127 537.24 260.736 542.246 256.863Z" fill="url(#paint0_linear_150_126)"/>
<path opacity="0.32" d="M398.276 306.452L246.183 276.047L166.855 318.949L272.935 380.29C291.267 367.595 380.59 320.157 398.276 306.452Z" fill="url(#paint1_linear_150_126)"/>
<path opacity="0.9" d="M201.995 244.135L143.75 213.944L87.7598 246.899L147.065 282.535C165.48 269.989 184.309 257.84 201.995 244.135Z" fill="url(#paint2_linear_150_126)"/>
<path d="M508.947 208.052C508.947 208.052 505.45 249.431 527.544 256.714C549.639 263.997 560.678 242.811 559.783 206.397" fill="#68E1FD"/>
<path d="M534.851 221.945C548.905 221.499 560.088 214.561 559.83 206.447C559.572 198.334 547.97 192.118 533.916 192.564C519.862 193.01 508.679 199.949 508.937 208.062C509.195 216.176 520.797 222.391 534.851 221.945Z" fill="#F2696A"/>
<path d="M539.892 174.336C539.892 174.336 529.45 160.25 533.478 150.154C533.478 150.154 536.793 143.649 541.931 142.457C541.931 142.457 541.931 156.129 546.904 154.225C551.876 152.322 546.456 139.941 546.456 139.941C546.456 139.941 551.578 132.542 557.429 132.576C563.28 132.609 557.843 145.337 561.838 143.136C565.832 140.934 561.689 130.374 566.23 128.967C570.392 127.874 574.623 127.062 578.893 126.534C578.893 126.534 583.617 138.849 579.341 140.769C575.065 142.689 568.733 143.5 571.866 146.148C574.998 148.796 583.568 145.37 583.568 145.37C583.568 145.37 584.33 152.355 581.479 155.483C578.628 158.612 561.108 152.454 564.357 158.38C567.606 164.305 578.96 160.929 578.96 160.929C578.96 160.929 573.374 169.47 566.628 173.508C559.882 177.547 539.892 174.336 539.892 174.336Z" fill="#8CCC00"/>
<path d="M543.357 210.303C543.357 210.303 535.915 203.417 537.141 197.26C537.141 197.26 538.368 193.205 541.119 191.997C541.119 191.997 542.545 199.759 545.197 198.154C547.849 196.548 543.407 190.093 543.407 190.093C543.407 190.093 545.512 185.343 548.86 184.747C552.208 184.151 550.517 191.947 552.49 190.275C554.462 188.603 551.048 183.042 553.468 181.768C555.713 180.704 558.028 179.791 560.396 179.036C560.396 179.036 564.391 185.525 562.17 187.064C559.949 188.603 556.435 189.746 558.507 190.904C560.578 192.063 565.137 189.249 565.137 189.249C565.137 189.249 566.313 193.139 565.037 195.208C563.761 197.277 553.153 195.654 555.623 198.683C558.092 201.712 564.192 198.568 564.192 198.568C562.855 201.72 560.931 204.59 558.523 207.026C555.042 209.988 543.357 210.303 543.357 210.303Z" fill="#8CCC00"/>
<path d="M516.34 195.77C516.34 195.77 498.836 197.012 492.472 188.173C492.472 188.173 488.792 181.817 490.516 176.918C490.516 176.918 502.019 184.317 503.113 179.053C504.207 173.79 490.798 171.754 490.798 171.754C490.798 171.754 487.3 163.478 490.483 158.512C493.665 153.547 501.488 165.034 501.77 160.465C502.052 155.897 490.914 153.745 492.157 149.144C493.467 145.054 495.051 141.056 496.897 137.177C496.897 137.177 509.842 139.809 509.163 144.443C508.483 149.078 505.765 154.854 509.693 153.629C513.621 152.405 515.312 143.351 515.312 143.351C515.312 143.351 521.627 146.463 522.738 150.534C523.848 154.606 509.229 166.06 515.975 166.507C522.721 166.954 525.92 155.566 525.92 155.566C525.92 155.566 530.13 164.868 529.915 172.714C529.699 180.559 516.34 195.77 516.34 195.77Z" fill="#8CCC00"/>
<path d="M575.23 132.178C573.418 133.811 571.6 135.467 569.777 137.144C569.909 135.158 570.075 133.171 570.324 131.185C570.456 130.142 568.849 129.745 568.666 130.788C568.335 133.436 568.103 136.096 567.97 138.766C563.197 143.218 558.456 147.886 554.08 152.802C553.582 149.461 553.371 146.083 553.45 142.705C553.45 141.646 551.793 141.696 551.793 142.705C551.709 146.586 551.998 150.466 552.655 154.292C549.868 157.553 547.268 160.968 544.865 164.521C541.891 160.683 539.808 156.234 538.765 151.494C538.533 150.452 536.958 150.948 537.108 151.991C538.235 157.037 540.503 161.758 543.738 165.795C543.786 165.852 543.842 165.902 543.903 165.944C536.942 176.488 532.301 188.206 532.301 201.63C532.301 202.689 533.958 202.639 533.958 201.63C533.958 188.719 538.4 177.381 545.08 167.185C551.824 168.743 558.777 169.195 565.666 168.526C566.727 168.427 566.677 166.772 565.666 166.871C559.125 167.506 552.525 167.11 546.108 165.696C549.466 160.845 553.178 156.247 557.213 151.941H557.362C561.241 152.156 565.119 152.388 568.965 152.405C571.409 152.679 573.882 152.314 576.142 151.345C577.086 150.832 576.142 149.442 575.263 149.938C572.628 151.362 568.865 150.783 565.998 150.7C563.545 150.7 561.025 150.501 558.622 150.369C564.34 144.344 570.49 138.783 576.44 133.337C577.236 132.592 576.026 131.467 575.23 132.178Z" fill="#06577A"/>
<path d="M524.975 166.01C525.028 165.791 524.991 165.559 524.873 165.367C524.755 165.174 524.565 165.037 524.345 164.984C524.125 164.931 523.893 164.968 523.701 165.086C523.508 165.204 523.37 165.394 523.317 165.613C521.72 171.772 518.16 177.244 513.174 181.205C511.129 176.063 509.245 170.86 507.521 165.596C511.392 161.492 514.532 156.756 516.803 151.594C517.234 150.617 515.776 149.823 515.345 150.799C513.255 155.543 510.411 159.92 506.925 163.759C505.002 157.734 503.278 151.627 501.786 145.469C501.538 144.427 499.947 144.923 500.129 145.966C502.162 154.407 504.604 162.716 507.455 170.893C504.313 170.382 501.246 169.487 498.322 168.228C497.344 167.814 496.549 169.254 497.527 169.685C500.894 171.155 504.446 172.163 508.085 172.681C510.008 178.077 512.129 183.39 514.4 188.637C509.439 188.636 504.521 187.715 499.897 185.922C498.919 185.541 498.107 186.998 499.101 187.379C504.194 189.374 509.626 190.363 515.096 190.292C517.969 196.835 521.102 203.268 524.494 209.591C525.008 210.535 526.4 209.591 525.903 208.714C521.367 200.316 517.299 191.674 513.72 182.827C519.242 178.628 523.202 172.71 524.975 166.01Z" fill="#06577A"/>
<path d="M555.606 186.452L551.297 194.231C550.713 193.505 550.203 192.723 549.772 191.897C549.274 190.954 547.882 191.897 548.363 192.775C548.918 193.829 549.591 194.817 550.368 195.721L545.694 204.146C545.12 203.639 544.739 202.948 544.617 202.192C544.451 201.15 542.794 201.199 542.959 202.192C543.157 203.499 543.844 204.683 544.882 205.503L539.031 216.046C538.926 216.239 538.901 216.467 538.963 216.678C539.026 216.889 539.169 217.066 539.363 217.172C539.556 217.277 539.783 217.302 539.995 217.239C540.206 217.177 540.384 217.034 540.49 216.841L548.197 202.937C549.565 202.918 550.921 202.671 552.208 202.209C553.203 201.845 552.722 200.256 551.711 200.554C550.886 200.842 550.029 201.031 549.158 201.117L556.965 187.031C556.955 186.879 556.903 186.732 556.814 186.607C556.726 186.483 556.604 186.385 556.464 186.325C556.323 186.265 556.168 186.245 556.017 186.267C555.866 186.29 555.723 186.354 555.606 186.452Z" fill="#06577A"/>
<path d="M309.68 151.289C312.405 141.136 308.639 131.306 301.269 129.333C293.899 127.361 285.716 133.992 282.991 144.145C280.265 154.298 284.031 164.127 291.401 166.1C298.771 168.073 306.954 161.441 309.68 151.289Z" fill="#5D5E63"/>
<path d="M398.276 306.452C398.276 306.452 395.972 269.542 395.11 260.422C394.331 252.146 391.579 215.897 368.855 204.444C340.147 189.961 307.047 171.174 276.483 179.93C251.62 187.031 243.25 272.62 243.515 278.397C244.012 288.643 320.887 342.899 398.276 306.452Z" fill="#2B415D"/>
<path d="M339.567 208.846C339.567 210.799 337.296 213.729 336.418 215.384C329.042 229.387 322.594 244.201 315.55 258.419C308.671 272.405 307.395 311.699 306.583 314.265C306.583 314.53 278.405 304.052 278.19 304.201C277.974 304.35 275.869 283.876 275.836 282.684C275.504 260.273 273.864 248.835 277.974 231.588C280.891 219.34 286.262 211.048 289.046 198.816C290.389 192.973 291.317 185.988 294.251 180.609C297.533 174.733 339.567 195.737 339.567 208.846Z" fill="#68E1FD"/>
<path d="M352.214 318.684C351.451 318.684 350.689 318.783 349.91 318.8C350.131 303.352 350.175 287.903 350.042 272.455C350.042 271.783 350.309 271.139 350.785 270.664C351.261 270.189 351.906 269.922 352.578 269.922C353.251 269.922 353.896 270.189 354.371 270.664C354.847 271.139 355.114 271.783 355.114 272.455C355.258 287.782 355.219 303.103 354.998 318.419L352.214 318.684Z" fill="#17283A"/>
<path d="M268.444 299.335C268.275 299.237 268.097 299.154 267.913 299.087L266.538 298.342C266.007 298.027 265.46 297.746 264.88 297.465L263.538 296.72C263.604 278.391 264.156 260.074 265.195 241.768C265.377 238.457 270.449 238.457 270.267 241.768C269.162 260.626 268.61 279.5 268.61 298.391C268.615 298.714 268.559 299.034 268.444 299.335Z" fill="#17283A"/>
<path d="M294.268 180.675C294.268 180.675 288.765 218.182 291.897 222.055L304.76 211.991L312.417 227.964L344.407 200.223L294.268 180.675Z" fill="#2B415D"/>
<path d="M288.632 123.025C288.632 123.025 288.748 146.992 288.632 155.914C288.499 165.299 292.477 190.672 307.942 189.861C323.406 189.05 339.252 171.092 339.252 166.987C339.252 166.987 354.882 157.271 346.048 149.806C337.213 142.341 336.534 154.97 336.534 154.97C336.534 154.97 331.744 148.018 331.412 129.365C331.412 129.348 309.351 132.824 288.632 123.025Z" fill="#FFAC73"/>
<path d="M338.54 191.848C330.65 199.114 317.821 200.454 305.97 198.766C305.086 198.706 304.249 198.345 303.6 197.742C302.951 197.139 302.53 196.332 302.406 195.456C302.207 191.831 301.992 188.206 301.677 184.581L342.451 164.719L339.335 190.573C339.335 190.573 339.02 191.07 338.54 191.848Z" fill="#FFAC73"/>
<path d="M310.561 199.246C308.903 199.13 307.395 198.965 305.82 198.733C304.951 198.669 304.132 198.302 303.505 197.698C302.878 197.093 302.484 196.288 302.389 195.423C302.29 193.536 302.207 191.649 302.074 189.762C310.71 189.762 326.075 187.726 334.18 171.77C333.152 178.075 330.403 183.975 326.236 188.822C322.07 193.669 316.646 197.276 310.561 199.246Z" fill="#E5894A"/>
<path d="M391.646 189.845C377.209 173.922 370.264 142.275 370.264 142.275H370.082C366.004 107.516 341.158 96.9396 319.412 95.7148C297.367 94.4734 281.206 102.716 280.046 117.232C278.886 131.748 288.682 137.988 288.682 137.988C288.682 137.988 325.511 148.631 327.931 144.096C330.351 139.56 330.832 118.556 332.987 146.065C333.699 155.152 333.517 164.272 333.451 173.376C333.45 184.469 334.388 195.543 336.252 206.479C337.578 214.673 338.805 223.793 346.794 228.245C358.893 235.015 376.264 235.031 388.231 227.666C392.459 248.055 395.475 268.676 397.265 289.42C397.265 289.42 422.624 287.765 425.442 250.126C428.26 212.488 406.066 205.801 391.646 189.845Z" fill="#4B1B13"/>
<path d="M342.434 140.802C342.434 140.802 350.722 114.567 332.158 102.882C315.119 92.1064 302.074 97.0389 302.074 97.0389C302.074 97.0389 312.798 87.5216 332.125 93.7285C351.451 99.9354 356.871 118.854 352.81 142.01" fill="#5D5E63"/>
<path d="M335.357 165.431C332.572 170.165 329.705 174.799 324.384 176.901C320.768 178.154 316.93 178.645 313.113 178.341C313.001 177.517 312.672 176.737 312.162 176.08C311.651 175.423 310.976 174.912 310.205 174.598C309.434 174.284 308.593 174.179 307.768 174.293C306.943 174.407 306.163 174.735 305.505 175.246C305.027 175.344 304.602 175.615 304.312 176.008C303.765 176.735 303.429 177.599 303.34 178.504C303.251 179.41 303.413 180.322 303.808 181.142C304.203 181.962 304.816 182.658 305.58 183.153C306.344 183.649 307.23 183.925 308.141 183.952C308.999 183.976 309.847 183.77 310.599 183.357C311.35 182.944 311.978 182.338 312.417 181.602C317.265 182.058 322.151 181.354 326.672 179.55C332.108 177.034 335.274 172.068 338.274 167.086C338.494 166.7 338.551 166.242 338.433 165.814C338.315 165.385 338.031 165.021 337.644 164.802C337.258 164.582 336.799 164.525 336.37 164.643C335.941 164.761 335.577 165.045 335.357 165.431Z" fill="#2B2D33"/>
<path d="M357.706 158.821C360.413 148.709 356.658 138.923 349.318 136.964C341.978 135.004 333.833 141.612 331.125 151.723C328.418 161.835 332.173 171.621 339.513 173.581C346.853 175.541 354.998 168.932 357.706 158.821Z" fill="#5D5E63"/>
<path d="M339.501 173.574C344.104 174.499 348.888 173.663 352.903 171.232C356.918 168.801 359.873 164.952 361.181 160.449C366.982 143.781 349.28 136.879 349.28 136.879" fill="#5D5E63"/>
<path d="M356.34 160.659C358.582 156.035 357.521 150.895 353.97 149.178C350.419 147.461 345.723 149.817 343.481 154.44C341.238 159.064 342.299 164.205 345.85 165.922C349.401 167.639 354.097 165.283 356.34 160.659Z" fill="#2B2D33"/>
<path d="M261.233 79.0968L155.485 18.5503C154.809 18.1737 154.046 17.9795 153.272 17.9868C152.497 17.994 151.738 18.2025 151.069 18.5917C150.4 18.9809 149.844 19.5373 149.456 20.2063C149.068 20.8753 148.861 21.6337 148.855 22.4068V61.436C148.856 63.3322 149.363 65.1939 150.325 66.829C151.286 68.4641 152.667 69.8136 154.325 70.7381L256.907 128.074C257.585 128.451 258.349 128.645 259.125 128.637C259.9 128.629 260.661 128.419 261.33 128.028C262 127.637 262.555 127.078 262.943 126.407C263.33 125.735 263.535 124.975 263.537 124.2V82.9533C263.53 82.1643 263.313 81.3914 262.908 80.7137C262.503 80.0361 261.925 79.4781 261.233 79.0968Z" fill="#68E1FD"/>
<path d="M253.709 119.764V142.639L234.581 114.17" fill="#68E1FD"/>
<path d="M161.469 41.3421L217.592 72.6084C220.393 74.1643 222.896 69.8774 220.095 68.3215L163.972 37.0552C161.17 35.4993 158.668 39.7862 161.469 41.3421Z" fill="#F2F2F2"/>
<path d="M159.016 56.967L243.863 104.222C246.664 105.778 249.167 101.491 246.366 99.9355L161.518 52.6801C158.717 51.1242 156.214 55.4111 159.016 56.967Z" fill="#F2F2F2"/>
<path d="M199.674 245.211L202.691 243.555V204.427C202.691 204.427 176.618 159.125 175.955 159.572C175.292 160.018 144.877 174.965 144.877 174.965V210.568" fill="#BC6608"/>
<path d="M144.877 174.948V214.424L163.242 206.661L144.877 174.948Z" fill="#FFCD5E"/>
<path d="M202.691 243.589V204.427L177.563 216.096L199.657 245.211C199.84 245.128 202.508 243.671 202.691 243.589Z" fill="#FFCD5E"/>
<path d="M144.877 214.424L199.674 245.211L177.563 216.096L163.242 206.661L144.877 214.424Z" fill="#FFE4A7"/>
<path d="M148.838 181.801V159.555L196.392 185.128V208.151L177.563 216.096L163.242 206.661L148.838 181.801Z" fill="#68E1FD"/>
<path d="M181.558 190.507C182.204 192.355 182.486 194.311 182.387 196.267C182.365 197.468 182.077 198.65 181.541 199.726C181.148 200.546 180.462 201.19 179.618 201.53C179.212 201.663 178.783 201.71 178.357 201.667C177.932 201.624 177.52 201.493 177.149 201.282C176.406 200.9 175.777 200.329 175.326 199.627C174.85 198.892 174.597 198.036 174.596 197.161C174.264 197.756 173.72 198.205 173.071 198.419C172.344 198.572 171.585 198.442 170.95 198.055C170.215 197.654 169.585 197.087 169.11 196.399C168.576 195.683 168.177 194.875 167.933 194.016C167.657 193.099 167.539 192.142 167.585 191.186C167.571 190.96 167.571 190.733 167.585 190.507C167.642 189.489 167.974 188.505 168.546 187.66C168.779 187.325 169.076 187.04 169.42 186.821C169.765 186.602 170.15 186.454 170.552 186.386C171.468 186.257 172.402 186.438 173.204 186.899C174.414 187.518 175.421 188.471 176.106 189.644C176.79 190.818 177.124 192.163 177.066 193.519C177.082 193.823 177.082 194.126 177.066 194.43L176.701 196.565C176.701 196.797 176.701 196.962 176.701 197.045C176.668 197.381 176.732 197.72 176.884 198.021C177.035 198.276 177.261 198.478 177.53 198.601C177.702 198.698 177.896 198.749 178.094 198.749C178.291 198.749 178.485 198.698 178.657 198.601C179.096 198.32 179.42 197.891 179.569 197.392C179.857 196.607 180.008 195.779 180.016 194.943C180.087 193.495 179.884 192.046 179.42 190.672C178.959 189.298 178.233 188.027 177.281 186.932C176.27 185.779 175.042 184.834 173.668 184.151C172.342 183.363 170.793 183.031 169.259 183.208C168.649 183.325 168.073 183.576 167.571 183.942C167.07 184.309 166.655 184.781 166.358 185.326C165.609 186.71 165.211 188.255 165.198 189.828C165.025 192.236 165.585 194.64 166.803 196.726C168.022 198.811 169.843 200.48 172.027 201.514L171.48 203.699C169.632 202.751 167.979 201.466 166.607 199.908C165.301 198.407 164.304 196.664 163.673 194.777C163.026 192.798 162.751 190.716 162.861 188.637C162.828 186.615 163.406 184.631 164.519 182.943C164.987 182.29 165.591 181.745 166.289 181.345C166.986 180.946 167.762 180.7 168.563 180.625C170.488 180.507 172.405 180.95 174.082 181.9C175.836 182.783 177.41 183.984 178.723 185.442C180 186.923 180.964 188.646 181.558 190.507ZM174.298 195.257C174.616 194.632 174.781 193.94 174.779 193.238C174.835 192.429 174.662 191.62 174.281 190.904C173.944 190.264 173.417 189.744 172.773 189.414C172.37 189.173 171.887 189.102 171.43 189.216C171.207 189.282 171 189.394 170.823 189.545C170.646 189.696 170.503 189.883 170.403 190.093C170.112 190.709 169.959 191.382 169.955 192.063C169.901 192.888 170.073 193.712 170.453 194.446C170.774 195.081 171.283 195.601 171.911 195.936C172.32 196.163 172.797 196.233 173.254 196.135C173.482 196.065 173.694 195.95 173.876 195.797C174.059 195.643 174.208 195.454 174.314 195.241" fill="white"/>
<path d="M432.105 5.57364L429.967 32.0234L421.763 19.924L417.171 13.1378L408.635 0.508789L432.105 5.57364Z" fill="#68E1FD"/>
<path d="M453.106 12.3434C474.355 23.9296 490.449 51.8028 489.571 76.5974C488.692 102.766 469.25 115.726 446.244 105.497C423.238 95.2679 405.237 65.6236 406.116 39.4552C406.514 27.7365 410.624 18.6661 417.122 13.1378L421.713 19.9241C416.227 24.6248 412.729 32.3048 412.398 42.2525C411.652 64.4981 426.951 89.6568 446.492 98.3631C466.034 107.069 482.543 96.0458 483.289 73.8167C483.985 52.9615 470.593 29.5407 452.824 19.5268L453.106 12.3434Z" fill="#68E1FD"/>
<path d="M428.84 39.7366C430.565 40.458 432.028 41.688 433.033 43.2621C433.966 44.7464 434.428 46.4769 434.359 48.2277C434.334 49.5818 433.901 50.8969 433.116 52.0015C432.337 53.095 431.338 54.014 430.183 54.6994C429.039 55.3833 427.798 55.8911 426.503 56.2056L434.326 59.6815L434.21 62.9919L421.597 57.4305L421.696 54.4015C427.564 52.4484 430.547 49.9656 430.647 46.9863C430.69 46.1676 430.518 45.3518 430.149 44.6194C429.763 43.9087 429.142 43.3532 428.392 43.047C426.724 42.3076 425.796 43.2069 425.608 45.7449L422.21 44.189C422.392 41.8387 423.088 40.2994 424.315 39.5876C425.025 39.2436 425.807 39.0774 426.596 39.1033C427.384 39.1293 428.155 39.3466 428.84 39.7366Z" fill="#ED1C24"/>
<path d="M462.437 48.0952L454.481 77.5243L451.05 76.0016L458.99 46.5725L462.437 48.0952Z" fill="#ED1C24"/>
<path d="M448.597 61.8994L450.934 62.9422L450.818 66.4512L448.481 65.4084L448.349 69.4967L444.752 67.8415L444.884 63.7532L436.1 59.847L436.216 56.5366L445.199 47.2345L449.012 48.8897L448.597 61.8994ZM445.282 60.4263L445.564 52.1504L439.879 57.9435L445.282 60.3601" fill="#ED1C24"/>
<path d="M474.156 60.1946L474.057 63.207L466.929 77.7726L463.233 76.134L470.427 62.0649L462.139 58.3739L462.255 54.898L474.156 60.1946Z" fill="#ED1C24"/>
<defs>
<filter id="filter0_d_150_126" x="0.412109" y="64.9362" width="643.92" height="395.842" filterUnits="userSpaceOnUse" color-interpolation-filters="sRGB">
<feFlood flood-opacity="0" result="BackgroundImageFix"/>
<feColorMatrix in="SourceAlpha" type="matrix" values="0 0 0 0 0 0 0 0 0 0 0 0 0 0 0 0 0 0 127 0" result="hardAlpha"/>
<feOffset dx="10" dy="20"/>
<feGaussianBlur stdDeviation="7.5"/>
<feComposite in2="hardAlpha" operator="out"/>
<feColorMatrix type="matrix" values="0 0 0 0 0 0 0 0 0 0 0 0 0 0 0 0 0 0 0.25 0"/>
<feBlend mode="normal" in2="BackgroundImageFix" result="effect1_dropShadow_150_126"/>
<feBlend mode="normal" in="SourceGraphic" in2="effect1_dropShadow_150_126" result="shape"/>
</filter>
<linearGradient id="paint0_linear_150_126" x1="495.736" y1="275.798" x2="513.855" y2="253.23" gradientUnits="userSpaceOnUse">
<stop offset="0.02" stop-color="#4444A5" stop-opacity="0"/>
<stop offset="1"/>
</linearGradient>
<linearGradient id="paint1_linear_150_126" x1="233.62" y1="373.437" x2="292.94" y2="299.568" gradientUnits="userSpaceOnUse">
<stop offset="0.02" stop-color="#4444A5" stop-opacity="0"/>
<stop offset="1"/>
</linearGradient>
<linearGradient id="paint2_linear_150_126" x1="142.076" y1="248.157" x2="176.242" y2="215.899" gradientUnits="userSpaceOnUse">
<stop stop-color="#4444A5" stop-opacity="0"/>
<stop offset="1"/>
</linearGradient>
</defs>
</svg>
