<svg width="216" height="201" viewBox="0 0 216 201" fill="none" xmlns="http://www.w3.org/2000/svg">
<circle cx="16.491" cy="194.038" r="4" transform="rotate(-89.3727 16.491 194.038)" fill="#8B409E"/>
<circle cx="16.7099" cy="174.04" r="4" transform="rotate(-89.3727 16.7099 174.04)" fill="#8B409E"/>
<circle cx="16.9289" cy="154.041" r="4" transform="rotate(-89.3727 16.9289 154.041)" fill="#8B409E"/>
<circle cx="17.1479" cy="134.042" r="4" transform="rotate(-89.3727 17.1479 134.042)" fill="#8B409E"/>
<circle cx="17.3668" cy="114.043" r="4" transform="rotate(-89.3727 17.3668 114.043)" fill="#8B409E"/>
<circle cx="17.5858" cy="94.0443" r="4" transform="rotate(-89.3727 17.5858 94.0443)" fill="#8B409E"/>
<circle cx="17.8048" cy="74.0456" r="4" transform="rotate(-89.3727 17.8048 74.0456)" fill="#8B409E"/>
<circle cx="18.0237" cy="54.0467" r="4" transform="rotate(-89.3727 18.0237 54.0467)" fill="#8B409E"/>
<circle cx="18.2427" cy="34.0479" r="4" transform="rotate(-89.3727 18.2427 34.0479)" fill="#8B409E"/>
<circle cx="18.4617" cy="14.0491" r="4" transform="rotate(-89.3727 18.4617 14.0491)" fill="#8B409E"/>
<circle cx="36.4898" cy="194.257" r="4" transform="rotate(-89.3727 36.4898 194.257)" fill="#8B409E"/>
<circle cx="36.7087" cy="174.259" r="4" transform="rotate(-89.3727 36.7087 174.259)" fill="#8B409E"/>
<circle cx="36.9277" cy="154.26" r="4" transform="rotate(-89.3727 36.9277 154.26)" fill="#8B409E"/>
<circle cx="37.1467" cy="134.261" r="4" transform="rotate(-89.3727 37.1467 134.261)" fill="#8B409E"/>
<circle cx="37.3656" cy="114.262" r="4" transform="rotate(-89.3727 37.3656 114.262)" fill="#8B409E"/>
<circle cx="37.5846" cy="94.2633" r="4" transform="rotate(-89.3727 37.5846 94.2633)" fill="#8B409E"/>
<circle cx="37.8036" cy="74.2645" r="4" transform="rotate(-89.3727 37.8036 74.2645)" fill="#8B409E"/>
<circle cx="38.0225" cy="54.2657" r="4" transform="rotate(-89.3727 38.0225 54.2657)" fill="#8B409E"/>
<circle cx="38.2415" cy="34.2669" r="4" transform="rotate(-89.3727 38.2415 34.2669)" fill="#8B409E"/>
<circle cx="56.4886" cy="194.476" r="4" transform="rotate(-89.3727 56.4886 194.476)" fill="#8B409E"/>
<circle cx="56.7075" cy="174.477" r="4" transform="rotate(-89.3727 56.7075 174.477)" fill="#8B409E"/>
<circle cx="56.9265" cy="154.479" r="4" transform="rotate(-89.3727 56.9265 154.479)" fill="#8B409E"/>
<circle cx="57.1455" cy="134.48" r="4" transform="rotate(-89.3727 57.1455 134.48)" fill="#8B409E"/>
<circle cx="57.3644" cy="114.481" r="4" transform="rotate(-89.3727 57.3644 114.481)" fill="#8B409E"/>
<circle cx="57.5834" cy="94.4823" r="4" transform="rotate(-89.3727 57.5834 94.4823)" fill="#8B409E"/>
<circle cx="57.8024" cy="74.4835" r="4" transform="rotate(-89.3727 57.8024 74.4835)" fill="#8B409E"/>
<circle cx="58.0214" cy="54.4847" r="4" transform="rotate(-89.3727 58.0214 54.4847)" fill="#8B409E"/>
<circle cx="76.4874" cy="194.695" r="4" transform="rotate(-89.3727 76.4874 194.695)" fill="#8B409E"/>
<circle cx="76.7063" cy="174.696" r="4" transform="rotate(-89.3727 76.7063 174.696)" fill="#8B409E"/>
<circle cx="76.9253" cy="154.698" r="4" transform="rotate(-89.3727 76.9253 154.698)" fill="#8B409E"/>
<circle cx="77.1443" cy="134.699" r="4" transform="rotate(-89.3727 77.1443 134.699)" fill="#8B409E"/>
<circle cx="77.3632" cy="114.7" r="4" transform="rotate(-89.3727 77.3632 114.7)" fill="#8B409E"/>
<circle cx="77.5822" cy="94.7012" r="4" transform="rotate(-89.3727 77.5822 94.7012)" fill="#8B409E"/>
<circle cx="77.8012" cy="74.7024" r="4" transform="rotate(-89.3727 77.8012 74.7024)" fill="#8B409E"/>
<circle cx="96.4862" cy="194.914" r="4" transform="rotate(-89.3727 96.4862 194.914)" fill="#8B409E"/>
<circle cx="96.7051" cy="174.915" r="4" transform="rotate(-89.3727 96.7051 174.915)" fill="#8B409E"/>
<circle cx="96.9241" cy="154.917" r="4" transform="rotate(-89.3727 96.9241 154.917)" fill="#8B409E"/>
<circle cx="97.1431" cy="134.918" r="4" transform="rotate(-89.3727 97.1431 134.918)" fill="#8B409E"/>
<circle cx="97.3621" cy="114.919" r="4" transform="rotate(-89.3727 97.3621 114.919)" fill="#8B409E"/>
<circle cx="97.581" cy="94.9202" r="4" transform="rotate(-89.3727 97.581 94.9202)" fill="#8B409E"/>
<circle cx="116.485" cy="195.133" r="4" transform="rotate(-89.3727 116.485 195.133)" fill="#8B409E"/>
<circle cx="116.704" cy="175.134" r="4" transform="rotate(-89.3727 116.704 175.134)" fill="#8B409E"/>
<circle cx="116.923" cy="155.136" r="4" transform="rotate(-89.3727 116.923 155.136)" fill="#8B409E"/>
<circle cx="117.142" cy="135.137" r="4" transform="rotate(-89.3727 117.142 135.137)" fill="#8B409E"/>
<circle cx="117.361" cy="115.138" r="4" transform="rotate(-89.3727 117.361 115.138)" fill="#8B409E"/>
<circle cx="136.484" cy="195.352" r="4" transform="rotate(-89.3727 136.484 195.352)" fill="#8B409E"/>
<circle cx="136.703" cy="175.353" r="4" transform="rotate(-89.3727 136.703 175.353)" fill="#8B409E"/>
<circle cx="136.922" cy="155.355" r="4" transform="rotate(-89.3727 136.922 155.355)" fill="#8B409E"/>
<circle cx="137.141" cy="135.356" r="4" transform="rotate(-89.3727 137.141 135.356)" fill="#8B409E"/>
<circle cx="156.483" cy="195.571" r="4" transform="rotate(-89.3727 156.483 195.571)" fill="#8B409E"/>
<circle cx="156.702" cy="175.572" r="4" transform="rotate(-89.3727 156.702 175.572)" fill="#8B409E"/>
<circle cx="156.921" cy="155.574" r="4" transform="rotate(-89.3727 156.921 155.574)" fill="#8B409E"/>
<circle cx="176.481" cy="195.79" r="4" transform="rotate(-89.3727 176.481 195.79)" fill="#8B409E"/>
<circle cx="176.7" cy="175.791" r="4" transform="rotate(-89.3727 176.7 175.791)" fill="#8B409E"/>
<circle cx="196.48" cy="196.009" r="4" transform="rotate(-89.3727 196.48 196.009)" fill="#8B409E"/>
</svg>
