<svg width="765" height="983" viewBox="0 0 765 983" fill="none" xmlns="http://www.w3.org/2000/svg">
<rect x="-209.922" y="929.137" width="410" height="312" transform="rotate(-35.838 -209.922 929.137)" fill="url(#paint0_linear_60_2732)"/>
<g filter="url(#filter0_d_60_2732)">
<path fill-rule="evenodd" clip-rule="evenodd" d="M-205.15 151.536L-198.309 187.921C-191.899 226.204 -179.29 300.383 -111.296 303.203C-43.9454 305.532 77.7175 237.912 97.8397 302.229C118.605 367.035 39.5462 562.861 68.2554 615.907C96.5344 670.853 233.655 581.61 293.062 595.7C352.899 607.891 335.023 723.415 364.375 776.952C392.011 831.407 467.518 824.365 503.741 867.55C540.607 911.225 537.115 1006.53 537.086 1053.27L535.339 1100.93L489.184 1161.51L467.316 1144.84C444.805 1127.69 401.068 1094.37 356.688 1060.56C312.952 1027.23 268.572 993.419 224.836 960.096C180.456 926.282 136.076 892.469 92.34 859.146C47.9604 825.333 4.22387 792.009 -40.1558 758.196C-83.8923 724.873 -128.272 691.06 -172.652 657.246C-216.388 623.923 -260.768 590.11 -304.504 556.787C-348.884 522.973 -392.62 489.65 -415.132 472.498L-437 455.837L-205.15 151.536Z" fill="url(#paint1_linear_60_2732)"/>
</g>
<g filter="url(#filter1_d_60_2732)">
<circle cx="199" cy="501" r="90" fill="url(#paint2_linear_60_2732)"/>
</g>
<g filter="url(#filter2_d_60_2732)">
<circle cx="653" cy="915" r="25" fill="url(#paint3_linear_60_2732)"/>
</g>
<g filter="url(#filter3_d_60_2732)">
<circle cx="403" cy="95" r="95" fill="url(#paint4_linear_60_2732)"/>
</g>
<defs>
<filter id="filter0_d_60_2732" x="-437" y="151.536" width="993.186" height="1028.97" filterUnits="userSpaceOnUse" color-interpolation-filters="sRGB">
<feFlood flood-opacity="0" result="BackgroundImageFix"/>
<feColorMatrix in="SourceAlpha" type="matrix" values="0 0 0 0 0 0 0 0 0 0 0 0 0 0 0 0 0 0 127 0" result="hardAlpha"/>
<feOffset dx="15" dy="15"/>
<feGaussianBlur stdDeviation="2"/>
<feComposite in2="hardAlpha" operator="out"/>
<feColorMatrix type="matrix" values="0 0 0 0 0 0 0 0 0 0 0 0 0 0 0 0 0 0 0.25 0"/>
<feBlend mode="normal" in2="BackgroundImageFix" result="effect1_dropShadow_60_2732"/>
<feBlend mode="normal" in="SourceGraphic" in2="effect1_dropShadow_60_2732" result="shape"/>
</filter>
<filter id="filter1_d_60_2732" x="109" y="411" width="199" height="199" filterUnits="userSpaceOnUse" color-interpolation-filters="sRGB">
<feFlood flood-opacity="0" result="BackgroundImageFix"/>
<feColorMatrix in="SourceAlpha" type="matrix" values="0 0 0 0 0 0 0 0 0 0 0 0 0 0 0 0 0 0 127 0" result="hardAlpha"/>
<feOffset dx="15" dy="15"/>
<feGaussianBlur stdDeviation="2"/>
<feComposite in2="hardAlpha" operator="out"/>
<feColorMatrix type="matrix" values="0 0 0 0 0 0 0 0 0 0 0 0 0 0 0 0 0 0 0.25 0"/>
<feBlend mode="normal" in2="BackgroundImageFix" result="effect1_dropShadow_60_2732"/>
<feBlend mode="normal" in="SourceGraphic" in2="effect1_dropShadow_60_2732" result="shape"/>
</filter>
<filter id="filter2_d_60_2732" x="628" y="890" width="69" height="69" filterUnits="userSpaceOnUse" color-interpolation-filters="sRGB">
<feFlood flood-opacity="0" result="BackgroundImageFix"/>
<feColorMatrix in="SourceAlpha" type="matrix" values="0 0 0 0 0 0 0 0 0 0 0 0 0 0 0 0 0 0 127 0" result="hardAlpha"/>
<feOffset dx="15" dy="15"/>
<feGaussianBlur stdDeviation="2"/>
<feComposite in2="hardAlpha" operator="out"/>
<feColorMatrix type="matrix" values="0 0 0 0 0 0 0 0 0 0 0 0 0 0 0 0 0 0 0.25 0"/>
<feBlend mode="normal" in2="BackgroundImageFix" result="effect1_dropShadow_60_2732"/>
<feBlend mode="normal" in="SourceGraphic" in2="effect1_dropShadow_60_2732" result="shape"/>
</filter>
<filter id="filter3_d_60_2732" x="308" y="0" width="209" height="209" filterUnits="userSpaceOnUse" color-interpolation-filters="sRGB">
<feFlood flood-opacity="0" result="BackgroundImageFix"/>
<feColorMatrix in="SourceAlpha" type="matrix" values="0 0 0 0 0 0 0 0 0 0 0 0 0 0 0 0 0 0 127 0" result="hardAlpha"/>
<feOffset dx="15" dy="15"/>
<feGaussianBlur stdDeviation="2"/>
<feComposite in2="hardAlpha" operator="out"/>
<feColorMatrix type="matrix" values="0 0 0 0 0 0 0 0 0 0 0 0 0 0 0 0 0 0 0.25 0"/>
<feBlend mode="normal" in2="BackgroundImageFix" result="effect1_dropShadow_60_2732"/>
<feBlend mode="normal" in="SourceGraphic" in2="effect1_dropShadow_60_2732" result="shape"/>
</filter>
<linearGradient id="paint0_linear_60_2732" x1="-209.922" y1="944.137" x2="200.078" y2="1241.14" gradientUnits="userSpaceOnUse">
<stop stop-color="#136ACD"/>
<stop offset="0.456833" stop-color="#593BD7"/>
<stop offset="1" stop-color="#A40AE3"/>
</linearGradient>
<linearGradient id="paint1_linear_60_2732" x1="-133.5" y1="313.5" x2="424" y2="1001.5" gradientUnits="userSpaceOnUse">
<stop stop-color="#0D6FCD"/>
<stop offset="0.479648" stop-color="#533FD2"/>
<stop offset="1" stop-color="#A40AE3"/>
</linearGradient>
<linearGradient id="paint2_linear_60_2732" x1="199" y1="411" x2="199" y2="591" gradientUnits="userSpaceOnUse">
<stop stop-color="#B20AA8"/>
<stop offset="1" stop-color="#6F1FAB"/>
</linearGradient>
<linearGradient id="paint3_linear_60_2732" x1="653" y1="890" x2="653" y2="940" gradientUnits="userSpaceOnUse">
<stop stop-color="#B20AA8"/>
<stop offset="1" stop-color="#6F1FAB"/>
</linearGradient>
<linearGradient id="paint4_linear_60_2732" x1="308" y1="95" x2="498" y2="95" gradientUnits="userSpaceOnUse">
<stop stop-color="#29B7DF"/>
<stop offset="1" stop-color="#49269D"/>
</linearGradient>
</defs>
</svg>
