<svg width="618" height="455" viewBox="0 0 618 455" fill="none" xmlns="http://www.w3.org/2000/svg">
<g filter="url(#filter0_d_10_753)">
<path d="M289.827 415.526L16.4146 265.379C7.71299 260.843 0.247639 253.377 8.72739 248.502L283.107 101.551C287.228 99.1802 293.473 97.6338 297.657 99.8871L584.701 254.658C593.402 259.356 594.971 272.478 586.286 277.176L325.902 415.29C320.43 418.242 314.225 419.817 307.898 419.858C301.571 419.9 295.343 418.406 289.827 415.526Z" fill="#4444A5"/>
</g>
<path d="M268.842 301.329C240.312 316.498 211.782 331.859 183.252 347.102C214.064 364.569 255.702 387.706 262.407 391.078L348.393 344.657L268.842 301.329Z" fill="url(#paint0_linear_10_753)"/>
<path d="M411.365 312.154L487.223 271.212L390.966 218.767L312.461 256.44C320.703 261.992 402.315 307.632 411.365 312.154Z" fill="url(#paint1_linear_10_753)"/>
<path d="M393.296 1.1248C414.202 13.2897 466.792 41.5517 484.719 51.7725C488.776 54.0847 489.474 57.5309 489.474 61.9639V268.752C488.368 269.944 486.841 270.73 485.167 270.968C483.493 271.205 481.782 270.879 480.344 270.048L392.107 223.715C387.717 221.315 384.261 218.841 384.261 214.113L385.022 4.8803C384.975 0.329522 389.159 -1.2905 393.296 1.1248Z" fill="#68E1FD"/>
<path d="M385.149 3.39284L413.838 18.783V24.5415C413.84 25.0254 413.979 25.5004 414.24 25.9191C414.501 26.3377 414.876 26.6853 415.327 26.9273L437.517 38.8418C437.816 39.0019 438.154 39.0862 438.499 39.0865C438.843 39.0867 439.182 39.0028 439.48 38.8432C439.779 38.6836 440.027 38.4539 440.2 38.1771C440.373 37.9003 440.464 37.5861 440.466 37.266V33.0686L482.151 55.7784C482.548 55.9962 482.876 56.3065 483.104 56.6784C483.332 57.0503 483.451 57.4711 483.451 57.8991V264.673C483.458 264.968 483.38 265.261 483.224 265.519C483.069 265.778 482.843 265.993 482.568 266.143C482.294 266.293 481.981 266.372 481.663 266.373C481.344 266.373 481.031 266.295 480.756 266.145L384.214 214.143C384.042 215.749 384.347 217.368 385.096 218.825C385.845 220.281 387.009 221.519 388.462 222.405C393.47 225.35 481.406 271.609 481.406 271.609C481.406 271.609 488.364 274.555 490.393 266.823V58.7533C490.397 57.4068 490.057 56.0787 489.401 54.878C488.746 53.6772 487.793 52.6382 486.621 51.8461C482.595 49.1363 392.9 0.682989 392.9 0.682989C392.9 0.682989 386.576 -2.04159 385.149 3.39284Z" fill="#124577"/>
<path d="M368.792 45.9846V64.9094C368.986 66.4078 369.671 67.8146 370.754 68.9394C371.837 70.0642 373.265 70.8526 374.846 71.198C380.362 72.3615 381.186 65.6163 381.186 65.6163V51.64L368.792 45.9846Z" fill="#C13D3D"/>
<path d="M380.79 53.5104L381.377 73.4366C381.571 74.935 382.256 76.3418 383.339 77.4666C384.422 78.5914 385.85 79.3799 387.431 79.7252C392.947 80.8887 393.771 74.1435 393.771 74.1435V60.1672L380.79 53.5104Z" fill="#DD842A"/>
<path d="M393.629 60.285V79.2098C393.823 80.7082 394.508 82.115 395.591 83.2398C396.674 84.3646 398.102 85.153 399.684 85.4984C405.199 86.6618 406.024 79.9167 406.024 79.9167V65.9403L393.629 60.285Z" fill="#C13D3D"/>
<path d="M405.944 67.1774V86.1022C406.138 87.6006 406.823 89.0074 407.906 90.1322C408.989 91.257 410.418 92.0455 411.999 92.3908C417.515 93.5543 418.339 86.8091 418.339 86.8091V72.8328L405.944 67.1774Z" fill="#DD842A"/>
<path d="M418.276 72.9653V91.8753C418.47 93.3737 419.154 94.7806 420.237 95.9054C421.32 97.0302 422.749 97.8186 424.33 98.164C429.846 99.3274 430.67 92.5823 430.67 92.5823V78.6059L418.276 72.9653Z" fill="#C13D3D"/>
<path d="M430.385 80.6825V99.6073C430.579 101.106 431.264 102.512 432.347 103.637C433.43 104.762 434.859 105.551 436.44 105.896C441.955 107.059 442.78 100.314 442.78 100.314V86.3378L430.385 80.6825Z" fill="#DD842A"/>
<path d="M430.385 81.6545L459.66 43.319L470.945 49.7254L442.716 88.4144" fill="#F29D40"/>
<path d="M418.276 74.9388L446.996 36.618L459.66 43.319L430.385 81.6545" fill="#E04F4F"/>
<path d="M405.944 68.1936L435.79 30.2115L446.996 36.618L418.276 75.0272" fill="#F29D40"/>
<path d="M393.629 61.2275L422.603 23.3191L435.79 30.2115L405.944 68.1053" fill="#E04F4F"/>
<path d="M381.123 54.0847L408.845 16.1763L422.603 23.3191L393.629 61.2275" fill="#F29D40"/>
<path d="M368.792 47.1481L396.339 9.3869L408.845 16.1763L381.123 54.0847" fill="#E04F4F"/>
<path d="M356.476 40.4618L385.149 3.39284L396.339 9.38691L368.792 47.1481" fill="#F29D40"/>
<path d="M482.151 55.7784C482.151 55.7784 483.451 56.0287 483.451 58.1053V94.5852L451.465 111.581L455.872 85.572L482.151 55.7784Z" fill="#AA2B2B"/>
<path d="M442.716 88.4144V105.366C442.91 106.864 443.595 108.271 444.678 109.396C445.761 110.521 447.19 111.309 448.771 111.654C454.287 112.818 455.111 106.073 455.111 106.073L454.873 94.9092L442.716 88.4144Z" fill="#C13D3D"/>
<path d="M454.794 94.924L482.151 55.7784L470.945 49.7254L442.716 88.4144" fill="#E04F4F"/>
<path d="M356.476 40.4618V60.3439C356.67 61.8423 357.355 63.2491 358.438 64.3739C359.521 65.4987 360.95 66.2872 362.531 66.6325C368.047 67.796 368.871 61.0508 368.871 61.0508V47.0745L356.476 40.4618Z" fill="#DD842A"/>
<path d="M438.136 237.721C440.324 237.721 442.098 229.67 442.098 219.739C442.098 209.808 440.324 201.757 438.136 201.757C435.947 201.757 434.173 209.808 434.173 219.739C434.173 229.67 435.947 237.721 438.136 237.721Z" fill="#46BBCE"/>
<path d="M376.955 218.281C376.955 218.281 377.795 267.751 379.808 268.561C381.821 269.371 386.988 269.297 388.874 266.926C390.76 264.555 393.201 243.156 392.773 237.206C392.345 231.256 389.841 217.898 389.841 217.898" fill="#FFB288"/>
<path d="M376.225 270.122C377.439 268.364 378.254 266.394 378.619 264.334C382.819 265.306 386.1 265.895 389.714 263.892C390.411 266.705 392.884 270.225 392.662 272.39C392.377 275.807 389.254 274.702 386.132 275.586C383.929 276.204 382.375 278.31 381.028 280.254C378.927 282.353 376.157 283.772 373.125 284.302C370.093 284.832 366.958 284.446 364.179 283.2C363.794 282.378 363.558 281.502 363.482 280.608C362.975 276.675 373.975 273.126 376.225 270.122Z" fill="#29333F"/>
<path d="M404.581 179.194C404.602 175.499 404.882 171.81 405.421 168.149L397.496 166.676C380.251 173.848 376.891 218.222 376.891 218.222C376.891 218.222 388.953 224.113 392.345 223.303C395.103 222.64 402.108 202.95 404.613 195.616C404.502 190.181 404.407 184.688 404.581 179.194Z" fill="#DD842A"/>
<path d="M376.955 218.281L376.194 260.284C376.194 260.284 388.604 262.257 391.156 261.108C393.708 259.96 395.055 219.872 395.055 219.872L376.955 218.281Z" fill="#DD842A"/>
<path d="M400.872 206.322L398.035 181.713L395.055 219.945L400.872 206.322Z" fill="#B5641C"/>
<path opacity="0.32" d="M56.2616 276.322L122.324 241.506L93.5566 229.444L29.1422 262.787C37.4318 268.325 47.1954 271.786 56.2616 276.322Z" fill="url(#paint2_linear_10_753)"/>
<path d="M91.6229 210.328C91.6229 210.328 85.8377 247.029 110.643 247.147C134.608 247.265 128.442 209.931 128.442 209.931C128.442 209.931 111.071 195.836 91.6229 210.328Z" fill="#68E1FD"/>
<path opacity="0.15" d="M91.6229 210.328C91.6229 210.328 85.8377 247.029 110.643 247.147C134.608 247.265 128.442 209.931 128.442 209.931C128.442 209.931 111.071 195.836 91.6229 210.328Z" fill="black"/>
<path d="M109.977 217.383C120.131 217.383 128.363 214.224 128.363 210.328C128.363 206.432 120.131 203.274 109.977 203.274C99.8229 203.274 91.5912 206.432 91.5912 210.328C91.5912 214.224 99.8229 217.383 109.977 217.383Z" fill="#68E1FD"/>
<path opacity="0.7" d="M109.977 217.383C120.131 217.383 128.363 214.224 128.363 210.328C128.363 206.432 120.131 203.274 109.977 203.274C99.8229 203.274 91.5912 206.432 91.5912 210.328C91.5912 214.224 99.8229 217.383 109.977 217.383Z" fill="black"/>
<path d="M81.0351 156.735C81.0351 156.735 68.2283 153.878 73.1101 143.966C73.1418 143.966 81.9544 145.586 81.0351 156.735Z" fill="#938F05"/>
<path d="M88.8333 166.72C88.8333 166.72 87.0581 158.252 94.1747 154.835C94.1747 154.85 99.8966 163.716 88.8333 166.72Z" fill="#938F05"/>
<path d="M96.8216 179.71C96.8216 179.71 94.6977 169.577 103.162 165.498C103.209 165.498 110.056 176.057 96.8216 179.71Z" fill="#938F05"/>
<path d="M103.003 193.833C103.003 193.833 100.879 183.701 109.343 179.621C109.391 179.621 116.238 190.225 103.003 193.833Z" fill="#938F05"/>
<path d="M88.0566 166.956C88.0566 166.956 83.5394 159.43 75.7253 161.065C75.7253 161.08 77.5164 171.271 88.0566 166.956Z" fill="#938F05"/>
<path d="M96.0767 180.019C96.0767 180.019 90.2914 171.183 81.035 173.524C81.1143 173.524 83.7612 185.645 96.0767 180.019Z" fill="#938F05"/>
<path d="M102.29 193.966C102.29 193.966 95.5061 185.807 86.5826 189.062C86.5667 189.047 90.656 200.829 102.29 193.966Z" fill="#938F05"/>
<path d="M107.093 217.456H107.267C107.867 217.444 108.467 217.488 109.058 217.589C109.065 217.53 109.065 217.471 109.058 217.412C106.264 194.764 96.6992 173.295 81.4472 155.439C80.6547 154.511 79.2441 155.822 80.0366 156.75C94.951 174.232 104.316 195.237 107.077 217.397L107.093 217.456Z" fill="#42352F"/>
<path d="M137.414 172.906C137.414 172.906 148.398 170.461 144.182 161.963C144.182 161.949 136.621 163.348 137.414 172.906Z" fill="#938F05"/>
<path d="M130.725 181.462C130.725 181.462 132.31 174.202 126.144 171.271C126.192 171.286 121.231 178.885 130.725 181.462Z" fill="#938F05"/>
<path d="M123.878 192.611C123.878 192.611 125.7 183.922 118.394 180.417C118.394 180.476 112.529 189.504 123.878 192.611Z" fill="#938F05"/>
<path d="M118.568 204.732C118.568 204.732 120.391 196.043 113.084 192.537C113.084 192.537 107.172 201.639 118.568 204.732Z" fill="#938F05"/>
<path d="M131.391 181.669C131.391 181.669 135.274 175.203 141.962 176.632C142.042 176.632 140.457 185.38 131.391 181.669Z" fill="#938F05"/>
<path d="M124.448 192.876C124.448 192.876 129.409 185.321 137.35 187.309C137.287 187.309 135.068 197.707 124.448 192.876Z" fill="#938F05"/>
<path d="M119.17 204.835C119.17 204.835 125.003 197.839 132.643 200.623C132.659 200.623 129.156 210.726 119.17 204.835Z" fill="#938F05"/>
<path d="M137.065 171.816C125.736 185.066 118.035 200.672 114.621 217.294C115.208 217.206 115.794 217.132 116.396 217.073C119.778 200.932 127.279 185.78 138.269 172.891C138.872 172.155 137.746 171.021 137.065 171.816Z" fill="#42352F"/>
<path d="M185.788 114.777C186.811 114.165 188.002 113.839 189.219 113.839C190.436 113.839 191.627 114.165 192.651 114.777C196.455 117.369 196.471 124.467 192.651 130.667C191.089 133.419 188.714 135.698 185.804 137.236C184.78 137.848 183.589 138.173 182.372 138.173C181.155 138.173 179.964 137.848 178.94 137.236C175.136 134.644 175.121 127.545 178.94 121.345C180.502 118.593 182.878 116.314 185.788 114.777Z" fill="#68E1FD"/>
<path d="M185.661 76.7797C196.597 71.5662 207.55 71.1833 215.903 76.8828C217.107 77.7075 217.123 79.9756 215.903 81.949C215.402 82.8248 214.643 83.5501 213.715 84.0403C213.389 84.2345 213.009 84.3377 212.622 84.3377C212.234 84.3377 211.855 84.2345 211.528 84.0403C204.38 79.1803 195.012 79.5043 185.661 83.952C176.309 88.3997 166.974 96.9858 159.889 108.62C159.388 109.496 158.629 110.222 157.702 110.712C157.375 110.906 156.996 111.009 156.608 111.009C156.22 111.009 155.841 110.906 155.514 110.712C154.294 109.887 154.294 107.619 155.514 105.646C163.804 92.0226 174.724 81.9932 185.661 76.7797Z" fill="#68E1FD"/>
<path d="M185.598 57.148C200.671 49.961 215.713 49.5634 227.521 57.5604C229.47 58.9006 228.076 63.4514 225.349 64.7327C225.024 64.9286 224.644 65.0328 224.256 65.0328C223.868 65.0328 223.488 64.9286 223.162 64.7327C212.606 57.5604 199.102 57.8844 185.613 64.3203C172.125 70.7562 158.668 83.2598 148.176 100.447C147.677 101.324 146.918 102.05 145.988 102.538C145.659 102.733 145.277 102.837 144.887 102.837C144.496 102.837 144.114 102.733 143.785 102.538C142.581 101.713 142.565 99.4453 143.785 97.4718C155.467 78.2819 170.572 64.3203 185.598 57.148Z" fill="#68E1FD"/>
<path d="M185.724 95.1449C192.603 91.8754 199.498 91.625 204.744 95.1449C206.694 96.4703 205.299 101.036 202.573 102.302C202.246 102.495 201.866 102.597 201.479 102.597C201.092 102.597 200.713 102.495 200.386 102.302C196.344 99.5484 191.034 99.7251 185.74 102.302C179.54 105.573 174.475 110.423 171.142 116.279C170.652 117.152 169.904 117.877 168.987 118.37C168.658 118.566 168.276 118.669 167.885 118.669C167.495 118.669 167.112 118.566 166.784 118.37C165.579 117.531 165.563 115.263 166.784 113.304C171.966 104.732 178.845 98.4144 185.724 95.1449Z" fill="#68E1FD"/>
<path d="M205.141 265.453C226.728 254.187 252.421 241.727 273.993 230.461L291.571 221.285C293.536 220.255 295.755 218.693 297.911 217.766C298.614 217.943 299.279 218.232 299.876 218.62C302.095 220.093 304.726 221.138 307.088 222.361L328.2 233.318C338.756 238.796 354.257 245.38 364.813 250.858C367.033 250.858 364.29 249.592 366.494 249.385L366.351 249.282L334.809 232.905L311.637 220.873C308.213 219.091 303.474 215.35 299.591 214.614C297.372 214.187 296.516 214.938 294.471 215.998L280.396 223.362L234.97 247.088L203.365 263.539C202.999 263.714 202.72 264.015 202.589 264.378C204.808 264.422 202.922 265.556 205.141 265.453Z" fill="#D8D8D8"/>
<path d="M294.439 309.621C274.358 296.749 252.596 286.44 232.149 274.098C230.215 272.935 228.424 275.806 230.342 276.955C250.789 289.297 272.551 299.606 292.633 312.478C294.519 313.685 296.31 310.814 294.439 309.621Z" fill="#D8D8D8"/>
<path d="M333.383 288.487C312.16 278.104 292.062 265.924 271.441 254.614C271.037 254.438 270.577 254.409 270.151 254.531C269.725 254.654 269.364 254.92 269.138 255.278C268.911 255.635 268.837 256.058 268.929 256.464C269.021 256.869 269.272 257.228 269.634 257.471C290.239 268.84 310.353 281.035 331.576 291.344C333.605 292.331 335.412 289.474 333.383 288.487Z" fill="#D8D8D8"/>
<path d="M278.225 311.285L274.706 309.503C274.272 309.283 273.894 308.978 273.598 308.61C273.303 308.241 273.097 307.817 272.994 307.367C272.36 304.496 271.98 298.251 279.525 295.585L283.233 297.691" fill="#3695C9"/>
<path d="M287.211 306.483C289.689 302.496 289.675 298.18 287.181 296.842C284.687 295.504 280.657 297.651 278.179 301.638C275.702 305.625 275.716 309.942 278.21 311.28C280.704 312.618 284.734 310.47 287.211 306.483Z" fill="#1174B5"/>
<path d="M287.355 299.105V295.217L282.267 292.773L275.752 295.158L274.675 298.708L277.543 296.44L281.015 298.384V301.992L287.355 299.105Z" fill="#747E80"/>
<path d="M287.355 299.105C287.355 299.105 286.578 306.027 283.836 306.469C281.094 306.911 280.555 301.58 281.015 300.578" fill="#747E80"/>
<path d="M216.331 350.534L212.812 348.752C212.378 348.532 212 348.227 211.704 347.858C211.409 347.49 211.203 347.066 211.1 346.616C210.466 343.744 210.086 337.5 217.63 334.834L221.339 336.94" fill="#3695C9"/>
<path d="M226.868 344.85C229.345 340.845 229.323 336.513 226.817 335.175C224.311 333.837 220.272 336 217.795 340.005C215.317 344.01 215.34 348.342 217.846 349.68C220.351 351.018 224.391 348.855 226.868 344.85Z" fill="#1174B5"/>
<path d="M225.476 338.369V334.481L220.388 332.036L213.874 334.422L212.796 337.971L215.665 335.703L219.136 337.647V341.255L225.476 338.369Z" fill="#747E80"/>
<path d="M225.476 338.369C225.476 338.369 224.7 345.291 221.957 345.732C219.215 346.174 218.677 340.843 219.136 339.841" fill="#747E80"/>
<path d="M271.045 381.461L267.526 379.679C267.092 379.459 266.714 379.155 266.418 378.786C266.123 378.417 265.917 377.993 265.814 377.544C265.18 374.672 264.8 368.427 272.345 365.762L276.054 367.868" fill="#3695C9"/>
<path d="M281.709 375.568C284.186 371.563 284.163 367.231 281.658 365.893C279.152 364.555 275.113 366.718 272.636 370.723C270.158 374.728 270.181 379.06 272.687 380.398C275.192 381.736 279.232 379.573 281.709 375.568Z" fill="#1174B5"/>
<path d="M280.174 369.296V365.408L275.087 362.964L268.572 365.349L267.494 368.884L270.363 366.631L273.834 368.56V372.183L280.174 369.296Z" fill="#747E80"/>
<path d="M280.174 369.296C280.174 369.296 279.398 376.218 276.656 376.66C273.914 377.102 273.375 371.771 273.834 370.769" fill="#747E80"/>
<path d="M343.669 346.189L340.167 344.407C339.732 344.187 339.354 343.882 339.059 343.514C338.763 343.145 338.557 342.721 338.455 342.271C337.821 339.4 337.44 333.155 344.985 330.49L348.694 332.596" fill="#3695C9"/>
<path d="M354.181 340.033C356.658 336.028 356.635 331.696 354.13 330.358C351.624 329.02 347.585 331.183 345.107 335.188C342.63 339.193 342.653 343.525 345.159 344.863C347.664 346.201 351.704 344.038 354.181 340.033Z" fill="#1174B5"/>
<path d="M352.799 334.024V330.136L347.711 327.691L341.197 330.077L340.119 333.612L342.988 331.358L346.459 333.288V336.911L352.799 334.024Z" fill="#747E80"/>
<path d="M352.847 334.024C352.847 334.024 352.07 340.946 349.328 341.388C346.586 341.83 346.047 336.498 346.507 335.497" fill="#747E80"/>
<path d="M358.822 278.678C337.361 267.382 316.186 255.262 294.297 244.702C289.146 242.213 283.947 247.103 279.255 249.547L237.269 271.447L207.154 287.176C206.792 287.419 206.54 287.778 206.448 288.183C206.356 288.589 206.431 289.012 206.657 289.369C206.883 289.727 207.244 289.993 207.67 290.116C208.096 290.238 208.556 290.209 208.96 290.033L274.12 256.028L288.702 248.413L291.872 246.749C292.68 246.322 289.827 245.821 291.428 246.97C295.058 249.592 299.876 251.388 303.87 253.524L324.475 264.363L357.047 281.506C357.451 281.682 357.911 281.711 358.337 281.588C358.763 281.466 359.125 281.199 359.351 280.842C359.577 280.485 359.651 280.062 359.559 279.656C359.467 279.25 359.216 278.891 358.854 278.649L358.822 278.678Z" fill="#D8D8D8"/>
<path d="M310.163 170.682L321.559 164.364C323.039 163.344 324.633 162.475 326.314 161.772C324.919 162.169 324.364 161.315 325.727 162.287C331.925 166.706 339.549 170.004 346.221 173.745L390.316 198.399V195.542C385.276 198.178 376.352 200.534 374.26 205.674C371.502 212.478 370.757 220.696 369.109 227.766L351.404 303.7C349.693 311.064 347.014 318.737 346.158 326.219C345.889 328.56 347.236 326.646 345.207 327.456C341.514 328.928 337.948 330.961 334.397 332.699L297.372 350.607C289.066 354.628 280.777 359.444 272.123 362.831C272.566 362.654 273.708 363.847 272.218 362.33C270.966 361.064 268.144 360.077 266.575 359.193L247.936 348.884L218.296 332.434V335.291L254.196 311.8L275.832 297.647C277.987 296.175 280.777 295.011 281.997 292.861C283.582 289.915 283.804 285.173 284.549 281.977L289.732 259.886L302.808 204.29L310.939 169.695C311.431 167.619 307.991 166.75 307.5 168.812L288.321 250.343C285.262 263.362 281.601 276.396 279.113 289.532C279.007 290.445 278.794 291.343 278.479 292.213C279.287 290.504 278.098 292.08 276.656 293.023L257.461 305.659L216.537 332.404C216.275 332.555 216.058 332.765 215.908 333.015C215.758 333.265 215.679 333.546 215.679 333.833C215.679 334.119 215.758 334.4 215.908 334.651C216.058 334.901 216.275 335.111 216.537 335.261L241.421 349.076L260.156 359.473C263.421 361.285 267.399 364.495 271.061 365.526C275.625 366.807 282.251 361.682 286.308 359.724L324.031 341.461L340.167 333.641C342.417 332.551 346.507 331.447 348.266 329.724C350.897 327.161 350.961 321.196 351.737 317.868L368.855 244.422L376.78 210.726C377.018 209.724 378.238 205.012 377.731 205.645C376.923 206.661 379.316 205.056 379.855 204.805C381.44 204.025 383.025 203.112 384.705 202.272L392.155 198.384C392.417 198.234 392.633 198.024 392.783 197.774C392.934 197.524 393.012 197.242 393.012 196.956C393.012 196.669 392.934 196.388 392.783 196.138C392.633 195.888 392.417 195.678 392.155 195.527L326.377 158.826C326.103 158.678 325.791 158.599 325.474 158.599C325.156 158.599 324.844 158.678 324.57 158.826L308.356 167.825C307.994 168.067 307.742 168.426 307.651 168.832C307.559 169.238 307.633 169.661 307.859 170.018C308.085 170.375 308.446 170.641 308.873 170.764C309.299 170.887 309.759 170.858 310.163 170.682Z" fill="#D8D8D8"/>
<path d="M347.743 209.194L331.893 268.281C331.812 268.69 331.898 269.113 332.136 269.466C332.374 269.819 332.745 270.076 333.177 270.187C333.609 270.298 334.07 270.254 334.469 270.065C334.868 269.876 335.176 269.554 335.333 269.164L351.183 210.078C351.264 209.669 351.177 209.246 350.939 208.893C350.702 208.54 350.33 208.283 349.899 208.172C349.467 208.061 349.006 208.104 348.607 208.294C348.208 208.483 347.9 208.804 347.743 209.194Z" fill="#D8D8D8"/>
<path d="M325.188 197.353L309.608 255.144C309.527 255.553 309.613 255.976 309.851 256.329C310.089 256.682 310.46 256.939 310.892 257.05C311.324 257.161 311.785 257.118 312.184 256.928C312.583 256.739 312.891 256.418 313.047 256.028L328.628 198.237C328.709 197.828 328.623 197.405 328.385 197.052C328.147 196.699 327.776 196.442 327.344 196.331C326.912 196.22 326.451 196.263 326.052 196.453C325.653 196.642 325.345 196.963 325.188 197.353Z" fill="#D8D8D8"/>
<path d="M316.534 298.295C295.929 286.513 275.324 274.599 254.323 263.48C253.919 263.304 253.459 263.274 253.033 263.397C252.607 263.52 252.245 263.786 252.019 264.144C251.793 264.501 251.719 264.924 251.811 265.33C251.903 265.735 252.154 266.094 252.516 266.337C273.597 277.471 294.202 289.37 314.807 301.241C316.772 302.36 318.563 299.503 316.614 298.384L316.534 298.295Z" fill="#D8D8D8"/>
<path d="M372.944 220.093L338.17 201.801L315.314 189.783C312.873 188.502 308.419 184.879 305.471 184.761C303.347 184.673 300.447 186.971 298.719 187.869L280.761 197.177L231.721 222.596L199.53 239.282C197.533 240.328 199.324 243.185 201.337 242.14L274.579 204.157C284.85 198.841 295.612 193.951 305.55 188.105C306.866 187.339 303.585 187.162 305.075 188.193C306.906 189.28 308.806 190.264 310.765 191.138L331.592 202.096L371.217 222.891C371.621 223.067 372.081 223.096 372.507 222.973C372.933 222.85 373.294 222.584 373.52 222.227C373.746 221.869 373.821 221.446 373.729 221.041C373.637 220.635 373.386 220.276 373.024 220.034L372.944 220.093Z" fill="#D8D8D8"/>
<path d="M220.689 253.318L229.534 301.506C229.914 303.597 233.354 302.714 232.973 300.622L224.129 252.434C223.749 250.343 220.309 251.226 220.689 253.318Z" fill="#D8D8D8"/>
<path d="M227.473 225.777V276.941C227.515 277.353 227.721 277.736 228.051 278.015C228.381 278.294 228.811 278.448 229.256 278.448C229.702 278.448 230.132 278.294 230.462 278.015C230.792 277.736 230.998 277.353 231.04 276.941V225.777C230.998 225.365 230.792 224.982 230.462 224.703C230.132 224.424 229.702 224.27 229.256 224.27C228.811 224.27 228.381 224.424 228.051 224.703C227.721 224.982 227.515 225.365 227.473 225.777Z" fill="#D8D8D8"/>
<path d="M251.042 213.554L249.6 265.983C249.642 266.396 249.848 266.779 250.177 267.058C250.507 267.337 250.937 267.491 251.383 267.491C251.829 267.491 252.259 267.337 252.588 267.058C252.918 266.779 253.124 266.396 253.166 265.983L254.608 213.554C254.567 213.141 254.361 212.758 254.031 212.479C253.701 212.2 253.271 212.046 252.825 212.046C252.379 212.046 251.95 212.2 251.62 212.479C251.29 212.758 251.084 213.141 251.042 213.554Z" fill="#D8D8D8"/>
<path d="M273.819 201.757L266.908 256.955C266.639 259.076 270.205 259.047 270.474 256.955L277.385 201.757C277.654 199.636 274.088 199.666 273.819 201.757Z" fill="#D8D8D8"/>
<path d="M385.688 192.331C385.688 192.331 384.246 191.536 383.421 192.331C382.597 193.127 383.421 194.29 383.421 194.29L384.674 194.982C384.332 195.334 383.874 195.571 383.373 195.656C382.871 195.741 382.353 195.67 381.9 195.454C379.95 194.835 330.673 167.471 330.673 167.471C330.673 167.471 329.309 165.866 330.054 164.526C330.413 163.669 331.089 162.96 331.961 162.525C332.833 162.09 333.843 161.959 334.809 162.155C337.377 162.67 385.688 189.666 385.688 189.666C385.688 189.666 387.051 191.565 385.688 192.331Z" fill="#F14A24"/>
<path d="M315.694 163.245C332.923 164.349 332.02 190.24 333.129 200.991C333.415 203.686 328.945 204.599 328.644 201.875C327.677 192.92 328.311 180.8 322.97 172.921C321.385 170.476 319.34 168.105 315.964 167.884C314.926 167.85 313.892 168.016 312.927 168.371C311.961 168.726 311.085 169.262 310.353 169.946C308.768 171.212 308.039 176.219 307.785 177.707C306.89 183.257 306.789 188.892 307.484 194.467C307.785 197.162 303.316 198.075 302.999 195.35C302.127 186.867 300.336 162.258 315.694 163.245Z" fill="#F15A24"/>
<path d="M289.922 180.623L284.739 188.649L274.373 190.652L282.14 215.527L304.171 202.287" fill="#68E1FD"/>
<path opacity="0.28" d="M289.922 180.623L284.739 188.649L274.373 190.652L282.14 215.527L304.171 202.287" fill="#606060"/>
<path d="M343.036 207.913L289.922 180.623L291.65 221.153L332.242 224.761L343.036 207.913Z" fill="#68E1FD"/>
<path opacity="0.81" d="M343.036 207.913L289.922 180.623L291.65 221.153L332.242 224.761L343.036 207.913Z" fill="#606060"/>
<path d="M324.031 213.922L315.837 290.563L266.163 262.876L274.373 190.652L324.031 213.922Z" fill="#68E1FD"/>
<path d="M324.031 213.922L329.658 207.913H343.036V275.335L334.239 281.094L315.837 290.563L324.031 213.922Z" fill="#68E1FD"/>
<path opacity="0.28" d="M324.031 213.922L329.658 207.913H343.036V275.335L334.239 281.094L315.837 290.563L324.031 213.922Z" fill="#606060"/>
<path d="M293.504 176.057C310.781 176.205 311.542 202.11 313.396 212.758C313.856 215.439 309.449 216.587 308.974 213.892C307.389 205.056 307.294 192.876 301.445 185.306C299.052 182.199 294.836 179.592 290.715 181.624C287.006 183.451 286.958 187.515 286.594 190.917C286.057 196.507 286.318 202.137 287.37 207.663C287.846 210.343 283.44 211.492 282.948 208.797C281.522 200.402 278.13 175.925 293.504 176.057Z" fill="#F15A24"/>
<path d="M274.5 217.132C287.434 217.957 286.768 237.412 287.64 245.468C287.862 247.5 284.47 248.178 284.28 246.131C283.551 239.415 284.026 230.299 280.016 224.393C278.78 222.567 277.29 220.77 274.754 220.608C273.98 220.573 273.207 220.686 272.482 220.939C271.757 221.192 271.095 221.581 270.538 222.081C269.397 223.038 268.794 226.794 268.604 227.972C267.934 232.137 267.859 236.366 268.382 240.549C268.62 242.581 265.212 243.259 265.022 241.212C264.277 234.879 262.961 216.396 274.5 217.132Z" fill="#F15A24"/>
<path d="M255.147 230.181L251.248 236.204L243.466 237.721L249.299 256.396L265.846 246.455" fill="#68E1FD"/>
<path opacity="0.28" d="M255.147 230.181L251.248 236.204L243.466 237.721L249.299 256.396L265.846 246.455" fill="#606060"/>
<path d="M295.026 250.667L255.147 230.181L256.447 260.608L286.927 263.318L295.026 250.667Z" fill="#68E1FD"/>
<path opacity="0.81" d="M295.026 250.667L255.147 230.181L256.447 260.608L286.927 263.318L295.026 250.667Z" fill="#606060"/>
<path d="M280.761 255.188L274.595 312.743L237.3 291.948L243.466 237.721L280.761 255.188Z" fill="#68E1FD"/>
<path d="M280.761 255.188L284.977 250.667H295.026V301.3L288.416 305.63L274.595 312.743L280.761 255.188Z" fill="#68E1FD"/>
<path opacity="0.28" d="M280.761 255.188L284.977 250.667H295.026V301.3L288.416 305.63L274.595 312.743L280.761 255.188Z" fill="#606060"/>
<path d="M257.842 226.749C270.807 226.867 271.394 246.307 272.773 254.319C273.121 256.337 269.809 257.265 269.46 255.173C268.303 248.502 268.192 239.386 263.801 233.701C261.995 231.374 258.84 229.415 255.734 230.932C252.96 232.302 252.912 235.35 252.564 237.913C252.161 242.111 252.359 246.34 253.15 250.49C253.515 252.508 250.202 253.436 249.838 251.344C248.791 245.026 246.287 226.661 257.842 226.749Z" fill="#F15A24"/>
<path d="M371.154 220.093L297.816 258.737C287.439 264.206 277.063 269.675 266.686 275.144C265.101 275.954 268.366 275.88 267.209 275.144C265.45 274.113 263.595 273.17 261.804 272.198L240.676 260.681L201.321 239.297C201.014 239.143 200.665 239.075 200.317 239.101C199.969 239.127 199.637 239.246 199.36 239.444C199.083 239.642 198.874 239.91 198.758 240.216C198.642 240.522 198.624 240.852 198.706 241.168C201.099 256.307 202.573 271.86 205.933 286.823C206.741 290.446 208.358 290.711 211.877 292.596L236.793 305.954L263.199 320.107C266.369 321.771 271.362 325.998 275.087 325.512C278.558 325.085 283.709 320.976 286.673 319.429L312.873 305.659L358.838 281.506C359.2 281.264 359.451 280.904 359.543 280.499C359.635 280.093 359.561 279.67 359.335 279.313C359.109 278.956 358.747 278.689 358.321 278.567C357.895 278.444 357.435 278.473 357.031 278.649L320.576 297.795C305.725 305.6 289.637 312.522 275.515 321.476C273.375 322.831 273.121 322.007 274.928 322.581C273.035 321.752 271.226 320.766 269.523 319.635L245.368 306.69L220.008 293.082C217.234 291.609 214.492 289.974 211.655 288.664C210.88 288.34 210.142 287.946 209.452 287.485C208.136 286.469 210.149 288.958 209.61 287.677C208.437 284.849 208.517 280.814 208.025 277.824L205.648 262.787L202.082 240.284L199.466 242.154L234.051 261.005L256.78 273.391C259.189 274.702 263.817 278.575 266.813 278.59C268.984 278.59 272.17 276.013 273.93 275.085L291.032 266.101L341.07 239.724L372.913 222.95C373.275 222.707 373.526 222.348 373.618 221.942C373.71 221.537 373.636 221.114 373.41 220.757C373.184 220.399 372.822 220.133 372.396 220.01C371.97 219.887 371.51 219.917 371.106 220.093H371.154Z" fill="#D8D8D8"/>
<path d="M364.607 249.238C342.687 260.372 317.057 273.509 295.184 284.584C287.545 288.472 279.255 294.245 270.95 297.073C270.385 296.896 269.85 296.643 269.365 296.322C267.304 295.055 264.943 294.054 262.771 292.949L241.897 282.331C231.103 276.808 215.934 269.636 205.141 264.113C202.906 264.216 205.046 265.924 202.811 265.865C202.969 266.094 203.187 266.282 203.445 266.41L235.256 282.714L257.747 294.289C260.917 295.939 265.878 299.812 269.571 300.342C271.647 300.652 272.63 299.856 274.532 298.87L289.843 291.094L335.206 268.03L366.351 252.198C366.606 252.063 366.82 251.868 366.97 251.634C367.12 251.399 367.201 251.131 367.207 250.858C365.162 251.035 366.716 249.165 364.607 249.238Z" fill="#D8D8D8"/>
<path d="M243.101 265.365L250.947 313.023C251.296 315.129 254.735 314.23 254.387 312.139L246.541 264.422C246.192 262.316 242.753 263.215 243.101 265.306V265.365Z" fill="#D8D8D8"/>
<path d="M265.164 277.382L272.487 324.51C272.82 326.616 276.244 325.718 275.927 323.627L268.604 276.499C268.271 274.393 264.847 275.291 265.164 277.382Z" fill="#D8D8D8"/>
<path d="M294.392 262.36C294.392 278.943 295.248 295.497 295.295 312.08C295.337 312.493 295.543 312.876 295.873 313.155C296.203 313.433 296.633 313.588 297.078 313.588C297.524 313.588 297.954 313.433 298.284 313.155C298.614 312.876 298.82 312.493 298.862 312.08C298.862 295.497 298.006 278.943 297.958 262.36C297.916 261.948 297.71 261.565 297.38 261.286C297.051 261.007 296.621 260.853 296.175 260.853C295.729 260.853 295.299 261.007 294.969 261.286C294.64 261.565 294.434 261.948 294.392 262.36Z" fill="#D8D8D8"/>
<path d="M316.249 249.989C316.017 266.455 316.017 282.915 316.249 299.37C316.291 299.783 316.497 300.166 316.827 300.445C317.156 300.724 317.586 300.878 318.032 300.878C318.478 300.878 318.908 300.724 319.238 300.445C319.567 300.166 319.773 299.783 319.815 299.37C319.572 282.905 319.572 266.445 319.815 249.989C319.773 249.577 319.567 249.194 319.238 248.915C318.908 248.636 318.478 248.481 318.032 248.481C317.586 248.481 317.156 248.636 316.827 248.915C316.497 249.194 316.291 249.577 316.249 249.989Z" fill="#D8D8D8"/>
<path d="M341.482 236.587L334.271 289.842C333.985 291.948 337.551 291.933 337.837 289.842L345.049 236.587C345.334 234.481 341.768 234.496 341.482 236.587Z" fill="#D8D8D8"/>
<path d="M398.225 116.573C398.225 115.69 392.836 109.578 396.117 106.411C399.398 103.245 403.091 103.245 406.721 104.379C409.698 105.211 412.371 106.789 414.446 108.94C416.521 111.092 417.917 113.733 418.482 116.573C419.691 121.088 420.533 125.682 421.002 130.314L406.119 125.675" fill="#FF9739"/>
<path d="M413.441 157.28C413.441 157.28 403.329 153.362 404.185 141.389C404.855 134.022 408.387 127.132 414.123 122.008L421.002 130.314" fill="#FF9739"/>
<path d="M419.179 119.43C419.179 119.43 427.579 143.259 426.502 150.211C425.424 157.162 413.457 157.28 413.457 157.28" fill="#FF9739"/>
<path d="M439.499 214.246L421.002 205.807C420.848 194.043 418.938 182.356 415.327 171.08L399.763 168.414C398.976 176.246 398.722 184.116 399.002 191.978C399.087 197.867 400.031 203.718 401.807 209.371C403.392 213.789 405.437 218.841 410.16 221.153C414.265 223.156 419.48 223.863 423.934 225.012C425.36 225.38 439.53 228.414 439.53 229.032L439.499 214.246Z" fill="#DD842A"/>
<path d="M387.511 138.355C384.751 143.174 381.57 147.775 378.001 152.111C375.496 154.806 353.592 164.187 353.592 164.187C353.592 164.187 341.482 162.818 339.834 166.691C338.185 170.564 337.282 171.728 341.419 173.76C345.556 175.792 349.344 170.299 353.306 169.946C357.269 169.592 381.599 164.879 392.82 149.121C394.405 146.927 395.99 139.474 398.035 137.103C397.725 135.921 397.555 134.711 397.528 133.495C393.169 134.497 391.79 137.015 387.511 138.355Z" fill="#FFB288"/>
<path d="M418.973 131.684C418.011 130.667 416.95 129.735 415.803 128.9C409.907 126.367 400.397 124.232 398.812 124.379C397.227 124.526 391.663 126.868 390.554 130.609C389.444 134.349 388.826 142.229 388.826 151.227C388.826 160.844 385.656 174.172 385.656 174.172C385.656 174.172 395.784 180.579 405.088 179.725C411.666 179.121 416.437 178.753 418.323 176.779C418.482 163.215 417.832 144.762 418.973 131.684Z" fill="#AA2B2B"/>
<path d="M408.052 143.525C405.491 149.446 402.187 155.067 398.209 160.27C396.228 163.083 375.116 176.72 375.116 176.72C375.116 176.72 366.097 175.1 365.067 178.915C364.037 182.729 362.801 186.072 366.874 187.486C370.947 188.9 374.323 181.418 377.969 180.623C381.614 179.828 402.267 171.271 411.619 160.446C414.251 157.222 416.277 153.607 417.61 149.754C412.665 148.443 412.157 146.293 408.052 143.525Z" fill="#FFB288"/>
<path d="M399.842 170.214C399.842 170.214 408.005 148.447 410.715 147.386C411.654 147.002 412.671 146.813 413.697 146.833C414.722 146.853 415.73 147.082 416.651 147.503C417.571 147.924 418.38 148.528 419.022 149.271C419.665 150.014 420.124 150.879 420.368 151.804C421.778 157.077 416.5 173.896 415.09 175.751C413.679 177.607 399.842 170.214 399.842 170.214Z" fill="#AA2B2B"/>
<path d="M391.584 128.9L378.888 143.672L390.126 155.012L396.149 148.93" fill="#AA2B2B"/>
<path d="M411.302 120.682V128.576C410.112 129.369 408.684 129.795 407.22 129.795C405.756 129.795 404.329 129.369 403.139 128.576L401.189 120.093" fill="#E59770"/>
<path d="M399.636 110.594C399.73 110.574 399.827 110.574 399.921 110.594C401.526 111.091 403.184 111.422 404.866 111.581C406.547 111.581 408.227 111.478 409.891 111.581C411 111.581 411.698 114.07 411.682 117.074C412.395 116.676 413.267 116.5 413.838 117.251C414.085 117.672 414.16 118.161 414.049 118.629C413.938 119.097 413.649 119.513 413.235 119.799C412.686 120.246 412.019 120.551 411.302 120.682C411.059 122.216 410.302 123.64 409.138 124.75C407.974 125.861 406.463 126.602 404.819 126.868C403.554 127.062 402.257 126.791 401.204 126.112C400.15 125.433 399.423 124.399 399.176 123.23C398.216 120.062 397.946 116.747 398.384 113.481L398.495 111.875C398.541 111.632 398.644 111.402 398.798 111.201C398.951 110.999 399.151 110.832 399.382 110.712C399.456 110.655 399.543 110.615 399.636 110.594Z" fill="#FFB288"/>
<path d="M400.397 109.445C400.397 109.445 406.531 117.766 411.206 117.118C415.882 116.47 410.715 109.99 410.715 109.99" fill="#FF9739"/>
<defs>
<filter id="filter0_d_10_753" x="0" y="98.7895" width="617.067" height="356.07" filterUnits="userSpaceOnUse" color-interpolation-filters="sRGB">
<feFlood flood-opacity="0" result="BackgroundImageFix"/>
<feColorMatrix in="SourceAlpha" type="matrix" values="0 0 0 0 0 0 0 0 0 0 0 0 0 0 0 0 0 0 127 0" result="hardAlpha"/>
<feOffset dx="10" dy="20"/>
<feGaussianBlur stdDeviation="7.5"/>
<feComposite in2="hardAlpha" operator="out"/>
<feColorMatrix type="matrix" values="0 0 0 0 0 0 0 0 0 0 0 0 0 0 0 0 0 0 0.25 0"/>
<feBlend mode="normal" in2="BackgroundImageFix" result="effect1_dropShadow_10_753"/>
<feBlend mode="normal" in="SourceGraphic" in2="effect1_dropShadow_10_753" result="shape"/>
</filter>
<linearGradient id="paint0_linear_10_753" x1="249.774" y1="363.45" x2="336.994" y2="252.852" gradientUnits="userSpaceOnUse">
<stop stop-color="#4444A5"/>
<stop offset="1"/>
</linearGradient>
<linearGradient id="paint1_linear_10_753" x1="387.273" y1="277.589" x2="464.216" y2="180.019" gradientUnits="userSpaceOnUse">
<stop stop-color="#4444A5"/>
<stop offset="1"/>
</linearGradient>
<linearGradient id="paint2_linear_10_753" x1="43.9461" y1="269.695" x2="95.439" y2="236.752" gradientUnits="userSpaceOnUse">
<stop stop-color="#4444A5"/>
<stop offset="1"/>
</linearGradient>
</defs>
</svg>
