<svg width="693" height="492" viewBox="0 0 693 492" fill="none" xmlns="http://www.w3.org/2000/svg">
<g filter="url(#filter0_d_54_1720)">
<path d="M326.668 452.283L17.891 288.855C8.0639 283.918 -0.367049 275.79 9.2095 270.484L319.078 110.534C323.732 107.954 330.785 106.27 335.51 108.723L659.681 277.185C669.508 282.299 671.28 296.581 661.471 301.695L367.408 452.027C361.229 455.24 354.221 456.954 347.076 456.999C339.931 457.044 332.896 455.419 326.668 452.283Z" fill="#4444A5"/>
</g>
<path d="M302.968 327.985C270.748 344.496 238.528 361.216 206.307 377.807C241.105 396.819 288.129 422.002 295.7 425.673L392.808 375.146L302.968 327.985Z" fill="url(#paint0_linear_54_1720)"/>
<path d="M463.926 339.767L549.595 295.203L440.888 238.119L352.229 279.125C361.537 285.168 453.705 334.846 463.926 339.767Z" fill="url(#paint1_linear_54_1720)"/>
<path d="M443.519 1.2243C467.13 14.4653 526.522 45.2273 546.767 56.3523C551.35 58.8691 552.137 62.6201 552.137 67.4452V292.526C550.889 293.823 549.164 294.679 547.273 294.937C545.382 295.196 543.451 294.841 541.827 293.937L442.177 243.505C437.219 240.892 433.316 238.199 433.316 233.054L434.176 5.31202C434.122 0.358671 438.848 -1.40466 443.519 1.2243Z" fill="#68E1FD"/>
<path d="M434.319 3.69297L466.718 20.4446V26.7124C466.721 27.2392 466.878 27.7562 467.173 28.2119C467.468 28.6675 467.891 29.0459 468.401 29.3093L493.461 42.2778C493.798 42.452 494.18 42.5438 494.569 42.5441C494.958 42.5444 495.34 42.4531 495.678 42.2793C496.015 42.1056 496.295 41.8555 496.491 41.5542C496.686 41.2529 496.789 40.9109 496.79 40.5625V35.9939L543.868 60.7125C544.315 60.9497 544.686 61.2873 544.944 61.6922C545.201 62.097 545.336 62.555 545.336 63.0209V288.086C545.343 288.408 545.255 288.726 545.08 289.007C544.905 289.288 544.649 289.523 544.339 289.686C544.029 289.849 543.676 289.936 543.316 289.936C542.956 289.937 542.603 289.851 542.293 289.689L433.263 233.086C433.069 234.834 433.414 236.597 434.259 238.182C435.105 239.767 436.42 241.115 438.06 242.079C443.717 245.285 543.026 295.636 543.026 295.636C543.026 295.636 550.885 298.842 553.176 290.426V63.9507C553.18 62.4851 552.796 61.0394 552.056 59.7325C551.315 58.4255 550.239 57.2946 548.916 56.4325C544.369 53.4829 443.072 0.743407 443.072 0.743407C443.072 0.743407 435.93 -2.22219 434.319 3.69297Z" fill="#124577"/>
<path d="M415.846 50.0524V70.6512C416.065 72.2822 416.839 73.8134 418.062 75.0377C419.285 76.262 420.898 77.1202 422.684 77.4961C428.913 78.7625 429.844 71.4207 429.844 71.4207V56.208L415.846 50.0524Z" fill="#C13D3D"/>
<path d="M429.396 58.244L430.059 79.9329C430.278 81.5638 431.051 83.0951 432.274 84.3194C433.497 85.5437 435.111 86.4019 436.897 86.7778C443.126 88.0442 444.057 80.7023 444.057 80.7023V65.4896L429.396 58.244Z" fill="#DD842A"/>
<path d="M443.896 65.6177V86.2166C444.115 87.8476 444.888 89.3788 446.111 90.6031C447.334 91.8274 448.948 92.6856 450.733 93.0615C456.963 94.3279 457.893 86.9861 457.893 86.9861V71.7734L443.896 65.6177Z" fill="#C13D3D"/>
<path d="M457.804 73.12V93.7189C458.023 95.3498 458.797 96.8811 460.02 98.1054C461.243 99.3297 462.856 100.188 464.642 100.564C470.871 101.83 471.802 94.4883 471.802 94.4883V79.2756L457.804 73.12Z" fill="#DD842A"/>
<path d="M471.73 79.4197V100.003C471.949 101.634 472.722 103.165 473.945 104.389C475.168 105.613 476.782 106.472 478.568 106.847C484.797 108.114 485.728 100.772 485.728 100.772V85.5593L471.73 79.4197Z" fill="#C13D3D"/>
<path d="M485.406 87.8196V108.418C485.625 110.049 486.399 111.581 487.622 112.805C488.845 114.029 490.458 114.888 492.244 115.263C498.473 116.53 499.404 109.188 499.404 109.188V93.9753L485.406 87.8196Z" fill="#DD842A"/>
<path d="M485.406 88.8777L518.467 47.151L531.212 54.1242L499.332 96.2356" fill="#F29D40"/>
<path d="M471.73 81.5679L504.165 39.8572L518.467 47.1509L485.405 88.8777" fill="#E04F4F"/>
<path d="M457.804 74.226L491.51 32.884L504.165 39.8571L471.73 81.664" fill="#F29D40"/>
<path d="M443.896 66.6437L476.617 25.3819L491.51 32.884L457.804 74.1299" fill="#E04F4F"/>
<path d="M429.772 58.8691L461.079 17.6072L476.617 25.3819L443.895 66.6438" fill="#F29D40"/>
<path d="M415.846 51.3188L446.956 10.2173L461.079 17.6072L429.772 58.8691" fill="#E04F4F"/>
<path d="M401.938 44.0411L434.319 3.69299L446.956 10.2173L415.846 51.3189" fill="#F29D40"/>
<path d="M543.867 60.7125C543.867 60.7125 545.335 60.985 545.335 63.2453V102.952L509.213 121.451L514.189 93.1417L543.867 60.7125Z" fill="#AA2B2B"/>
<path d="M499.332 96.2356V114.686C499.551 116.317 500.325 117.849 501.548 119.073C502.771 120.297 504.384 121.155 506.17 121.531C512.399 122.798 513.33 115.456 513.33 115.456L513.062 103.305L499.332 96.2356Z" fill="#C13D3D"/>
<path d="M512.972 103.321L543.868 60.7126L531.212 54.1241L499.332 96.2356" fill="#E04F4F"/>
<path d="M401.938 44.0411V65.6819C402.157 67.3129 402.93 68.8441 404.153 70.0684C405.376 71.2927 406.99 72.1509 408.775 72.5268C415.005 73.7932 415.935 66.4514 415.935 66.4514V51.2387L401.938 44.0411Z" fill="#DD842A"/>
<path d="M494.159 258.75C496.631 258.75 498.634 249.987 498.634 239.177C498.634 228.367 496.631 219.604 494.159 219.604C491.688 219.604 489.684 228.367 489.684 239.177C489.684 249.987 491.688 258.75 494.159 258.75Z" fill="#46BBCE"/>
<path d="M425.064 237.59C425.064 237.59 426.013 291.436 428.286 292.317C430.56 293.199 436.395 293.119 438.525 290.538C440.655 287.957 443.412 264.665 442.929 258.189C442.445 251.713 439.617 237.173 439.617 237.173" fill="#FFB288"/>
<path d="M424.241 294.017C425.612 292.103 426.532 289.96 426.944 287.717C431.688 288.775 435.393 289.416 439.474 287.236C440.262 290.298 443.054 294.129 442.804 296.485C442.482 300.204 438.955 299.002 435.429 299.964C432.941 300.637 431.187 302.929 429.665 305.045C427.292 307.33 424.164 308.874 420.74 309.451C417.316 310.028 413.775 309.608 410.637 308.252C410.202 307.357 409.936 306.403 409.85 305.43C409.277 301.15 421.7 297.287 424.241 294.017Z" fill="#29333F"/>
<path d="M456.264 195.046C456.287 191.024 456.604 187.008 457.213 183.023L448.263 181.42C428.788 189.227 424.993 237.526 424.993 237.526C424.993 237.526 438.615 243.938 442.445 243.057C445.56 242.335 453.472 220.903 456.3 212.92C456.175 207.005 456.067 201.025 456.264 195.046Z" fill="#DD842A"/>
<path d="M425.065 237.59L424.206 283.308C424.206 283.308 438.221 285.457 441.103 284.206C443.985 282.956 445.507 239.321 445.507 239.321L425.065 237.59Z" fill="#DD842A"/>
<path d="M452.076 224.574L448.872 197.787L445.506 239.402L452.076 224.574Z" fill="#B5641C"/>
<path opacity="0.32" d="M62.8917 300.765L137.499 262.87L105.011 249.741L32.2646 286.034C41.6264 292.061 52.6529 295.828 62.8917 300.765Z" fill="url(#paint2_linear_54_1720)"/>
<path d="M102.827 228.934C102.827 228.934 96.2935 268.881 124.307 269.01C151.372 269.138 144.409 228.501 144.409 228.501C144.409 228.501 124.79 213.16 102.827 228.934Z" fill="#68E1FD"/>
<path opacity="0.15" d="M102.827 228.934C102.827 228.934 96.2935 268.881 124.307 269.01C151.372 269.138 144.409 228.501 144.409 228.501C144.409 228.501 124.79 213.16 102.827 228.934Z" fill="black"/>
<path d="M123.555 236.612C135.023 236.612 144.319 233.175 144.319 228.934C144.319 224.693 135.023 221.255 123.555 221.255C112.088 221.255 102.791 224.693 102.791 228.934C102.791 233.175 112.088 236.612 123.555 236.612Z" fill="#68E1FD"/>
<path opacity="0.7" d="M123.555 236.612C135.023 236.612 144.319 233.175 144.319 228.934C144.319 224.693 135.023 221.255 123.555 221.255C112.088 221.255 102.791 224.693 102.791 228.934C102.791 233.175 112.088 236.612 123.555 236.612Z" fill="black"/>
<path d="M90.8695 170.6C90.8695 170.6 76.4062 167.49 81.9195 156.702C81.9553 156.702 91.9077 158.465 90.8695 170.6Z" fill="#938F05"/>
<path d="M99.6764 181.468C99.6764 181.468 97.6716 172.251 105.709 168.532C105.709 168.548 112.171 178.198 99.6764 181.468Z" fill="#938F05"/>
<path d="M108.698 195.607C108.698 195.607 106.299 184.578 115.858 180.138C115.912 180.138 123.645 191.632 108.698 195.607Z" fill="#938F05"/>
<path d="M115.679 210.98C115.679 210.98 113.281 199.951 122.839 195.511C122.893 195.511 130.626 207.053 115.679 210.98Z" fill="#938F05"/>
<path d="M98.7996 181.725C98.7996 181.725 93.698 173.533 84.8733 175.313C84.8733 175.329 86.896 186.422 98.7996 181.725Z" fill="#938F05"/>
<path d="M107.857 195.944C107.857 195.944 101.323 186.326 90.8696 188.874C90.9591 188.874 93.9484 202.067 107.857 195.944Z" fill="#938F05"/>
<path d="M114.874 211.124C114.874 211.124 107.212 202.244 97.1346 205.786C97.1167 205.77 101.735 218.594 114.874 211.124Z" fill="#938F05"/>
<path d="M120.297 236.693H120.494C121.172 236.679 121.85 236.727 122.517 236.837C122.525 236.773 122.525 236.708 122.517 236.644C119.362 211.993 108.56 188.625 91.3351 169.189C90.4401 168.179 88.847 169.606 89.742 170.616C106.585 189.645 117.162 212.507 120.28 236.628L120.297 236.693Z" fill="#42352F"/>
<path d="M154.54 188.201C154.54 188.201 166.945 185.54 162.184 176.291C162.184 176.275 153.645 177.797 154.54 188.201Z" fill="#938F05"/>
<path d="M146.987 197.515C146.987 197.515 148.777 189.612 141.814 186.422C141.867 186.438 136.265 194.709 146.987 197.515Z" fill="#938F05"/>
<path d="M139.254 209.65C139.254 209.65 141.312 200.192 133.06 196.377C133.06 196.441 126.437 206.267 139.254 209.65Z" fill="#938F05"/>
<path d="M133.257 222.842C133.257 222.842 135.316 213.385 127.064 209.569C127.064 209.569 120.387 219.476 133.257 222.842Z" fill="#938F05"/>
<path d="M147.738 197.739C147.738 197.739 152.124 190.702 159.678 192.257C159.767 192.257 157.977 201.779 147.738 197.739Z" fill="#938F05"/>
<path d="M139.898 209.938C139.898 209.938 145.501 201.715 154.469 203.879C154.397 203.879 151.891 215.196 139.898 209.938Z" fill="#938F05"/>
<path d="M133.938 222.955C133.938 222.955 140.525 215.34 149.153 218.37C149.17 218.37 145.215 229.367 133.938 222.955Z" fill="#938F05"/>
<path d="M154.147 187.015C141.353 201.437 132.656 218.423 128.8 236.516C129.462 236.42 130.125 236.34 130.805 236.276C134.624 218.707 143.095 202.215 155.507 188.185C156.187 187.384 154.916 186.149 154.147 187.015Z" fill="#42352F"/>
<path d="M209.172 124.93C210.327 124.263 211.673 123.909 213.047 123.909C214.421 123.909 215.767 124.263 216.922 124.93C221.218 127.751 221.236 135.478 216.922 142.226C215.159 145.221 212.476 147.702 209.189 149.376C208.034 150.042 206.688 150.396 205.314 150.396C203.94 150.396 202.594 150.042 201.439 149.376C197.143 146.554 197.125 138.828 201.439 132.079C203.202 129.084 205.885 126.603 209.172 124.93Z" fill="#68E1FD"/>
<path d="M209.028 83.5717C221.379 77.897 233.748 77.4802 243.182 83.6839C244.542 84.5816 244.56 87.0503 243.182 89.1983C242.616 90.1515 241.759 90.941 240.711 91.4746C240.343 91.6859 239.914 91.7983 239.476 91.7983C239.038 91.7983 238.61 91.6859 238.241 91.4746C230.168 86.1846 219.589 86.5373 209.028 91.3784C198.467 96.2196 187.924 105.565 179.923 118.229C179.357 119.182 178.5 119.972 177.452 120.505C177.084 120.717 176.655 120.829 176.217 120.829C175.78 120.829 175.351 120.717 174.982 120.505C173.604 119.608 173.604 117.139 174.982 114.991C184.344 100.163 196.677 89.2464 209.028 83.5717Z" fill="#68E1FD"/>
<path d="M208.957 62.2034C225.98 54.3807 242.967 53.9479 256.302 62.6523C258.504 64.111 256.929 69.0644 253.85 70.459C253.482 70.6722 253.053 70.7857 252.615 70.7857C252.177 70.7857 251.748 70.6722 251.38 70.459C239.458 62.6523 224.208 63.005 208.975 70.0102C193.742 77.0154 178.544 90.6251 166.695 109.332C166.131 110.287 165.274 111.077 164.224 111.609C163.853 111.821 163.421 111.934 162.98 111.934C162.539 111.934 162.108 111.821 161.736 111.609C160.376 110.711 160.358 108.242 161.736 106.094C174.929 85.2068 191.987 70.0102 208.957 62.2034Z" fill="#68E1FD"/>
<path d="M209.1 103.561C216.868 100.003 224.655 99.7302 230.58 103.561C232.782 105.004 231.206 109.974 228.128 111.352C227.758 111.562 227.33 111.673 226.892 111.673C226.455 111.673 226.027 111.562 225.657 111.352C221.093 108.354 215.096 108.547 209.118 111.352C202.116 114.912 196.396 120.191 192.632 126.565C192.078 127.515 191.234 128.305 190.197 128.841C189.826 129.054 189.394 129.167 188.953 129.167C188.512 129.167 188.081 129.054 187.709 128.841C186.349 127.927 186.331 125.459 187.709 123.327C193.562 113.997 201.331 107.12 209.1 103.561Z" fill="#68E1FD"/>
<path d="M231.027 288.935C255.407 276.672 284.423 263.11 308.785 250.847L328.637 240.86C330.856 239.738 333.362 238.039 335.797 237.029C336.591 237.223 337.342 237.537 338.016 237.959C340.522 239.562 343.494 240.7 346.161 242.031L370.004 253.957C381.925 259.92 399.432 267.086 411.353 273.049C413.859 273.049 410.762 271.671 413.25 271.446L413.089 271.334L377.468 253.508L351.298 240.412C347.432 238.472 342.08 234.4 337.694 233.599C335.188 233.134 334.221 233.951 331.912 235.106L316.017 243.121L264.715 268.945L229.023 286.851C228.609 287.042 228.294 287.37 228.146 287.765C230.652 287.813 228.521 289.047 231.027 288.935Z" fill="#D8D8D8"/>
<path d="M331.877 337.01C309.197 322.999 284.62 311.778 261.529 298.345C259.346 297.078 257.323 300.204 259.489 301.455C282.58 314.888 307.157 326.109 329.836 340.12C331.966 341.434 333.989 338.308 331.877 337.01Z" fill="#D8D8D8"/>
<path d="M375.857 314.006C351.889 302.705 329.192 289.448 305.904 277.137C305.447 276.945 304.928 276.914 304.447 277.047C303.965 277.181 303.557 277.471 303.302 277.86C303.047 278.249 302.963 278.709 303.067 279.15C303.17 279.592 303.454 279.983 303.863 280.247C327.133 292.622 349.848 305.895 373.817 317.116C376.108 318.19 378.148 315.08 375.857 314.006Z" fill="#D8D8D8"/>
<path d="M313.565 338.821L309.591 336.882C309.1 336.642 308.674 336.31 308.34 335.909C308.006 335.508 307.773 335.047 307.658 334.557C306.942 331.431 306.512 324.634 315.033 321.733L319.221 324.025" fill="#3695C9"/>
<path d="M323.714 333.595C326.511 329.255 326.496 324.557 323.679 323.1C320.862 321.644 316.311 323.981 313.513 328.321C310.716 332.66 310.731 337.359 313.548 338.815C316.364 340.272 320.916 337.934 323.714 333.595Z" fill="#1174B5"/>
<path d="M323.875 325.564V321.332L318.13 318.671L310.773 321.268L309.555 325.131L312.795 322.663L316.715 324.779V328.706L323.875 325.564Z" fill="#747E80"/>
<path d="M323.875 325.564C323.875 325.564 322.998 333.099 319.901 333.579C316.805 334.06 316.196 328.257 316.715 327.167" fill="#747E80"/>
<path d="M243.665 381.542L239.691 379.602C239.2 379.363 238.774 379.031 238.44 378.63C238.106 378.229 237.873 377.767 237.758 377.278C237.042 374.152 236.612 367.355 245.133 364.454L249.321 366.746" fill="#3695C9"/>
<path d="M255.565 375.356C258.363 370.996 258.337 366.282 255.507 364.825C252.678 363.369 248.116 365.722 245.318 370.082C242.52 374.441 242.546 379.156 245.376 380.612C248.206 382.069 252.768 379.715 255.565 375.356Z" fill="#1174B5"/>
<path d="M253.993 368.301V364.069L248.247 361.408L240.891 364.005L239.673 367.868L242.913 365.399L246.833 367.515V371.443L253.993 368.301Z" fill="#747E80"/>
<path d="M253.993 368.301C253.993 368.301 253.116 375.835 250.02 376.316C246.923 376.797 246.314 370.994 246.833 369.904" fill="#747E80"/>
<path d="M305.456 415.205L301.482 413.266C300.992 413.026 300.565 412.695 300.231 412.293C299.897 411.892 299.665 411.431 299.549 410.941C298.833 407.815 298.404 401.019 306.924 398.117L311.113 400.409" fill="#3695C9"/>
<path d="M317.499 408.791C320.297 404.432 320.271 399.717 317.442 398.26C314.612 396.804 310.05 399.158 307.252 403.517C304.455 407.877 304.48 412.591 307.31 414.048C310.14 415.504 314.702 413.151 317.499 408.791Z" fill="#1174B5"/>
<path d="M315.766 401.964V397.732L310.02 395.071L302.664 397.668L301.446 401.516L304.686 399.063L308.606 401.163V405.106L315.766 401.964Z" fill="#747E80"/>
<path d="M315.767 401.964C315.767 401.964 314.889 409.499 311.793 409.98C308.696 410.46 308.087 404.657 308.607 403.567" fill="#747E80"/>
<path d="M387.474 376.813L383.518 374.873C383.028 374.634 382.601 374.302 382.267 373.901C381.933 373.5 381.701 373.038 381.585 372.549C380.869 369.423 380.439 362.626 388.96 359.725L393.149 362.017" fill="#3695C9"/>
<path d="M399.345 370.113C402.143 365.753 402.117 361.038 399.287 359.582C396.458 358.126 391.896 360.479 389.098 364.839C386.3 369.198 386.326 373.913 389.156 375.369C391.986 376.826 396.548 374.472 399.345 370.113Z" fill="#1174B5"/>
<path d="M397.785 363.572V359.34L392.039 356.679L384.682 359.276L383.465 363.123L386.705 360.67L390.625 362.77V366.714L397.785 363.572Z" fill="#747E80"/>
<path d="M397.839 363.572C397.839 363.572 396.961 371.106 393.865 371.587C390.768 372.068 390.159 366.265 390.679 365.175" fill="#747E80"/>
<path d="M404.587 303.33C380.35 291.035 356.436 277.842 331.715 266.348C325.898 263.639 320.027 268.961 314.728 271.622L267.311 295.459L233.301 312.58C232.892 312.844 232.608 313.235 232.504 313.676C232.401 314.118 232.485 314.578 232.74 314.967C232.995 315.356 233.403 315.645 233.884 315.779C234.366 315.913 234.885 315.881 235.341 315.69L308.929 278.676L325.397 270.388L328.977 268.577C329.89 268.112 326.668 267.567 328.476 268.817C332.575 271.671 338.016 273.626 342.527 275.951L365.797 287.749L402.582 306.408C403.038 306.599 403.558 306.631 404.039 306.498C404.52 306.364 404.928 306.074 405.184 305.685C405.439 305.296 405.523 304.836 405.419 304.394C405.315 303.953 405.031 303.562 404.623 303.298L404.587 303.33Z" fill="#D8D8D8"/>
<path d="M349.634 185.781L362.504 178.904C364.176 177.793 365.976 176.848 367.874 176.082C366.299 176.515 365.672 175.585 367.212 176.643C374.21 181.452 382.82 185.043 390.356 189.115L440.154 215.949V212.84C434.462 215.709 424.384 218.274 422.022 223.868C418.907 231.274 418.066 240.219 416.204 247.914L396.21 330.566C394.276 338.581 391.251 346.933 390.285 355.076C389.98 357.625 391.502 355.541 389.211 356.423C385.04 358.026 381.013 360.238 377.003 362.129L335.188 381.622C325.809 385.998 316.447 391.24 306.673 394.927C307.175 394.735 308.463 396.033 306.781 394.382C305.367 393.004 302.18 391.93 300.408 390.968L279.358 379.747L245.885 361.841V364.951L286.428 339.382L310.862 323.977C313.296 322.374 316.447 321.108 317.825 318.767C319.615 315.561 319.866 310.4 320.707 306.921L326.56 282.876L341.328 222.362L350.511 184.707C351.066 182.446 347.181 181.5 346.626 183.745L324.967 272.488C321.513 286.659 317.378 300.846 314.567 315.145C314.448 316.138 314.208 317.116 313.851 318.062C314.764 316.203 313.422 317.918 311.793 318.944L290.116 332.698L243.898 361.809C243.602 361.972 243.357 362.201 243.188 362.473C243.018 362.746 242.929 363.052 242.929 363.364C242.929 363.675 243.018 363.982 243.188 364.254C243.357 364.526 243.602 364.755 243.898 364.919L272.001 379.955L293.159 391.272C296.846 393.244 301.339 396.739 305.474 397.861C310.629 399.255 318.112 393.677 322.694 391.545L365.296 371.667L383.519 363.155C386.06 361.969 390.679 360.767 392.665 358.891C395.637 356.102 395.708 349.61 396.586 345.987L415.918 266.044L424.868 229.367C425.136 228.277 426.515 223.147 425.942 223.836C425.029 224.942 427.732 223.195 428.34 222.923C430.13 222.073 431.92 221.079 433.818 220.165L442.231 215.933C442.527 215.77 442.771 215.541 442.941 215.269C443.11 214.997 443.199 214.69 443.199 214.379C443.199 214.067 443.11 213.76 442.941 213.488C442.771 213.216 442.527 212.987 442.231 212.824L367.945 172.876C367.636 172.714 367.284 172.629 366.925 172.629C366.567 172.629 366.214 172.714 365.905 172.876L347.593 182.671C347.184 182.935 346.9 183.325 346.797 183.767C346.693 184.209 346.777 184.669 347.032 185.058C347.287 185.447 347.695 185.736 348.177 185.87C348.658 186.004 349.177 185.972 349.634 185.781Z" fill="#D8D8D8"/>
<path d="M392.075 227.7L374.175 292.013C374.083 292.459 374.181 292.919 374.449 293.303C374.717 293.687 375.137 293.967 375.625 294.088C376.112 294.209 376.633 294.161 377.083 293.955C377.534 293.749 377.882 293.399 378.059 292.975L395.959 228.661C396.051 228.216 395.953 227.756 395.684 227.371C395.416 226.987 394.997 226.707 394.509 226.587C394.021 226.466 393.501 226.513 393.05 226.719C392.599 226.925 392.251 227.275 392.075 227.7Z" fill="#D8D8D8"/>
<path d="M366.603 214.811L349.007 277.714C348.915 278.16 349.013 278.62 349.282 279.004C349.55 279.388 349.969 279.668 350.457 279.789C350.945 279.91 351.465 279.862 351.916 279.656C352.367 279.45 352.715 279.1 352.891 278.676L370.487 215.773C370.579 215.328 370.481 214.867 370.213 214.483C369.944 214.099 369.525 213.819 369.037 213.698C368.549 213.578 368.029 213.625 367.578 213.831C367.128 214.037 366.78 214.387 366.603 214.811Z" fill="#D8D8D8"/>
<path d="M356.829 324.683C333.559 311.858 310.289 298.89 286.571 286.787C286.115 286.596 285.595 286.564 285.114 286.697C284.633 286.831 284.225 287.121 283.97 287.51C283.714 287.899 283.631 288.359 283.734 288.801C283.838 289.242 284.122 289.633 284.531 289.897C308.338 302.016 331.608 314.968 354.878 327.889C357.098 329.107 359.12 325.997 356.919 324.779L356.829 324.683Z" fill="#D8D8D8"/>
<path d="M420.536 239.562L381.263 219.652L355.451 206.572C352.695 205.177 347.665 201.234 344.335 201.106C341.937 201.009 338.661 203.51 336.71 204.488L316.429 214.619L261.046 242.287L224.691 260.449C222.436 261.588 224.458 264.697 226.732 263.559L309.448 222.217C321.047 216.43 333.201 211.108 344.425 204.744C345.91 203.911 342.205 203.718 343.888 204.841C345.956 206.024 348.102 207.095 350.314 208.047L373.835 219.973L418.585 242.608C419.041 242.799 419.561 242.831 420.042 242.697C420.523 242.564 420.931 242.274 421.186 241.885C421.442 241.496 421.526 241.036 421.422 240.594C421.318 240.153 421.034 239.762 420.625 239.498L420.536 239.562Z" fill="#D8D8D8"/>
<path d="M248.588 275.726L258.576 328.177C259.005 330.453 262.89 329.492 262.46 327.215L252.472 274.764C252.042 272.488 248.158 273.45 248.588 275.726Z" fill="#D8D8D8"/>
<path d="M256.249 245.75V301.439C256.296 301.888 256.529 302.305 256.901 302.608C257.274 302.912 257.759 303.08 258.263 303.08C258.766 303.08 259.252 302.912 259.624 302.608C259.996 302.305 260.229 301.888 260.276 301.439V245.75C260.229 245.301 259.996 244.884 259.624 244.58C259.252 244.277 258.766 244.109 258.263 244.109C257.759 244.109 257.274 244.277 256.901 244.58C256.529 244.884 256.296 245.301 256.249 245.75Z" fill="#D8D8D8"/>
<path d="M282.866 232.445L281.237 289.512C281.285 289.961 281.517 290.378 281.89 290.682C282.262 290.985 282.748 291.153 283.251 291.153C283.755 291.153 284.24 290.985 284.612 290.682C284.985 290.378 285.218 289.961 285.265 289.512L286.894 232.445C286.846 231.996 286.614 231.579 286.241 231.275C285.869 230.972 285.384 230.803 284.88 230.803C284.376 230.803 283.891 230.972 283.519 231.275C283.146 231.579 282.914 231.996 282.866 232.445Z" fill="#D8D8D8"/>
<path d="M308.589 219.604L300.784 279.686C300.48 281.994 304.507 281.962 304.812 279.686L312.616 219.604C312.92 217.296 308.893 217.328 308.589 219.604Z" fill="#D8D8D8"/>
<path d="M434.927 209.345C434.927 209.345 433.299 208.479 432.368 209.345C431.437 210.211 432.368 211.477 432.368 211.477L433.782 212.23C433.396 212.613 432.879 212.871 432.313 212.963C431.746 213.056 431.162 212.979 430.649 212.743C428.448 212.07 372.796 182.286 372.796 182.286C372.796 182.286 371.257 180.539 372.098 179.08C372.503 178.147 373.267 177.375 374.251 176.902C375.236 176.429 376.377 176.286 377.468 176.499C380.368 177.06 434.927 206.443 434.927 206.443C434.927 206.443 436.467 208.511 434.927 209.345Z" fill="#F14A24"/>
<path d="M355.881 177.685C375.338 178.888 374.318 207.069 375.571 218.771C375.893 221.704 370.845 222.698 370.505 219.733C369.413 209.986 370.129 196.793 364.097 188.217C362.307 185.556 359.998 182.975 356.185 182.735C355.013 182.698 353.846 182.879 352.755 183.265C351.665 183.651 350.675 184.235 349.848 184.979C348.058 186.358 347.235 191.808 346.949 193.427C345.938 199.468 345.823 205.602 346.609 211.669C346.949 214.603 341.901 215.597 341.543 212.631C340.558 203.398 338.536 176.611 355.881 177.685Z" fill="#F15A24"/>
<path d="M326.775 196.601L320.922 205.337L309.215 207.518L317.986 234.593L342.867 220.181" fill="#68E1FD"/>
<path opacity="0.28" d="M326.775 196.601L320.922 205.337L309.215 207.518L317.986 234.593L342.867 220.181" fill="#606060"/>
<path d="M386.758 226.305L326.775 196.601L328.726 240.716L374.568 244.644L386.758 226.305Z" fill="#68E1FD"/>
<path opacity="0.81" d="M386.758 226.305L326.775 196.601L328.726 240.716L374.568 244.644L386.758 226.305Z" fill="#606060"/>
<path d="M365.296 232.845L356.042 316.267L299.943 286.13L309.215 207.518L365.296 232.845Z" fill="#68E1FD"/>
<path d="M365.296 232.845L371.651 226.305H386.758V299.691L376.824 305.959L356.042 316.267L365.296 232.845Z" fill="#68E1FD"/>
<path opacity="0.28" d="M365.296 232.845L371.651 226.305H386.758V299.691L376.824 305.959L356.042 316.267L365.296 232.845Z" fill="#606060"/>
<path d="M330.82 191.632C350.331 191.792 351.191 219.989 353.285 231.579C353.804 234.496 348.828 235.747 348.291 232.813C346.501 223.195 346.393 209.938 339.788 201.699C337.085 198.316 332.324 195.479 327.67 197.691C323.481 199.679 323.428 204.103 323.016 207.806C322.41 213.89 322.705 220.018 323.893 226.033C324.43 228.95 319.454 230.2 318.899 227.267C317.288 218.13 313.457 191.487 330.82 191.632Z" fill="#F15A24"/>
<path d="M309.358 236.34C323.965 237.238 323.213 258.414 324.198 267.182C324.448 269.394 320.618 270.132 320.403 267.903C319.579 260.594 320.116 250.671 315.588 244.243C314.191 242.255 312.509 240.299 309.645 240.123C308.771 240.085 307.898 240.208 307.079 240.483C306.26 240.759 305.513 241.182 304.883 241.726C303.595 242.768 302.914 246.856 302.7 248.138C301.943 252.672 301.858 257.275 302.449 261.828C302.717 264.04 298.869 264.778 298.654 262.549C297.813 255.656 296.327 235.538 309.358 236.34Z" fill="#F15A24"/>
<path d="M287.502 250.543L283.099 257.099L274.31 258.75L280.897 279.077L299.585 268.256" fill="#68E1FD"/>
<path opacity="0.28" d="M287.502 250.543L283.099 257.099L274.31 258.75L280.897 279.077L299.585 268.256" fill="#606060"/>
<path d="M332.539 272.841L287.502 250.543L288.97 283.661L323.392 286.611L332.539 272.841Z" fill="#68E1FD"/>
<path opacity="0.81" d="M332.539 272.841L287.502 250.543L288.97 283.661L323.392 286.611L332.539 272.841Z" fill="#606060"/>
<path d="M316.429 277.762L309.466 340.408L267.347 317.774L274.31 258.75L316.429 277.762Z" fill="#68E1FD"/>
<path d="M316.429 277.762L321.19 272.841H332.539V327.953L325.074 332.666L309.466 340.408L316.429 277.762Z" fill="#68E1FD"/>
<path opacity="0.28" d="M316.429 277.762L321.19 272.841H332.539V327.953L325.074 332.666L309.466 340.408L316.429 277.762Z" fill="#606060"/>
<path d="M290.545 246.808C305.188 246.936 305.85 268.096 307.407 276.816C307.801 279.012 304.06 280.022 303.666 277.746C302.359 270.484 302.234 260.562 297.276 254.374C295.235 251.841 291.673 249.709 288.165 251.36C285.032 252.851 284.978 256.169 284.585 258.959C284.13 263.528 284.353 268.131 285.247 272.648C285.659 274.845 281.918 275.854 281.506 273.578C280.324 266.701 277.496 246.711 290.545 246.808Z" fill="#F15A24"/>
<path d="M418.513 239.562L335.69 281.625C323.971 287.578 312.252 293.53 300.534 299.483C298.744 300.365 302.431 300.285 301.125 299.483C299.138 298.361 297.043 297.335 295.021 296.277L271.16 283.741L226.714 260.465C226.367 260.298 225.973 260.223 225.58 260.252C225.187 260.28 224.812 260.41 224.5 260.625C224.187 260.841 223.951 261.132 223.82 261.465C223.689 261.798 223.668 262.158 223.76 262.501C226.463 278.98 228.128 295.908 231.923 312.195C232.836 316.138 234.661 316.427 238.635 318.479L266.774 333.018L296.596 348.423C300.176 350.235 305.814 354.835 310.021 354.306C313.941 353.842 319.759 349.369 323.106 347.686L352.695 332.698L404.605 306.408C405.014 306.144 405.298 305.753 405.401 305.312C405.505 304.87 405.421 304.41 405.166 304.021C404.911 303.632 404.503 303.342 404.021 303.209C403.54 303.075 403.021 303.107 402.564 303.298L361.394 324.138C344.622 332.634 326.453 340.168 310.504 349.914C308.088 351.389 307.801 350.491 309.842 351.116C307.704 350.214 305.661 349.141 303.738 347.91L276.458 333.82L247.818 319.008C244.686 317.405 241.589 315.625 238.385 314.199C237.509 313.847 236.676 313.417 235.897 312.916C234.411 311.81 236.684 314.519 236.076 313.125C234.751 310.047 234.841 305.655 234.286 302.401L231.601 286.034L227.573 261.539L224.62 263.575L263.678 284.094L289.346 297.575C292.067 299.002 297.294 303.218 300.677 303.234C303.129 303.234 306.727 300.429 308.714 299.419L328.028 289.64L384.539 260.93L420.5 242.672C420.909 242.408 421.193 242.017 421.297 241.576C421.4 241.134 421.317 240.674 421.061 240.285C420.806 239.896 420.398 239.606 419.917 239.472C419.436 239.339 418.916 239.371 418.46 239.562H418.513Z" fill="#D8D8D8"/>
<path d="M411.12 271.286C386.364 283.405 357.42 297.704 332.718 309.758C324.09 313.99 314.728 320.274 305.349 323.352C304.71 323.16 304.107 322.885 303.559 322.535C301.231 321.156 298.564 320.066 296.112 318.864L272.538 307.306C260.348 301.295 243.217 293.488 231.027 287.476C228.503 287.589 230.92 289.448 228.396 289.384C228.575 289.633 228.821 289.837 229.112 289.977L265.037 307.723L290.438 320.322C294.018 322.118 299.62 326.334 303.791 326.911C306.136 327.247 307.246 326.382 309.394 325.308L326.685 316.844L377.915 291.74L413.089 274.508C413.378 274.361 413.618 274.149 413.788 273.893C413.957 273.637 414.05 273.347 414.056 273.049C411.747 273.242 413.501 271.206 411.12 271.286Z" fill="#D8D8D8"/>
<path d="M273.898 288.839L282.759 340.713C283.152 343.005 287.037 342.027 286.643 339.751L277.782 287.813C277.389 285.521 273.504 286.498 273.898 288.775V288.839Z" fill="#D8D8D8"/>
<path d="M298.815 301.92L307.085 353.216C307.461 355.509 311.328 354.531 310.97 352.255L302.7 300.958C302.324 298.665 298.457 299.643 298.815 301.92Z" fill="#D8D8D8"/>
<path d="M331.823 285.569C331.823 303.619 332.789 321.637 332.843 339.687C332.89 340.136 333.123 340.553 333.495 340.856C333.868 341.16 334.353 341.328 334.857 341.328C335.36 341.328 335.846 341.16 336.218 340.856C336.591 340.553 336.823 340.136 336.871 339.687C336.871 321.637 335.904 303.619 335.85 285.569C335.803 285.12 335.57 284.703 335.198 284.399C334.826 284.096 334.34 283.928 333.837 283.928C333.333 283.928 332.848 284.096 332.475 284.399C332.103 284.703 331.87 285.12 331.823 285.569Z" fill="#D8D8D8"/>
<path d="M356.507 272.103C356.245 290.025 356.245 307.942 356.507 325.853C356.555 326.302 356.787 326.719 357.16 327.022C357.532 327.326 358.017 327.494 358.521 327.494C359.025 327.494 359.51 327.326 359.882 327.022C360.255 326.719 360.487 326.302 360.535 325.853C360.26 307.931 360.26 290.015 360.535 272.103C360.487 271.654 360.255 271.237 359.882 270.934C359.51 270.63 359.025 270.462 358.521 270.462C358.017 270.462 357.532 270.63 357.16 270.934C356.787 271.237 356.555 271.654 356.507 272.103Z" fill="#D8D8D8"/>
<path d="M385.004 257.516L376.86 315.481C376.537 317.774 380.565 317.757 380.887 315.481L389.032 257.516C389.354 255.224 385.326 255.24 385.004 257.516Z" fill="#D8D8D8"/>
<path d="M449.086 126.885C449.086 125.924 443 119.271 446.706 115.825C450.411 112.378 454.582 112.378 458.681 113.612C462.043 114.518 465.062 116.236 467.405 118.577C469.748 120.919 471.325 123.794 471.963 126.885C473.328 131.8 474.28 136.8 474.809 141.842L458.001 136.792" fill="#FF9739"/>
<path d="M466.271 171.193C466.271 171.193 454.85 166.929 455.817 153.896C456.573 145.877 460.563 138.379 467.04 132.801L474.809 141.842" fill="#FF9739"/>
<path d="M472.751 129.995C472.751 129.995 482.238 155.932 481.02 163.499C479.803 171.065 466.289 171.193 466.289 171.193" fill="#FF9739"/>
<path d="M495.698 233.198L474.809 224.013C474.635 211.208 472.478 198.487 468.401 186.213L450.823 183.312C449.934 191.837 449.647 200.403 449.963 208.96C450.06 215.37 451.126 221.739 453.132 227.892C454.922 232.701 457.231 238.199 462.565 240.716C467.201 242.896 473.09 243.666 478.12 244.916C479.731 245.317 495.734 248.619 495.734 249.292L495.698 233.198Z" fill="#DD842A"/>
<path d="M436.986 150.594C433.869 155.839 430.277 160.847 426.246 165.566C423.418 168.5 398.68 178.711 398.68 178.711C398.68 178.711 385.004 177.22 383.142 181.436C381.281 185.652 380.26 186.919 384.932 189.131C389.604 191.343 393.882 185.364 398.357 184.979C402.832 184.594 430.309 179.465 442.982 162.312C444.772 159.924 446.562 151.812 448.871 149.232C448.522 147.945 448.33 146.628 448.299 145.304C443.376 146.394 441.819 149.135 436.986 150.594Z" fill="#FFB288"/>
<path d="M472.518 143.332C471.432 142.226 470.233 141.211 468.938 140.303C462.279 137.546 451.539 135.221 449.749 135.381C447.959 135.542 441.676 138.091 440.423 142.162C439.17 146.234 438.472 154.81 438.472 164.605C438.472 175.072 434.892 189.58 434.892 189.58C434.892 189.58 446.33 196.553 456.837 195.623C464.266 194.966 469.654 194.565 471.784 192.417C471.963 177.653 471.229 157.567 472.518 143.332Z" fill="#AA2B2B"/>
<path d="M460.185 156.221C457.292 162.666 453.561 168.784 449.069 174.447C446.831 177.509 422.988 192.353 422.988 192.353C422.988 192.353 412.803 190.59 411.639 194.741C410.476 198.893 409.08 202.532 413.68 204.071C418.28 205.61 422.093 197.467 426.21 196.601C430.327 195.735 453.651 186.422 464.212 174.639C467.185 171.13 469.473 167.195 470.978 163.001C465.393 161.575 464.821 159.234 460.185 156.221Z" fill="#FFB288"/>
<path d="M450.912 185.271C450.912 185.271 460.131 161.578 463.192 160.424C464.251 160.006 465.401 159.8 466.559 159.822C467.717 159.844 468.856 160.093 469.895 160.552C470.934 161.01 471.848 161.667 472.573 162.475C473.299 163.284 473.817 164.226 474.093 165.233C475.686 170.972 469.725 189.278 468.132 191.298C466.539 193.318 450.912 185.271 450.912 185.271Z" fill="#AA2B2B"/>
<path d="M441.586 140.303L427.248 156.381L439.939 168.724L446.742 162.104" fill="#AA2B2B"/>
<path d="M463.854 131.358V139.95C462.51 140.813 460.898 141.277 459.245 141.277C457.591 141.277 455.979 140.813 454.635 139.95L452.434 130.717" fill="#E59770"/>
<path d="M450.679 120.377C450.785 120.355 450.896 120.355 451.002 120.377C452.814 120.918 454.686 121.278 456.587 121.451C458.484 121.451 460.381 121.339 462.261 121.451C463.514 121.451 464.301 124.16 464.284 127.43C465.089 126.998 466.074 126.805 466.718 127.623C466.997 128.081 467.082 128.614 466.957 129.123C466.832 129.633 466.505 130.085 466.038 130.396C465.417 130.883 464.664 131.215 463.854 131.358C463.58 133.027 462.725 134.577 461.411 135.786C460.096 136.995 458.389 137.801 456.533 138.091C455.104 138.302 453.64 138.007 452.45 137.268C451.26 136.529 450.439 135.404 450.16 134.131C449.075 130.682 448.771 127.074 449.265 123.519L449.391 121.772C449.443 121.507 449.559 121.257 449.733 121.037C449.906 120.818 450.132 120.637 450.393 120.505C450.476 120.444 450.574 120.4 450.679 120.377Z" fill="#FFB288"/>
<path d="M451.539 119.127C451.539 119.127 458.466 128.184 463.746 127.478C469.027 126.773 463.192 119.72 463.192 119.72" fill="#FF9739"/>
<defs>
<filter id="filter0_d_54_1720" x="0" y="107.528" width="693" height="384.472" filterUnits="userSpaceOnUse" color-interpolation-filters="sRGB">
<feFlood flood-opacity="0" result="BackgroundImageFix"/>
<feColorMatrix in="SourceAlpha" type="matrix" values="0 0 0 0 0 0 0 0 0 0 0 0 0 0 0 0 0 0 127 0" result="hardAlpha"/>
<feOffset dx="10" dy="20"/>
<feGaussianBlur stdDeviation="7.5"/>
<feComposite in2="hardAlpha" operator="out"/>
<feColorMatrix type="matrix" values="0 0 0 0 0 0 0 0 0 0 0 0 0 0 0 0 0 0 0.25 0"/>
<feBlend mode="normal" in2="BackgroundImageFix" result="effect1_dropShadow_54_1720"/>
<feBlend mode="normal" in="SourceGraphic" in2="effect1_dropShadow_54_1720" result="shape"/>
</filter>
<linearGradient id="paint0_linear_54_1720" x1="281.434" y1="395.6" x2="375.496" y2="271.846" gradientUnits="userSpaceOnUse">
<stop stop-color="#4444A5"/>
<stop offset="1"/>
</linearGradient>
<linearGradient id="paint1_linear_54_1720" x1="436.717" y1="302.144" x2="519.697" y2="192.968" gradientUnits="userSpaceOnUse">
<stop stop-color="#4444A5"/>
<stop offset="1"/>
</linearGradient>
<linearGradient id="paint2_linear_54_1720" x1="48.9833" y1="293.552" x2="105.872" y2="255.79" gradientUnits="userSpaceOnUse">
<stop stop-color="#4444A5"/>
<stop offset="1"/>
</linearGradient>
</defs>
</svg>
