<svg width="473" height="344" viewBox="0 0 473 344" fill="none" xmlns="http://www.w3.org/2000/svg">
<g filter="url(#filter0_d_37_1278)">
<path d="M177.063 19.7255C188.049 6.09268 205.782 -3.35483 232.096 2.3164C234.416 2.9402 236.849 3.3573 239.332 3.55699C241.854 3.45804 244.366 3.25774 246.853 2.95715C258.715 2.30277 267.48 9.99166 273.248 16.9444C283.969 29.9091 303.557 47.5091 299.745 63.0913C296.79 75.17 279.811 83.5405 262.67 87.7666C243.341 92.5348 222.474 93.8091 202.174 91.4611C191.983 90.2887 181.445 87.9984 174.108 83.0497C163.916 76.1515 161.878 65.5316 162.653 55.7841C163.733 44.8916 168.115 30.8907 177.063 19.7255Z" fill="white"/>
<path d="M221.966 93.2743C215.277 93.2739 208.602 92.8908 202.011 92.1291C189.15 90.6568 179.815 87.8484 173.476 83.5405C164.568 77.5557 160.614 68.2854 161.694 55.8523C162.856 42.9557 168.278 29.3365 176.227 19.4392C185.542 7.8513 202.826 -4.63632 232.3 1.71655L233.706 2.04374C235.498 2.5089 237.377 2.80707 239.291 2.92987C240.757 2.93509 242.219 2.83454 243.653 2.62995C244.631 2.52088 245.691 2.39819 246.69 2.34366C256.453 1.78472 265.666 6.61071 273.982 16.6444C275.898 18.962 278.058 21.4159 280.402 24.0198C290.818 35.6758 303.781 50.1811 300.581 63.2004C298.033 73.7385 283.99 83.1451 262.934 88.3528C249.825 91.6112 235.951 93.2778 221.966 93.2743ZM178 20.0254C170.174 29.7728 164.813 43.2011 163.733 55.9205C162.652 67.9446 166.423 76.9422 174.902 82.668C181.017 86.7578 190.006 89.4843 202.46 90.8476C222.587 93.1647 243.273 91.8855 262.425 87.1395C282.807 82.0817 296.443 73.0296 298.91 62.9413C301.987 50.3856 289.228 36.0848 278.976 24.5923C276.652 21.9885 274.451 19.5346 272.514 17.2034C264.585 7.66044 256.004 3.03893 247.016 3.57061C246.058 3.57061 245.12 3.7342 244.142 3.84326C242.502 4.08706 240.828 4.21048 239.148 4.21135C237.051 4.08763 234.991 3.76161 233.033 3.24342L231.647 2.92987C203.397 -3.16398 186.806 8.88739 177.797 20.0526L178 20.0254Z" fill="#231F20"/>
<path d="M447.621 214.674C447.621 214.674 343.67 114.623 322.105 101.522C291.083 82.7634 180.977 78.8508 158.617 82.7089C119.075 89.5253 91.5583 130.833 91.5583 130.833L157.149 143.947C157.292 177.879 162.367 213.474 162.367 213.474L447.621 214.674Z" fill="#4444A5"/>
<path d="M111.37 38.525C111.615 38.0615 111.146 29.2548 107.518 24.5378C103.89 19.8209 104.399 19.0029 107.334 17.476C110.269 15.9492 113.449 17.476 117.974 21.2796C122.499 25.0831 123.64 30.918 122.519 35.1714L111.37 38.525Z" fill="white"/>
<path d="M111.37 39.2067C111.217 39.2056 111.065 39.1812 110.928 39.1354C110.79 39.0897 110.669 39.0237 110.575 38.9424C110.481 38.8611 110.416 38.7666 110.384 38.666C110.352 38.5654 110.355 38.4613 110.392 38.3614C110.535 37.5571 110.025 29.282 106.621 24.8514C103.217 20.4207 103.054 18.8257 106.723 16.9307C110.922 14.7767 115.141 17.8169 118.769 20.857C123.62 24.9468 124.66 31.027 123.518 35.2941C123.486 35.4033 123.416 35.5059 123.313 35.5935C123.21 35.6811 123.078 35.7514 122.927 35.7985L111.798 39.1385C111.664 39.1803 111.518 39.2035 111.37 39.2067ZM109.699 17.5715C109.062 17.5847 108.45 17.7435 107.966 18.0213C105.643 19.2074 104.868 19.6164 108.415 24.2243C111.431 28.1369 112.349 34.6806 112.491 37.4617L121.663 34.7351C122.56 30.7953 121.562 25.3558 117.24 21.7295C113.47 18.6076 111.309 17.5715 109.699 17.5715Z" fill="#231F20"/>
<path d="M105.011 69.8123C105.48 69.3624 106.152 37.6116 107.742 36.8482C109.332 36.0848 127.962 32.2949 136.135 32.2949C144.309 32.2949 146.326 34.5715 143.412 36.6983C143.412 36.6983 152.951 39.5884 146.591 45.0551C146.591 45.0551 152.033 48.845 146.591 52.4986C150.994 56.4385 146.591 61.469 141.842 64.1683C136.339 67.222 128.492 67.1539 128.532 72.5524C128.634 91.7338 131.203 111.106 129.103 130.274C127.738 142.734 116.874 160.661 97.5306 157.621C78.1876 154.581 76.8627 130.737 82.5291 118.086C88.1954 105.435 105.011 69.8123 105.011 69.8123Z" fill="white"/>
<path d="M101.811 158.643C100.287 158.639 98.7694 158.52 97.2857 158.289C94.579 157.814 92.0535 156.961 89.8753 155.786C87.6971 154.611 85.9157 153.141 84.6485 151.473C77.1477 142.802 77.1885 127.588 81.5503 117.895C87.1759 105.435 103.971 69.9349 103.971 69.5805C104.114 69.0215 104.297 64.959 104.501 60.6783C105.52 39.1112 106.05 36.7664 107.069 36.2756C108.761 35.4713 127.676 31.5996 136.053 31.5996C141.047 31.5996 144.349 32.4312 145.327 33.9444C145.58 34.3563 145.669 34.8048 145.587 35.2465C145.505 35.6883 145.254 36.1085 144.859 36.4665C147.076 37.3043 148.737 38.6732 149.506 40.2973C149.754 41.1163 149.731 41.9618 149.439 42.7743C149.147 43.5868 148.592 44.3467 147.814 45.0006C149.175 46.0455 149.924 47.3844 149.924 48.7701C149.924 50.1557 149.175 51.4946 147.814 52.5395C151.524 56.493 148.018 61.5644 142.413 64.6727C140.573 65.6258 138.568 66.4269 136.441 67.0584C132.527 68.3263 129.449 69.3351 129.47 72.5115C129.47 79.1234 129.837 85.8853 130.163 92.429C131.11 105.041 131.069 117.678 130.04 130.287C129.062 139.108 123.294 150.927 112.878 156.04C109.705 157.683 105.823 158.596 101.811 158.643ZM105.887 70.0304C105.133 71.639 88.9288 106.048 83.4663 118.277C79.2267 127.697 79.1656 142.42 86.381 150.777C87.5142 152.278 89.1102 153.6 91.0636 154.658C93.0171 155.715 95.2836 156.483 97.7137 156.912C100.114 157.316 102.621 157.349 105.043 157.009C107.466 156.669 109.741 155.965 111.696 154.949C121.602 150.082 127.105 138.699 128.002 130.192C129.031 117.628 129.072 105.037 128.124 92.4699C127.798 85.9262 127.452 79.1507 127.431 72.5115C127.431 68.4217 131.508 67.0584 135.584 65.8042C137.566 65.2216 139.435 64.48 141.149 63.5957C145.225 61.319 149.893 56.5748 145.735 52.8667C145.576 52.7411 145.488 52.5816 145.488 52.4168C145.488 52.252 145.576 52.0926 145.735 51.9669C150.403 48.8587 145.918 45.6141 145.735 45.4777C145.577 45.3543 145.49 45.1971 145.49 45.0347C145.49 44.8722 145.577 44.7151 145.735 44.5916C146.48 44.068 147.033 43.4361 147.351 42.7454C147.67 42.0547 147.744 41.3241 147.569 40.6108C146.743 39.134 145.081 37.9342 142.943 37.2708C142.796 37.2294 142.666 37.164 142.567 37.0807C142.467 36.9973 142.4 36.8987 142.372 36.7937C142.339 36.6879 142.343 36.5783 142.386 36.474C142.428 36.3697 142.507 36.2737 142.616 36.1938C143.126 35.8257 143.921 35.1032 143.513 34.4625C143.106 33.8217 140.823 32.9356 136.094 32.9356C128.247 32.9356 110.718 36.521 108.455 37.2981C107.599 39.0567 106.947 53.0848 106.58 60.6919C106.234 68.6807 106.152 69.7441 105.969 70.0713L105.887 70.0304Z" fill="#231F20"/>
<path d="M128.41 39.2067C128.14 39.2338 127.865 39.188 127.645 39.0793C127.425 38.9707 127.279 38.8081 127.238 38.6273C127.198 38.4465 127.266 38.2624 127.429 38.1153C127.591 37.9683 127.834 37.8705 128.104 37.8434C133.127 37.0288 138.218 36.4187 143.351 36.0166C143.618 35.9934 143.888 36.0421 144.102 36.1519C144.316 36.2618 144.456 36.424 144.492 36.6028C144.512 36.6917 144.505 36.7823 144.471 36.8693C144.438 36.9564 144.378 37.038 144.297 37.1092C144.215 37.1805 144.112 37.24 143.995 37.2842C143.878 37.3283 143.749 37.3563 143.616 37.3663C138.63 37.7813 133.683 38.3821 128.797 39.1658C128.675 39.2003 128.542 39.2143 128.41 39.2067Z" fill="#231F20"/>
<path d="M130.346 47.4C130.076 47.4361 129.795 47.399 129.566 47.2967C129.336 47.1945 129.177 47.0354 129.123 46.8547C129.069 46.6739 129.125 46.4861 129.278 46.3327C129.43 46.1793 129.668 46.0729 129.939 46.0367C134.606 44.6734 146.061 44.3326 146.53 44.319C146.664 44.3134 146.798 44.3256 146.925 44.3549C147.052 44.3841 147.169 44.4298 147.269 44.4893C147.369 44.5488 147.451 44.621 147.51 44.7018C147.568 44.7825 147.602 44.8701 147.61 44.9597C147.621 45.1419 147.525 45.3197 147.342 45.4549C147.159 45.59 146.904 45.6717 146.632 45.6822C146.53 45.6822 135.075 46.064 130.754 47.2909C130.632 47.3475 130.493 47.3848 130.346 47.4Z" fill="#231F20"/>
<path d="M134.443 55.2252C134.239 55.2272 134.038 55.188 133.867 55.1126C133.696 55.0373 133.563 54.9292 133.485 54.8026C133.389 54.6359 133.393 54.4508 133.495 54.2858C133.598 54.1208 133.791 53.9886 134.036 53.9164C138.046 52.9143 142.208 52.2103 146.449 51.817C146.716 51.7938 146.986 51.8424 147.2 51.9523C147.414 52.0622 147.554 52.2244 147.59 52.4032C147.61 52.4921 147.603 52.5827 147.569 52.6697C147.536 52.7568 147.476 52.8383 147.395 52.9096C147.313 52.9809 147.21 53.0404 147.093 53.0846C146.976 53.1287 146.847 53.1566 146.714 53.1666C142.657 53.5497 138.674 54.2215 134.831 55.1707C134.709 55.2071 134.577 55.2257 134.443 55.2252Z" fill="#231F20"/>
<path d="M154.174 184.341C154.037 184.334 153.904 184.309 153.781 184.268C153.659 184.227 153.55 184.169 153.461 184.1C153.372 184.03 153.305 183.949 153.263 183.862C153.22 183.775 153.204 183.683 153.216 183.591L162.082 105.885C162.092 105.791 162.13 105.7 162.193 105.617C162.256 105.534 162.343 105.459 162.449 105.399C162.555 105.338 162.678 105.292 162.811 105.263C162.944 105.234 163.084 105.223 163.223 105.23C163.362 105.237 163.497 105.262 163.621 105.305C163.744 105.347 163.854 105.405 163.943 105.477C164.033 105.548 164.1 105.63 164.141 105.719C164.182 105.808 164.195 105.901 164.181 105.994L155.315 183.7C155.305 183.793 155.267 183.883 155.204 183.966C155.14 184.049 155.053 184.122 154.947 184.182C154.84 184.242 154.717 184.287 154.584 184.314C154.451 184.341 154.312 184.351 154.174 184.341Z" fill="#231F20"/>
<path d="M214.282 110.015C221.64 116.136 232.626 120.499 244.468 120.622C246.002 120.678 247.537 120.54 248.993 120.213C250.986 119.643 252.687 118.695 253.885 117.486C259.225 112.578 259.449 105.966 258.104 99.968C257.146 95.7554 255.312 91.3384 250.542 88.5164C244.937 85.2037 236.804 84.8901 229.324 84.7538C221.843 84.6175 204.498 83.1588 201.726 89.3208C199.137 94.9511 209.349 105.912 214.282 110.015Z" fill="#231F20"/>
<path d="M244.916 121.221H244.448C233.135 121.099 221.599 117.05 213.588 110.397C208.269 105.98 198.179 94.992 200.849 89.1435C203.52 83.2951 217.767 83.6904 226.246 84.0449L229.365 84.1403C237.619 84.3039 245.487 84.7129 251.133 88.0529C256.779 91.3929 258.185 96.328 258.98 99.8725C260.713 107.534 259.245 113.505 254.619 117.827C253.333 119.141 251.487 120.167 249.319 120.772C247.905 121.101 246.413 121.253 244.916 121.221ZM219.296 85.0946C212.121 85.0946 204.274 85.7899 202.582 89.498C200.116 94.8284 210.062 105.557 214.974 109.647C222.659 116.027 233.686 119.899 244.468 120.022C245.896 120.072 247.326 119.947 248.687 119.654C250.521 119.121 252.081 118.239 253.171 117.118C257.492 113.137 258.858 107.384 257.248 100.05C256.494 96.6825 254.924 91.8701 249.992 88.9527C245.059 86.0353 237.253 85.49 229.344 85.34C228.427 85.34 227.306 85.34 226.205 85.2446C224.126 85.1764 221.741 85.0946 219.296 85.0946Z" fill="#231F20"/>
<path d="M261.895 47.0046C262.648 45.3054 263.925 43.7309 265.646 42.3831C266.527 41.7198 267.692 41.2541 268.983 41.0493C270.274 40.8444 271.628 40.9103 272.861 41.238C273.719 41.5795 274.438 42.0562 274.957 42.6265C275.476 43.1968 275.778 43.8434 275.837 44.5098C275.938 45.8504 275.604 47.1898 274.858 48.4361C273.724 50.8059 271.761 52.9605 269.131 54.7208C267.825 55.5953 266.265 56.2822 264.547 56.7393C262.83 57.1965 260.991 57.4142 259.144 57.3792" fill="white"/>
<path d="M259.918 57.9108H259.082C258.868 57.897 258.67 57.8283 258.529 57.7191C258.389 57.6098 258.317 57.4685 258.328 57.3246C258.333 57.2523 258.36 57.1814 258.407 57.1163C258.455 57.0512 258.522 56.9932 258.604 56.946C258.686 56.8988 258.781 56.8633 258.885 56.8416C258.988 56.82 259.097 56.8127 259.205 56.8202C260.948 56.86 262.684 56.6603 264.307 56.2336C265.931 55.8068 267.406 55.162 268.642 54.3391C271.175 52.6404 273.063 50.56 274.145 48.2725C274.856 47.1014 275.176 45.8405 275.083 44.578C275.034 43.9975 274.772 43.434 274.32 42.9371C273.869 42.4402 273.242 42.0252 272.494 41.7287C271.414 41.4565 270.235 41.4098 269.114 41.5948C267.994 41.7797 266.983 42.1877 266.216 42.7648C264.593 44.0711 263.38 45.5826 262.649 47.2091C262.613 47.276 262.557 47.3373 262.485 47.3895C262.413 47.4417 262.325 47.4836 262.229 47.5128C262.132 47.5421 262.027 47.558 261.921 47.5597C261.814 47.5614 261.709 47.5488 261.61 47.5227C261.407 47.4734 261.243 47.3727 261.151 47.2425C261.059 47.1122 261.048 46.963 261.12 46.8274C261.919 45.0514 263.266 43.4073 265.075 42.0014C266.078 41.2591 267.399 40.7417 268.858 40.5197C270.317 40.2977 271.843 40.3819 273.228 40.7608C274.22 41.1377 275.057 41.674 275.662 42.3215C276.267 42.9689 276.621 43.707 276.693 44.4689C276.805 45.8657 276.457 47.2619 275.674 48.5588C274.518 51.0361 272.474 53.2871 269.722 55.1161C267.103 56.8468 263.598 57.846 259.918 57.9108Z" fill="#231F20"/>
<path d="M247.892 70.6439L251.051 91.6656C251.051 91.6656 249.523 103.622 229.874 101.209C224.103 100.463 218.65 98.871 213.91 96.5467C209.169 94.2223 205.259 91.2236 202.459 87.7666L203.193 50.0447C203.071 48.5042 207.861 43.2284 205.598 29.8955C212.334 29.4347 218.852 28.0403 224.738 25.801C230.623 23.5618 235.746 20.5269 239.78 16.8898C239.78 16.8898 248.891 24.4151 252.723 26.7463C255.798 28.4683 258.537 30.4424 260.876 32.6221C266.991 38.7568 266.726 48.7633 265.258 55.7978C263.831 61.5781 258.817 70.7938 247.892 70.6439Z" fill="white"/>
<path d="M234.787 102.19C233.084 102.183 231.385 102.073 229.711 101.863C223.778 101.089 218.175 99.4466 213.302 97.0544C208.428 94.6622 204.406 91.5791 201.522 88.0256C201.493 87.9359 201.493 87.8428 201.522 87.753C201.522 87.753 202.256 50.2765 202.256 50.0447C202.341 49.3706 202.553 48.7064 202.888 48.068C204.03 45.4505 206.373 39.9974 204.682 29.9637C204.669 29.8833 204.68 29.8021 204.715 29.7248C204.75 29.6475 204.808 29.5757 204.886 29.5138C204.955 29.4471 205.046 29.3917 205.152 29.3516C205.258 29.3115 205.376 29.2877 205.497 29.282C212.09 28.8183 218.468 27.4478 224.231 25.2566C229.994 23.0654 235.017 20.1008 238.986 16.549C239.069 16.4693 239.178 16.4033 239.305 16.3561C239.433 16.3088 239.574 16.2816 239.719 16.2763C239.866 16.2726 240.013 16.2915 240.147 16.3317C240.281 16.3719 240.4 16.4323 240.494 16.5081C240.494 16.5081 249.605 24.0198 253.355 26.2828C256.44 28.0446 259.179 30.06 261.508 32.2812C268.561 39.4248 267.012 51.1354 266.033 55.8387C264.851 61.469 259.918 70.8347 248.973 71.2573L252.01 91.6111C251.522 94.88 249.136 97.8904 245.365 99.9952C242.31 101.504 238.582 102.277 234.787 102.19ZM203.296 87.6167C206.065 90.962 209.896 93.8611 214.519 96.1103C219.143 98.3595 224.447 99.9042 230.058 100.636C235.928 101.345 240.677 100.8 244.183 99.0137C247.484 97.1341 249.602 94.4903 250.114 91.6111L246.975 70.712C246.964 70.6234 246.98 70.5342 247.022 70.4498C247.064 70.3654 247.132 70.2876 247.22 70.2212C247.31 70.1599 247.418 70.1114 247.537 70.0786C247.657 70.0458 247.784 70.0294 247.913 70.0304H248.158C258.349 70.0304 263.017 61.0191 264.138 55.6614C265.116 51.0944 266.624 39.7656 259.918 32.9765C257.645 30.8369 254.981 28.8952 251.99 27.1962C247.683 24.2406 243.601 21.1421 239.76 17.9123C231.556 24.8299 219.632 29.3265 206.537 30.4408C208.065 40.3246 205.721 45.764 204.498 48.4088C204.231 48.9307 204.047 49.4699 203.948 50.0175C203.948 50.0175 204.029 50.0584 203.296 87.6167Z" fill="#231F20"/>
<path d="M248.973 77.5557C243.812 78.1597 238.501 77.7818 233.645 76.4651C222.455 73.8339 221.803 68.7216 221.803 68.7216C221.803 68.7216 231.219 72.6751 247.892 70.603L248.973 77.5557Z" fill="#231F20"/>
<path d="M244.427 78.4418C240.644 78.399 236.898 77.9383 233.339 77.0785C221.742 74.352 220.947 69.0488 220.906 68.8988C220.89 68.7862 220.921 68.6727 220.997 68.5715C221.073 68.4703 221.191 68.3856 221.336 68.3271C221.481 68.2687 221.647 68.2388 221.817 68.2411C221.986 68.2434 222.151 68.2776 222.292 68.3399C222.292 68.3399 231.648 72.1435 247.729 70.1394C247.979 70.1112 248.236 70.1504 248.443 70.2485C248.544 70.2972 248.628 70.3604 248.688 70.4335C248.748 70.5067 248.782 70.5878 248.789 70.6711L249.849 77.4875C249.893 77.6007 249.887 77.7198 249.833 77.8309C249.779 77.942 249.678 78.0404 249.544 78.1146C249.456 78.1685 249.353 78.2096 249.241 78.2355C249.129 78.2613 249.01 78.2712 248.891 78.2646C247.415 78.4192 245.92 78.4786 244.427 78.4418ZM223.169 69.9077C224.065 71.4755 226.634 74.2156 233.951 75.9334C238.423 77.0746 243.249 77.4541 247.994 77.0376L247.118 71.3528C234.848 72.7297 226.634 71.0119 223.169 69.9077Z" fill="#231F20"/>
<path d="M234.155 36.6165C234.155 36.6165 245.773 46.0367 243.632 47.9589C241.492 49.8811 234.603 49.1586 234.603 49.1586" fill="white"/>
<path d="M237.477 49.8948C236.468 49.8939 235.46 49.8484 234.46 49.7585C234.249 49.715 234.069 49.622 233.952 49.4965C233.835 49.3711 233.79 49.2217 233.824 49.0758C233.859 48.9298 233.971 48.7972 234.141 48.7022C234.31 48.6072 234.525 48.5563 234.746 48.5588C236.519 48.7496 241.431 48.9269 242.899 47.5908C243.816 46.7729 239.393 41.8242 233.421 36.9982C233.346 36.9373 233.289 36.8672 233.255 36.7918C233.22 36.7163 233.208 36.6371 233.22 36.5586C233.231 36.4801 233.266 36.4038 233.321 36.3342C233.376 36.2646 233.452 36.203 233.543 36.1529C233.732 36.0541 233.971 36.0075 234.209 36.0227C234.448 36.0379 234.669 36.1138 234.827 36.2347C238.455 39.1794 246.649 46.2412 244.346 48.3134C242.899 49.6221 239.821 49.8948 237.477 49.8948Z" fill="#231F20"/>
<path d="M248.698 38.7797C249.647 38.6949 250.221 37.6521 249.98 36.4506C249.74 35.2491 248.776 34.3439 247.828 34.4287C246.88 34.5136 246.306 35.5564 246.546 36.7579C246.786 37.9594 247.75 38.8646 248.698 38.7797Z" fill="#231F20"/>
<path d="M220.113 38.8066C221.069 38.7991 221.828 37.8105 221.807 36.5983C221.785 35.3862 220.993 34.4097 220.036 34.4172C219.079 34.4246 218.321 35.4133 218.342 36.6254C218.363 37.8376 219.156 38.8141 220.113 38.8066Z" fill="#231F20"/>
<path d="M209.533 44.4008C208.831 42.6012 207.635 40.9046 206.006 39.3975C205.07 38.5421 203.841 37.8486 202.423 37.3744C201.005 36.9002 199.439 36.659 197.853 36.671C196.873 36.6965 195.914 36.8705 195.049 37.1799C194.184 37.4892 193.436 37.9259 192.86 38.4569C192.172 39.2219 191.74 40.0778 191.596 40.9653C190.556 45.6413 192.9 51.7352 199.484 54.1482C200.595 54.6154 201.881 54.8632 203.194 54.8632C204.506 54.8632 205.792 54.6154 206.903 54.1482" fill="white"/>
<path d="M203.642 55.4024C202.05 55.378 200.491 55.0974 199.096 54.5845C192.207 52.0488 189.72 45.764 190.801 40.8426C190.955 39.8763 191.428 38.945 192.187 38.1161C192.829 37.5151 193.668 37.0199 194.639 36.668C195.61 36.3161 196.688 36.1166 197.792 36.0848C199.515 36.0765 201.216 36.343 202.755 36.8623C204.293 37.3815 205.624 38.1384 206.638 39.0704C208.336 40.6278 209.581 42.3852 210.307 44.2508C210.364 44.3882 210.338 44.535 210.235 44.6599C210.132 44.7847 209.96 44.8777 209.756 44.9188C209.656 44.9418 209.55 44.9508 209.444 44.9452C209.339 44.9396 209.236 44.9196 209.142 44.8864C209.049 44.8532 208.966 44.8074 208.9 44.752C208.834 44.6967 208.785 44.6328 208.758 44.5644C208.084 42.8299 206.937 41.1938 205.374 39.7384C204.528 38.94 203.406 38.2902 202.103 37.844C200.801 37.3977 199.357 37.1684 197.894 37.1754C197.04 37.1967 196.205 37.3462 195.45 37.6129C194.695 37.8796 194.039 38.2566 193.532 38.7159C192.908 39.4139 192.525 40.1964 192.411 41.0062C191.392 45.5459 193.634 51.3399 199.871 53.6302C200.832 54.0584 201.954 54.2958 203.109 54.3151C204.263 54.3344 205.402 54.1348 206.393 53.7392C206.566 53.6543 206.78 53.6169 206.992 53.6347C207.205 53.6524 207.399 53.724 207.535 53.8347C207.667 53.9487 207.726 54.093 207.699 54.2361C207.672 54.3791 207.562 54.5093 207.392 54.5981C206.309 55.1355 204.99 55.4183 203.642 55.4024Z" fill="#231F20"/>
<path d="M318.437 205.704C318.188 205.703 317.948 205.644 317.758 205.537C317.568 205.43 317.44 205.281 317.397 205.118C310.406 175.93 297.014 120.294 296.403 118.604C296.335 118.423 296.375 118.232 296.517 118.071C296.658 117.91 296.888 117.793 297.157 117.745C297.43 117.703 297.716 117.734 297.956 117.831C298.195 117.927 298.369 118.082 298.441 118.263C299.236 120.431 318.64 201.423 319.476 204.886C319.517 205.07 319.448 205.258 319.284 205.408C319.12 205.559 318.874 205.66 318.6 205.69L318.437 205.704Z" fill="#231F20"/>
<path d="M423.121 130.873H30.6964C14.2477 130.873 0.91748 140.335 0.91748 151.977V266.888C0.91748 278.544 14.2477 287.978 30.6964 287.978H179.305L220.07 324.063L270.211 287.978H423.223C439.672 287.978 453.022 278.544 453.022 266.888V151.977C452.92 140.335 439.57 130.873 423.121 130.873Z" fill="url(#paint0_linear_37_1278)"/>
<path d="M219.968 324.691C219.834 324.682 219.704 324.656 219.585 324.614C219.466 324.572 219.361 324.515 219.275 324.445L178.897 288.605H30.6961C13.7582 288.605 0 278.857 0 266.888V151.977C0 140.007 13.7582 130.26 30.6961 130.26H423.121C440.059 130.26 453.837 140.007 453.837 151.977V266.888C453.837 278.857 440.059 288.605 423.121 288.605H270.517L220.641 324.486C220.557 324.55 220.454 324.602 220.338 324.637C220.222 324.672 220.096 324.69 219.968 324.691ZM30.6961 131.501C14.7977 131.501 1.85482 140.689 1.85482 151.95V266.86C1.85482 278.148 14.7977 287.31 30.6961 287.31H179.305C179.448 287.307 179.59 287.329 179.718 287.371C179.845 287.414 179.956 287.477 180.039 287.555L220.029 323L269.437 287.46C269.522 287.398 269.627 287.349 269.743 287.316C269.859 287.283 269.983 287.267 270.109 287.269H423.121C439.04 287.269 451.983 278.08 451.983 266.82V151.977C451.983 140.689 439.04 131.528 423.121 131.528L30.6961 131.501Z" fill="#231F20"/>
<path d="M338.044 219.827C337.84 226.93 324.673 228.92 324.673 228.92C324.673 228.92 335.822 229.684 331.685 236.473C330.553 238.41 328.694 240.12 326.288 241.438C323.882 242.756 321.01 243.638 317.947 243.998C317.947 243.998 327.302 247.543 320.515 254.073C313.728 260.603 245.772 260.153 234.501 260.412C228.574 260.843 222.6 259.957 217.502 257.89C213.874 256.527 207.575 253.309 205.272 253.309C198.892 253.309 173.047 254.455 173.047 254.455L179.162 203.509C179.162 203.509 213.384 203.509 219.683 199.746C236.233 189.931 246.771 172.331 245.263 162.011C243.754 151.691 239.474 144.411 250.379 143.661C261.283 142.911 272.799 157.744 274.226 167.3C275.653 176.857 268.213 188.431 271.597 192.207C274.98 195.984 284.744 196.733 300.132 195.725C315.521 194.716 329.626 193.475 335.68 198.083C341.733 202.691 341.407 209.494 327.853 213.27C327.934 213.27 338.187 215.056 338.044 219.827Z" fill="white"/>
<path d="M231.668 261.135C226.508 261.225 221.422 260.306 217.033 258.49C215.708 258.013 214.118 257.317 212.406 256.581C209.899 255.491 206.475 253.991 205.293 253.991C199.015 253.991 173.394 255.123 173.129 255.136C172.983 255.14 172.837 255.124 172.7 255.089C172.563 255.053 172.439 255 172.334 254.932C172.234 254.861 172.158 254.777 172.109 254.686C172.06 254.594 172.039 254.497 172.049 254.4L178.163 203.454C178.184 203.283 178.3 203.123 178.489 203.007C178.678 202.891 178.926 202.827 179.183 202.827C188.599 202.827 214.098 202.159 219.03 199.228C232.381 191.321 246.037 174.117 244.264 162.079C243.979 160.048 243.571 158.18 243.204 156.367C242.124 151.295 241.268 147.301 243.999 144.97C244.786 144.364 245.752 143.875 246.836 143.532C247.92 143.19 249.099 143.001 250.297 142.979C261.854 142.175 273.656 157.076 275.266 167.232C276.02 172.031 274.573 177.239 273.228 181.819C271.882 186.4 270.904 190.149 272.433 191.853C275.368 195.111 283.867 196.093 300.031 195.043L302.701 194.866C317.56 193.884 330.401 193.039 336.434 197.592C338.009 198.692 339.168 200.029 339.814 201.49C340.459 202.951 340.572 204.494 340.143 205.99C339.43 208.062 337.147 210.884 330.564 213.147C333.825 214.047 339.083 216.078 338.982 219.8C338.839 224.994 332.235 227.639 328.097 228.798C329.242 229.055 330.286 229.479 331.155 230.039C332.025 230.6 332.697 231.282 333.124 232.037C333.552 232.792 333.723 233.602 333.625 234.406C333.528 235.211 333.164 235.992 332.561 236.691C331.506 238.503 329.846 240.129 327.709 241.448C325.573 242.766 323.014 243.741 320.23 244.298C321.933 245.291 323.142 246.609 323.695 248.074C323.989 249.187 323.927 250.328 323.513 251.424C323.098 252.519 322.34 253.543 321.29 254.427C315.868 259.662 278.099 260.671 241.798 260.971C238.475 260.971 235.907 260.971 234.378 261.053L231.668 261.135ZM205.293 252.628C206.944 252.628 209.512 253.691 213.446 255.45C215.097 256.159 216.666 256.813 217.889 257.29C222.829 259.304 228.629 260.162 234.378 259.73C235.907 259.73 238.455 259.73 241.838 259.649C261.589 259.485 314.054 259.049 319.598 253.691C320.501 253.039 321.169 252.257 321.552 251.405C321.934 250.554 322.02 249.655 321.804 248.778C321.588 247.9 321.074 247.068 320.303 246.343C319.533 245.619 318.524 245.022 317.356 244.598C317.168 244.526 317.019 244.416 316.931 244.283C316.843 244.151 316.821 244.003 316.867 243.862C316.906 243.721 317.013 243.593 317.171 243.497C317.329 243.401 317.53 243.343 317.743 243.33C320.632 242.99 323.34 242.157 325.605 240.91C327.869 239.663 329.612 238.045 330.665 236.214C331.212 235.554 331.516 234.817 331.551 234.063C331.587 233.309 331.353 232.56 330.869 231.879C329.116 229.916 324.591 229.575 324.53 229.575C324.29 229.558 324.067 229.484 323.903 229.367C323.738 229.249 323.642 229.095 323.634 228.934C323.621 228.774 323.691 228.617 323.832 228.487C323.973 228.358 324.177 228.266 324.408 228.225C324.551 228.225 336.821 226.262 337.004 219.786C337.127 215.615 327.751 213.924 327.669 213.897C327.456 213.868 327.264 213.793 327.12 213.684C326.977 213.575 326.891 213.437 326.874 213.292C326.858 213.147 326.913 213.003 327.031 212.881C327.149 212.759 327.323 212.666 327.527 212.616C333.539 210.939 337.229 208.526 338.207 205.69C338.563 204.406 338.455 203.085 337.891 201.835C337.327 200.585 336.324 199.443 334.966 198.506C329.626 194.416 317.274 195.247 302.966 196.202L300.296 196.433C283.256 197.538 274.145 196.352 270.741 192.575C268.825 190.435 269.905 186.536 271.291 181.601C272.535 177.102 273.961 172.058 273.228 167.396C271.78 158.234 260.529 143.675 250.501 144.37C249.577 144.374 248.665 144.508 247.823 144.761C246.981 145.015 246.227 145.383 245.609 145.842C243.408 147.71 244.203 151.459 245.222 156.203C245.589 157.948 245.996 159.925 246.302 161.97C247.79 172.181 237.742 189.999 220.396 200.278C214.404 203.836 185.746 204.191 180.12 204.218L174.168 253.691C179.366 253.5 199.647 252.628 205.293 252.628Z" fill="#231F20"/>
<path d="M306.166 215.342C305.896 215.342 305.637 215.27 305.446 215.142C305.255 215.015 305.147 214.841 305.147 214.66C305.147 214.48 305.255 214.306 305.446 214.178C305.637 214.051 305.896 213.979 306.166 213.979C321.637 213.761 327.609 212.616 327.67 212.616C327.94 212.563 328.231 212.585 328.477 212.675C328.724 212.766 328.906 212.919 328.985 213.1C329.063 213.28 329.031 213.475 328.895 213.639C328.759 213.804 328.531 213.926 328.261 213.979C327.996 213.979 322.024 215.179 306.207 215.342H306.166Z" fill="#231F20"/>
<path d="M308.755 230.815H307.593C307.323 230.815 307.063 230.744 306.872 230.616C306.681 230.488 306.574 230.314 306.574 230.134C306.574 229.953 306.681 229.78 306.872 229.652C307.063 229.524 307.323 229.452 307.593 229.452C313.221 229.64 318.859 229.245 324.307 228.28C324.561 228.223 324.838 228.236 325.078 228.315C325.318 228.394 325.503 228.533 325.591 228.702C325.639 228.785 325.661 228.874 325.656 228.963C325.651 229.052 325.619 229.139 325.562 229.22C325.504 229.3 325.423 229.372 325.323 229.431C325.223 229.489 325.106 229.534 324.979 229.561C324.755 229.616 319.659 230.815 308.755 230.815Z" fill="#231F20"/>
<path d="M307.593 245.58C307.323 245.58 307.063 245.508 306.872 245.38C306.681 245.252 306.574 245.079 306.574 244.898C306.579 244.718 306.688 244.547 306.878 244.42C307.068 244.293 307.324 244.22 307.593 244.216C310.969 244.285 314.34 243.995 317.58 243.357C317.834 243.294 318.116 243.301 318.362 243.376C318.609 243.452 318.8 243.59 318.895 243.76C318.99 243.93 318.979 244.118 318.867 244.283C318.754 244.448 318.548 244.576 318.294 244.639C314.827 245.338 311.212 245.656 307.593 245.58Z" fill="#231F20"/>
<path d="M198.22 260.862L106.438 263.398V195.615L198.22 198.151V260.862Z" fill="#4444A5"/>
<path d="M170.051 215.424C174.779 215.424 178.612 212.86 178.612 209.698C178.612 206.536 174.779 203.972 170.051 203.972C165.323 203.972 161.49 206.536 161.49 209.698C161.49 212.86 165.323 215.424 170.051 215.424Z" fill="#231F20"/>
<path d="M170.052 216.01C168.179 216.013 166.348 215.644 164.79 214.95C163.231 214.256 162.016 213.268 161.298 212.112C160.579 210.955 160.39 209.682 160.754 208.454C161.119 207.226 162.02 206.097 163.344 205.212C164.668 204.326 166.355 203.723 168.191 203.48C170.028 203.236 171.931 203.363 173.66 203.843C175.389 204.324 176.866 205.136 177.903 206.179C178.941 207.221 179.493 208.446 179.489 209.698C179.483 211.371 178.487 212.974 176.719 214.157C174.95 215.34 172.553 216.007 170.052 216.01ZM170.052 204.572C168.535 204.57 167.051 204.868 165.788 205.429C164.525 205.991 163.54 206.791 162.957 207.727C162.373 208.663 162.219 209.695 162.512 210.69C162.806 211.685 163.534 212.6 164.605 213.318C165.676 214.036 167.041 214.526 168.529 214.725C170.016 214.923 171.558 214.823 172.959 214.435C174.361 214.048 175.559 213.391 176.402 212.547C177.245 211.704 177.695 210.713 177.695 209.698C177.674 208.349 176.86 207.06 175.43 206.109C174 205.157 172.068 204.62 170.052 204.613V204.572Z" fill="#231F20"/>
<path d="M368.496 55.7705C369.541 58.9528 371.928 61.868 375.374 64.1706C378.821 66.4733 383.182 68.0669 387.941 68.7625C383.185 69.4605 378.829 71.0551 375.386 73.3576C371.944 75.6601 369.56 78.5741 368.516 81.7546C367.473 78.5741 365.088 75.6601 361.646 73.3576C358.203 71.0551 353.847 69.4605 349.092 68.7625C349.092 68.7625 355.206 68.5172 361.647 64.1683C368.088 59.8194 368.496 55.7705 368.496 55.7705Z" fill="#D1D3D4"/>
<path d="M30.4714 72.2116C31.2716 74.644 33.0959 76.8724 35.7289 78.6334C38.362 80.3945 41.6936 81.6147 45.3303 82.1499C41.6904 82.6804 38.355 83.8991 35.7208 85.661C33.0867 87.4228 31.2646 89.6537 30.4714 92.0882C29.6782 89.6537 27.8562 87.4228 25.222 85.661C22.5878 83.8991 19.2524 82.6804 15.6125 82.1499C19.2492 81.6147 22.5809 80.3945 25.2139 78.6334C27.8469 76.8724 29.6713 74.644 30.4714 72.2116Z" fill="#D1D3D4"/>
<path d="M74.9267 30.6726C75.5548 32.5935 76.9923 34.3539 79.0693 35.7455C81.1463 37.1371 83.7758 38.1016 86.6467 38.525C83.7742 38.9412 81.1415 39.9017 79.0632 41.2917C76.9849 42.6818 75.5489 44.4426 74.9267 46.3639C74.2952 44.4455 72.8562 42.688 70.7794 41.299C68.7027 39.9099 66.075 38.9474 63.2068 38.525C66.118 38.2185 68.7857 37.2567 70.7687 35.7985C72.994 34.4601 74.4624 32.65 74.9267 30.6726Z" fill="#D1D3D4"/>
<path d="M239.026 62.0825C223.963 62.0825 219.153 48.7905 218.949 48.218C218.9 48.0608 218.946 47.8972 219.075 47.7621C219.205 47.627 219.408 47.5313 219.642 47.4954C219.757 47.4772 219.877 47.4745 219.993 47.4873C220.11 47.5001 220.222 47.5282 220.322 47.57C220.423 47.6118 220.51 47.6665 220.578 47.7309C220.647 47.7953 220.696 47.8682 220.722 47.9453C220.722 48.068 225.39 60.8828 239.067 60.8828C240.485 60.9194 241.898 60.7466 243.204 60.3767C244.511 60.0068 245.68 59.4488 246.629 58.7425C251.337 55.157 250.073 48.2043 250.053 48.1362C250.036 48.0573 250.042 47.9769 250.072 47.8997C250.102 47.8225 250.154 47.7501 250.226 47.6866C250.298 47.6232 250.389 47.57 250.492 47.5301C250.595 47.4903 250.709 47.4646 250.827 47.4545C251.064 47.4384 251.3 47.483 251.49 47.5791C251.679 47.6753 251.806 47.8159 251.846 47.9726C251.846 48.2861 253.253 55.5388 247.994 59.5332C246.875 60.376 245.49 61.0419 243.939 61.4828C242.388 61.9237 240.71 62.1285 239.026 62.0825Z" fill="#231F20"/>
<path d="M370.187 122.203C362.523 120.54 353.433 119.476 346.972 122.721C343.951 124.453 341.566 126.627 340.001 129.074C336.472 133.733 333.421 138.548 330.869 143.484C330.217 144.847 329.769 146.483 331.44 147.246C333.478 148.187 336.026 146.687 337.31 145.283C339.633 142.775 341.443 140.07 342.691 137.24C339.786 141.276 337.728 145.561 336.576 149.973C336.326 150.505 336.326 151.076 336.576 151.609C336.976 152.064 337.629 152.396 338.392 152.531C339.156 152.666 339.968 152.595 340.653 152.331C342.042 151.808 343.175 151.027 343.914 150.082C347.274 146.36 350.008 142.4 352.067 138.276C350.029 142.57 347.991 146.974 348.276 151.473C348.229 151.851 348.3 152.233 348.486 152.592C348.672 152.951 348.969 153.28 349.356 153.558C349.893 153.789 350.528 153.897 351.164 153.865C351.8 153.833 352.403 153.663 352.882 153.381C353.785 152.796 354.481 152.083 354.921 151.295L363.074 140.048C361.312 144.232 360.333 148.546 360.159 152.89C360.096 153.253 360.181 153.62 360.404 153.954C361.3 155.085 363.971 154.308 365.092 153.272C366.826 151.472 368.036 149.47 368.659 147.369C370.839 141.916 372.735 136.258 375.242 130.819C377.321 126.347 378.096 123.921 370.187 122.203Z" fill="white"/>
<path d="M361.871 155.099H361.647C361.222 155.082 360.81 154.991 360.453 154.835C360.096 154.68 359.805 154.466 359.609 154.213C359.331 153.784 359.212 153.316 359.262 152.849C359.371 150.308 359.746 147.776 360.383 145.27L355.879 151.541C355.359 152.425 354.543 153.218 353.494 153.858C352.854 154.234 352.043 154.454 351.192 154.484C350.342 154.513 349.501 154.351 348.806 154.022C348.31 153.69 347.925 153.29 347.679 152.851C347.433 152.411 347.331 151.941 347.379 151.473C347.327 149.824 347.511 148.176 347.93 146.551C346.951 147.914 345.891 149.141 344.75 150.382C343.977 151.435 342.758 152.312 341.244 152.904C340.718 153.076 340.145 153.175 339.561 153.196C338.976 153.217 338.391 153.159 337.84 153.027C337.426 152.93 337.045 152.779 336.719 152.583C336.393 152.386 336.13 152.148 335.945 151.882C335.604 151.242 335.554 150.549 335.802 149.891C336.047 148.882 336.352 147.874 336.699 146.878C335.875 147.486 334.806 147.922 333.621 148.133C333.167 148.203 332.696 148.207 332.239 148.146C331.782 148.085 331.35 147.96 330.971 147.778C329.789 147.233 328.668 146.006 330.054 143.293C332.609 138.333 335.667 133.496 339.206 128.815C340.839 126.277 343.321 124.024 346.462 122.23C351.945 119.504 359.792 119.299 370.513 121.63C379.176 123.512 378.3 126.416 376.18 130.996C374.508 134.595 373.102 138.344 371.736 141.902C371.023 143.756 370.33 145.61 369.698 147.451C369.04 149.623 367.782 151.694 365.988 153.558C365.52 154.006 364.906 154.377 364.193 154.644C363.48 154.911 362.687 155.066 361.871 155.099ZM363.074 139.408C363.182 139.395 363.292 139.395 363.4 139.408C363.617 139.463 363.796 139.57 363.901 139.709C364.007 139.847 364.031 140.007 363.971 140.157C362.221 144.286 361.256 148.546 361.097 152.836C361.046 153.089 361.088 153.346 361.219 153.586C361.269 153.655 361.347 153.714 361.444 153.755C361.542 153.796 361.654 153.817 361.769 153.817C362.276 153.783 362.766 153.678 363.209 153.509C363.651 153.339 364.036 153.11 364.338 152.836C365.992 151.098 367.153 149.171 367.762 147.151C368.496 145.311 369.189 143.456 369.8 141.616C371.166 137.976 372.592 134.2 374.284 130.574C376.322 126.157 376.873 124.302 369.8 122.762C359.731 120.567 352.414 120.703 347.379 123.171C344.471 124.851 342.176 126.954 340.673 129.319C337.162 133.95 334.131 138.738 331.603 143.647C331.155 144.533 330.584 146.115 331.827 146.701C332.004 146.783 332.204 146.838 332.415 146.864C332.626 146.89 332.842 146.886 333.05 146.851C334.478 146.497 335.665 145.809 336.393 144.915C337.045 144.22 337.657 143.552 338.207 142.761C339.192 140.769 340.363 138.82 341.713 136.926C341.818 136.786 341.997 136.677 342.215 136.619C342.433 136.562 342.675 136.559 342.895 136.613C343.113 136.671 343.29 136.782 343.392 136.923C343.494 137.064 343.513 137.226 343.445 137.376C342.55 139.399 341.376 141.361 339.94 143.238C338.857 145.467 338.019 147.745 337.433 150.055C337.258 150.474 337.258 150.917 337.433 151.336C337.606 151.563 337.907 151.734 338.268 151.813C338.591 151.905 338.937 151.952 339.287 151.952C339.638 151.952 339.984 151.905 340.306 151.813C341.485 151.316 342.432 150.608 343.038 149.768C346.351 146.082 349.051 142.164 351.089 138.085C351.184 137.945 351.353 137.833 351.563 137.771C351.774 137.709 352.011 137.7 352.23 137.747C352.449 137.795 352.634 137.894 352.751 138.027C352.867 138.159 352.907 138.316 352.862 138.467C350.926 142.679 348.928 147.028 349.132 151.459C349.085 151.748 349.126 152.041 349.252 152.32C349.378 152.599 349.587 152.858 349.866 153.081C350.236 153.218 350.66 153.274 351.08 153.242C351.5 153.211 351.895 153.092 352.21 152.904C353.029 152.379 353.669 151.742 354.085 151.036L362.238 139.803C362.3 139.688 362.414 139.588 362.563 139.518C362.713 139.447 362.891 139.409 363.074 139.408Z" fill="#231F20"/>
</g>
<defs>
<filter id="filter0_d_37_1278" x="0" y="0" width="472.837" height="343.691" filterUnits="userSpaceOnUse" color-interpolation-filters="sRGB">
<feFlood flood-opacity="0" result="BackgroundImageFix"/>
<feColorMatrix in="SourceAlpha" type="matrix" values="0 0 0 0 0 0 0 0 0 0 0 0 0 0 0 0 0 0 127 0" result="hardAlpha"/>
<feOffset dx="15" dy="15"/>
<feGaussianBlur stdDeviation="2"/>
<feComposite in2="hardAlpha" operator="out"/>
<feColorMatrix type="matrix" values="0 0 0 0 0 0 0 0 0 0 0 0 0 0 0 0 0 0 0.25 0"/>
<feBlend mode="normal" in2="BackgroundImageFix" result="effect1_dropShadow_37_1278"/>
<feBlend mode="normal" in="SourceGraphic" in2="effect1_dropShadow_37_1278" result="shape"/>
</filter>
<linearGradient id="paint0_linear_37_1278" x1="1" y1="196" x2="453" y2="198" gradientUnits="userSpaceOnUse">
<stop stop-color="#AE67FA"/>
<stop offset="1" stop-color="#F49867"/>
</linearGradient>
</defs>
</svg>
