<svg width="233" height="224" viewBox="0 0 233 224" fill="none" xmlns="http://www.w3.org/2000/svg">
<path d="M201.719 43.1394C201.719 43.1394 200.253 38.9856 197.844 33.1995C197.844 33.1995 186.759 39.924 186.903 39.4892C187.046 39.0543 201.719 43.1394 201.719 43.1394Z" fill="#231F20"/>
<path d="M201.66 43.5945L201.601 43.5867C196.424 42.1414 187.945 39.894 187.003 39.9096C186.734 39.9855 186.673 39.9221 186.596 39.8564C186.528 39.7952 186.479 39.7132 186.455 39.621C186.432 39.5287 186.435 39.4306 186.465 39.3394C186.482 39.2119 186.549 39.0912 186.839 39.055C187.456 38.8858 193.77 35.1292 197.611 32.7989C197.663 32.7671 197.72 32.7472 197.779 32.7406C197.838 32.7339 197.897 32.7406 197.953 32.7602C198.009 32.7777 198.06 32.8079 198.104 32.8488C198.148 32.8896 198.183 32.9402 198.206 32.997C200.63 38.7387 202.083 42.9278 202.13 42.9709C202.162 43.0473 202.173 43.1321 202.162 43.2158C202.151 43.2995 202.118 43.3787 202.068 43.4442C202.017 43.5052 201.953 43.5512 201.882 43.5776C201.81 43.604 201.734 43.6098 201.66 43.5945ZM188.428 39.2351C190.263 39.5861 193.862 40.4919 200.987 42.4698C200.461 41.0216 199.264 37.838 197.579 33.8406C192.574 36.889 189.902 38.4558 188.454 39.2384L188.428 39.2351Z" fill="#231F20"/>
<path d="M47.6593 188.093L43.8267 178.483L51.6257 172.671L47.6593 188.093Z" fill="#231F20"/>
<path d="M47.5996 188.548C47.5267 188.538 47.4576 188.509 47.3988 188.462C47.34 188.416 47.2935 188.354 47.2635 188.282L43.4308 178.672C43.3925 178.574 43.3874 178.465 43.4166 178.362C43.4458 178.259 43.5073 178.17 43.5906 178.11L51.3897 172.298C51.4626 172.244 51.5489 172.215 51.6369 172.214C51.7249 172.214 51.8103 172.243 51.8814 172.297C51.9514 172.352 52.004 172.428 52.0325 172.516C52.061 172.604 52.064 172.7 52.0412 172.79L48.0784 188.185C48.0551 188.279 48.0048 188.363 47.9347 188.426C47.8646 188.488 47.7782 188.525 47.688 188.532L47.5996 188.548ZM44.3574 178.645L47.5736 186.703L50.9049 173.762L44.3574 178.645Z" fill="#231F20"/>
<path d="M50.6647 190.375L129.625 213.226C131.247 213.673 132.975 213.485 134.5 212.696C136.026 211.907 137.249 210.568 137.952 208.918L201.526 46.9929C202.828 43.6362 201.165 40.3177 197.787 39.5703L116.568 21.719C114.954 21.422 113.284 21.7151 111.825 22.5515C110.366 23.3878 109.202 24.7189 108.52 26.3319L47.3494 182.943C47.0435 183.668 46.8878 184.452 46.8932 185.242C46.8985 186.031 47.0649 186.807 47.3806 187.515C47.6963 188.222 48.1537 188.845 48.7209 189.339C49.2881 189.833 49.9515 190.186 50.6647 190.375Z" fill="#231F20"/>
<path d="M130.443 213.898C130.117 213.853 129.794 213.786 129.477 213.697L50.518 190.837C49.7522 190.632 49.0395 190.253 48.4285 189.724C47.8174 189.195 47.3222 188.53 46.9765 187.773C46.6359 186.997 46.4558 186.148 46.4481 185.285C46.4405 184.422 46.6056 183.564 46.9323 182.768L108.1 26.1843C108.821 24.4706 110.054 23.0549 111.602 22.1632C113.149 21.2715 114.921 20.9553 116.636 21.265L197.855 39.1163C198.689 39.2735 199.476 39.6273 200.161 40.1522C200.845 40.6771 201.41 41.3601 201.814 42.1521C202.173 42.9217 202.368 43.7702 202.383 44.6365C202.398 45.5028 202.233 46.3654 201.901 47.1622L138.306 209.112C137.632 210.697 136.504 212.017 135.088 212.879C133.673 213.74 132.044 214.097 130.443 213.898ZM50.763 189.953L129.722 212.813C131.238 213.221 132.85 213.038 134.272 212.297C135.693 211.556 136.833 210.305 137.489 208.765L201.104 46.8544C201.39 46.1822 201.533 45.4529 201.523 44.7196C201.513 43.9863 201.35 43.2677 201.046 42.6163C200.702 41.9414 200.219 41.3602 199.634 40.9153C199.049 40.4704 198.376 40.173 197.664 40.0449L116.449 22.1662C114.933 21.8804 113.362 22.1531 111.991 22.9399C110.62 23.7268 109.529 24.9817 108.895 26.5012L47.7495 183.116C47.4685 183.79 47.3251 184.519 47.3289 185.252C47.3327 185.986 47.4836 186.707 47.7714 187.367C48.0677 188.007 48.4894 188.568 49.0083 189.015C49.5272 189.461 50.1313 189.781 50.78 189.955L50.763 189.953Z" fill="#231F20"/>
<path d="M46.6193 180.478L125.58 203.329C127.202 203.78 128.931 203.593 130.457 202.804C131.984 202.014 133.207 200.673 133.907 199.021L197.464 37.0934C198.765 33.7366 197.103 30.4181 193.725 29.6708L112.506 11.8194C110.892 11.5225 109.222 11.8156 107.763 12.6519C106.304 13.4882 105.14 14.8194 104.458 16.4324L43.3161 173.019C43.0057 173.744 42.8461 174.531 42.8485 175.323C42.8509 176.115 43.0153 176.894 43.3301 177.604C43.6449 178.315 44.1024 178.941 44.6707 179.437C45.2389 179.933 45.904 180.288 46.6193 180.478Z" fill="url(#paint0_linear_95_647)"/>
<path d="M126.4 203.982C126.077 203.938 125.757 203.872 125.443 203.783L46.4836 180.923C45.719 180.718 45.0077 180.338 44.398 179.81C43.7883 179.281 43.2947 178.616 42.9507 177.859C42.6079 177.084 42.4265 176.236 42.4189 175.372C42.4113 174.509 42.5776 173.65 42.9065 172.855L104.065 16.2699C104.786 14.557 106.019 13.1426 107.567 12.2538C109.114 11.365 110.887 11.0533 112.599 11.3688L193.818 29.2202C194.645 29.3805 195.424 29.7354 196.102 30.2592C196.779 30.7831 197.337 31.4631 197.735 32.2503C198.098 33.0186 198.295 33.8675 198.31 34.7346C198.325 35.6016 198.158 36.4648 197.822 37.2605L134.248 199.186C133.573 200.768 132.448 202.086 131.036 202.949C129.625 203.812 128 204.174 126.4 203.982ZM111.948 12.1909C110.491 12.0289 109.015 12.369 107.734 13.1619C106.453 13.9548 105.434 15.1592 104.824 16.6006L43.7079 173.191C43.4303 173.867 43.2894 174.596 43.2946 175.329C43.2999 176.063 43.4511 176.784 43.7382 177.444C44.0328 178.083 44.453 178.644 44.9705 179.09C45.488 179.536 46.0908 179.857 46.7384 180.03L125.698 202.89C127.219 203.307 128.839 203.129 130.269 202.389C131.699 201.648 132.846 200.394 133.507 198.848L197.054 36.9287C197.338 36.2559 197.48 35.5269 197.469 34.794C197.459 34.0612 197.298 33.3428 196.996 32.6906C196.65 32.017 196.167 31.4368 195.582 30.9921C194.997 30.5474 194.325 30.2492 193.614 30.1192L112.395 12.2679L111.948 12.1909Z" fill="#231F20"/>
<path d="M80.0438 183.858L95.4572 188.29C96.4376 188.55 97.4787 188.427 98.395 187.944C99.3114 187.46 100.043 186.647 100.461 185.649L102.852 179.565C103.045 179.104 103.142 178.606 103.136 178.105C103.129 177.603 103.019 177.112 102.814 176.665C102.609 176.219 102.313 175.828 101.949 175.52C101.584 175.213 101.159 174.996 100.704 174.887L85.2626 170.535C84.2875 170.287 83.2558 170.416 82.3486 170.9C81.4414 171.384 80.7166 172.192 80.3015 173.181L77.9426 179.214C77.7501 179.669 77.6527 180.161 77.6572 180.657C77.6616 181.153 77.7678 181.64 77.9683 182.083C78.1688 182.526 78.4586 182.915 78.8173 183.221C79.176 183.528 79.5947 183.746 80.0438 183.858Z" fill="white"/>
<path d="M95.914 188.887C95.7177 188.864 95.5239 188.823 95.3348 188.765L79.9202 184.342C79.4125 184.212 78.9395 183.964 78.5343 183.616C78.1291 183.267 77.8016 182.827 77.5746 182.326C77.3477 181.824 77.2268 181.274 77.2204 180.713C77.214 180.152 77.3223 179.594 77.5377 179.078L79.8966 173.045C80.3515 171.954 81.1492 171.063 82.1486 170.53C83.148 169.996 84.285 169.855 85.3586 170.131L100.809 174.475C101.324 174.61 101.804 174.862 102.216 175.214C102.629 175.567 102.964 176.012 103.199 176.518C103.421 177.023 103.539 177.574 103.544 178.135C103.549 178.696 103.443 179.254 103.231 179.772L100.86 185.831C100.441 186.835 99.7346 187.674 98.844 188.225C97.9533 188.775 96.926 189.007 95.914 188.887ZM84.6858 170.922C83.8704 170.825 83.0427 171.012 82.3248 171.455C81.6069 171.897 81.0366 172.573 80.698 173.381L78.3596 179.389C78.1932 179.784 78.1092 180.212 78.1135 180.643C78.1178 181.073 78.2104 181.496 78.3846 181.881C78.5589 182.265 78.8106 182.603 79.1221 182.869C79.4335 183.136 79.797 183.325 80.187 183.423L95.5931 187.845C96.4738 188.081 97.41 187.973 98.2346 187.54C99.0591 187.107 99.7184 186.377 100.095 185.481L102.478 179.396C102.644 178.999 102.728 178.569 102.725 178.138C102.722 177.706 102.631 177.281 102.46 176.894C102.277 176.504 102.017 176.163 101.698 175.893C101.38 175.622 101.009 175.43 100.611 175.328L85.1692 170.985C85.0129 170.937 84.8527 170.904 84.6905 170.886L84.6858 170.922Z" fill="#231F20"/>
<path d="M164.652 32.5896L140.907 27.2903C140.852 27.2783 140.8 27.2547 140.754 27.2209C140.708 27.1871 140.668 27.1437 140.638 27.0934C140.608 27.043 140.587 26.9865 140.577 26.9273C140.568 26.868 140.569 26.807 140.581 26.7478C140.594 26.6886 140.617 26.6324 140.649 26.5824C140.681 26.5323 140.723 26.4894 140.77 26.4561C140.818 26.4228 140.871 26.3997 140.926 26.3882C140.982 26.3767 141.039 26.377 141.094 26.389L164.84 31.6792C164.953 31.6939 165.054 31.7559 165.123 31.8517C165.191 31.9474 165.221 32.069 165.205 32.1897C165.189 32.3104 165.129 32.4203 165.038 32.4952C164.948 32.5702 164.834 32.604 164.721 32.5893L164.652 32.5896Z" fill="#D1D3D4"/>
<path d="M137.613 26.554L137.571 26.5484L134.427 25.8504C134.316 25.826 134.219 25.7552 134.158 25.6534C134.097 25.5517 134.077 25.4274 134.101 25.3079C134.126 25.1884 134.194 25.0834 134.29 25.0161C134.386 24.9489 134.503 24.9247 134.614 24.9491L137.765 25.6574C137.877 25.6721 137.979 25.7341 138.047 25.8299C138.116 25.9256 138.145 26.0472 138.129 26.1679C138.114 26.2886 138.054 26.3985 137.963 26.4735C137.872 26.5484 137.758 26.5822 137.646 26.5675L137.613 26.554Z" fill="#D1D3D4"/>
<path d="M187.396 46.9965L137.584 176.646L55.1047 154.973L104.737 28.2162L187.396 46.9965Z" fill="url(#paint1_linear_95_647)"/>
<path d="M137.524 177.101L137.482 177.095L54.9956 155.412C54.9366 155.399 54.8816 155.371 54.8345 155.331C54.7875 155.291 54.7496 155.24 54.7237 155.182C54.6965 155.124 54.6815 155.06 54.6797 154.994C54.6778 154.928 54.6893 154.862 54.7132 154.801L104.346 28.0447C104.385 27.9439 104.456 27.8606 104.546 27.8097C104.637 27.7588 104.74 27.7436 104.839 27.7667L187.489 46.5458C187.55 46.5613 187.607 46.5898 187.657 46.6297C187.706 46.6696 187.748 46.7201 187.778 46.778C187.805 46.8381 187.82 46.904 187.822 46.9712C187.823 47.0384 187.812 47.1055 187.788 47.168L137.986 176.8C137.952 176.898 137.887 176.982 137.803 177.037C137.719 177.091 137.621 177.114 137.524 177.101ZM55.7157 154.655L137.36 176.116L186.808 47.3362L104.961 28.7454L55.7157 154.655Z" fill="#231F20"/>
<path d="M161.744 59.3141L121.09 49.8041C120.588 49.7043 120.115 49.4848 119.707 49.1618C119.298 48.8389 118.964 48.4206 118.73 47.9377C118.495 47.4549 118.365 46.9199 118.35 46.372C118.335 45.8242 118.435 45.2775 118.643 44.7721C119.121 43.646 119.94 42.7202 120.965 42.1462C121.989 41.5723 123.159 41.3841 124.283 41.6125L164.954 50.9952C165.474 51.0832 165.967 51.2974 166.394 51.6216C166.822 51.9458 167.173 52.3714 167.421 52.8661C167.669 53.3609 167.807 53.9116 167.826 54.4766C167.844 55.0416 167.741 55.606 167.526 56.1268C167.036 57.2792 166.195 58.2241 165.142 58.8041C164.09 59.3841 162.891 59.5641 161.744 59.3141Z" fill="white"/>
<path d="M177.963 63.5829L169.279 61.5215C169.219 61.5077 169.163 61.4799 169.114 61.4399C169.066 61.4 169.026 61.3489 168.999 61.2904C168.97 61.2325 168.953 61.1683 168.95 61.1024C168.947 61.0365 168.957 60.9703 168.98 60.9084L171.968 53.1622C172.007 53.0614 172.079 52.9781 172.169 52.9272C172.259 52.8763 172.363 52.8611 172.462 52.8842L181.145 54.8899C181.206 54.9038 181.264 54.9317 181.313 54.9718C181.363 55.0118 181.404 55.0631 181.434 55.1221C181.461 55.1805 181.476 55.2448 181.478 55.3106C181.479 55.3763 181.468 55.4419 181.444 55.503L178.461 63.2776C178.426 63.3842 178.356 63.4741 178.264 63.5303C178.173 63.5866 178.066 63.6053 177.963 63.5829ZM169.93 60.7642L177.773 62.5953L180.402 55.6907L172.556 53.8778L169.93 60.7642Z" fill="white"/>
<path d="M176.151 59.8283C176.077 59.8181 176.008 59.7874 175.949 59.7391C175.89 59.6908 175.844 59.6266 175.816 59.553L174.776 56.9546C172.949 57.7339 170.975 58.5774 170.654 58.7945C170.592 58.8581 170.515 58.9018 170.431 58.9204C170.348 58.939 170.262 58.9318 170.183 58.8996C170.079 58.8536 169.998 58.7654 169.956 58.6541C169.914 58.5429 169.915 58.4177 169.958 58.3056C170.039 58.0847 170.114 57.9093 174.866 55.9388C174.969 55.898 175.082 55.9008 175.182 55.9466C175.282 55.9923 175.361 56.0776 175.403 56.1849L176.606 59.1842C176.65 59.2959 176.65 59.422 176.608 59.5357C176.566 59.6495 176.484 59.7419 176.38 59.7934C176.307 59.8237 176.229 59.8356 176.151 59.8283Z" fill="white"/>
<path d="M179.464 59.6967C179.402 59.6905 179.343 59.6696 179.291 59.6355C179.239 59.6015 179.195 59.5551 179.162 59.4998L178.035 57.6954L176.002 58.7904C175.9 58.8458 175.782 58.8559 175.675 58.8184C175.567 58.7809 175.479 58.6989 175.429 58.5905C175.379 58.4821 175.372 58.3561 175.409 58.2403C175.446 58.1244 175.524 58.0283 175.626 57.9729L177.994 56.6903C178.088 56.641 178.196 56.6296 178.297 56.6581C178.398 56.6865 178.485 56.753 178.543 56.8454L179.876 58.9823C179.943 59.0791 179.972 59.2007 179.956 59.3214C179.94 59.442 179.881 59.5521 179.792 59.6285C179.693 59.6939 179.576 59.7182 179.464 59.6967Z" fill="#D1D3D4"/>
<path d="M108.001 70.7354C107.404 72.1529 106.374 73.3173 105.085 74.0346C103.795 74.7519 102.322 74.9789 100.912 74.6776C100.275 74.553 99.6749 74.2741 99.158 73.8619C98.641 73.4498 98.2206 72.9153 97.9287 72.299C97.6369 71.6827 97.4812 71.0007 97.4735 70.3049C97.4657 69.609 97.6062 68.9176 97.8842 68.2829C98.48 66.8702 99.5051 65.7089 100.79 64.9914C102.074 64.2739 103.541 64.0431 104.947 64.3374C105.588 64.4583 106.191 64.7348 106.711 65.1456C107.232 65.5565 107.655 66.0909 107.95 66.7081C108.245 67.3253 108.402 68.009 108.411 68.7069C108.42 69.4049 108.28 70.0987 108.001 70.7354Z" fill="white"/>
<path d="M90.6668 115.161C90.0779 116.582 89.0487 117.747 87.7562 118.457C86.4637 119.166 84.9888 119.376 83.5852 119.049C82.9471 118.902 82.3503 118.603 81.8382 118.175C81.3261 117.747 80.9117 117.2 80.625 116.575C80.3383 115.95 80.1865 115.261 80.1808 114.56C80.175 113.859 80.3154 113.162 80.5918 112.52C81.1784 111.102 82.2045 109.938 83.4938 109.228C84.7831 108.518 86.2549 108.307 87.6564 108.63C88.2972 108.774 88.8972 109.07 89.4124 109.497C89.9275 109.924 90.3448 110.47 90.6335 111.097C90.9222 111.723 91.075 112.413 91.0808 113.117C91.0866 113.82 90.9451 114.519 90.6668 115.161Z" fill="white"/>
<path d="M83.0194 134.786C82.4338 136.209 81.4031 137.376 80.1076 138.081C78.812 138.787 77.3343 138.987 75.9329 138.646C75.2929 138.491 74.6954 138.187 74.1834 137.753C73.6714 137.32 73.2577 136.768 72.9721 136.138C72.6865 135.509 72.536 134.816 72.5316 134.112C72.5272 133.407 72.6689 132.707 72.9466 132.062C73.5307 130.644 74.5571 129.481 75.8472 128.775C77.1373 128.069 78.6094 127.866 80.0076 128.199C80.6495 128.352 81.2492 128.655 81.7636 129.088C82.278 129.52 82.6942 130.072 82.9823 130.702C83.2704 131.332 83.4231 132.025 83.4295 132.731C83.4359 133.438 83.2958 134.139 83.0194 134.786Z" fill="white"/>
<path d="M147.798 77.8283L113.354 69.51C113.299 69.497 113.247 69.4724 113.202 69.4376C113.156 69.4029 113.117 69.3586 113.088 69.3074C113.058 69.2562 113.039 69.1991 113.03 69.1394C113.022 69.0797 113.025 69.0185 113.038 68.9595C113.067 68.8418 113.137 68.7402 113.234 68.6766C113.331 68.613 113.447 68.5926 113.557 68.62L148.002 76.9292C148.113 76.95 148.212 77.0175 148.276 77.117C148.34 77.2165 148.364 77.3398 148.342 77.4598C148.321 77.5797 148.256 77.6865 148.162 77.7567C148.068 77.8268 147.952 77.8546 147.84 77.8338L147.798 77.8283Z" fill="white"/>
<path d="M124.001 78.0674L123.951 78.0607L111.193 74.9575C111.138 74.9445 111.086 74.9199 111.04 74.8851C110.994 74.8504 110.956 74.8061 110.926 74.7549C110.897 74.7037 110.877 74.6466 110.869 74.5869C110.86 74.5272 110.863 74.466 110.877 74.407C110.905 74.2887 110.975 74.1861 111.073 74.121C111.17 74.056 111.286 74.0335 111.397 74.0584L124.162 77.1719C124.274 77.1866 124.376 77.2487 124.444 77.3444C124.512 77.4401 124.542 77.5617 124.526 77.6824C124.51 77.8031 124.451 77.913 124.36 77.988C124.269 78.0629 124.155 78.0968 124.043 78.082L124.001 78.0674Z" fill="white"/>
<path d="M158.508 94.2162L96.7873 78.9796C96.7322 78.9666 96.6803 78.942 96.6346 78.9073C96.5888 78.8725 96.5501 78.8283 96.5207 78.7771C96.4913 78.7259 96.4718 78.6688 96.4633 78.609C96.4548 78.5493 96.4574 78.4882 96.4711 78.4291C96.4995 78.3115 96.5699 78.2098 96.6671 78.1462C96.7643 78.0826 96.8803 78.0623 96.9899 78.0897L158.71 93.3263C158.82 93.3546 158.914 93.4282 158.971 93.5311C159.029 93.634 159.046 93.7578 159.018 93.8757C159.005 93.9337 158.982 93.9885 158.949 94.0371C158.916 94.0857 158.875 94.127 158.827 94.1587C158.78 94.1904 158.727 94.2118 158.672 94.2216C158.618 94.2315 158.562 94.2297 158.508 94.2162Z" fill="white"/>
<path d="M150.704 99.4072L150.661 99.4016L94.2582 85.3233C94.1488 85.295 94.0551 85.2214 93.9975 85.1185C93.9398 85.0156 93.9229 84.8917 93.9505 84.7739C93.979 84.6556 94.0493 84.553 94.1464 84.4879C94.2434 84.4228 94.3597 84.4004 94.4705 84.4253L150.864 98.5117C150.976 98.5264 151.078 98.5884 151.146 98.6842C151.215 98.7799 151.244 98.9015 151.228 99.0222C151.213 99.1429 151.153 99.2528 151.062 99.3277C150.971 99.4027 150.857 99.4365 150.745 99.4218L150.704 99.4072Z" fill="white"/>
<path d="M133.95 159.711C133.689 159.677 133.431 159.624 133.176 159.555L69.7902 142.082C69.1078 141.911 68.471 141.583 67.9239 141.119C67.3767 140.656 66.9324 140.069 66.6215 139.4C66.3151 138.713 66.1528 137.96 66.1458 137.193C66.1388 136.427 66.2873 135.665 66.581 134.96L94.9795 62.395C95.6093 60.9063 96.6897 59.6822 98.043 58.9238C99.3963 58.1654 100.942 57.9178 102.426 58.2219L166.196 73.421C166.925 73.573 167.611 73.8951 168.205 74.3648C168.8 74.8345 169.288 75.4401 169.636 76.1389C169.952 76.8128 170.124 77.5553 170.141 78.3141C170.158 79.0729 170.02 79.8295 169.735 80.5304L140.959 155.453C140.358 156.866 139.352 158.042 138.09 158.809C136.828 159.575 135.376 159.892 133.95 159.711ZM133.405 158.668C134.732 159.012 136.139 158.84 137.376 158.181C138.613 157.523 139.601 156.421 140.163 155.071L168.933 80.1942C169.171 79.6161 169.288 78.9914 169.276 78.3644C169.264 77.7374 169.124 77.1233 168.864 76.5657C168.567 75.9914 168.157 75.495 167.661 75.1105C167.164 74.726 166.594 74.4626 165.99 74.3383L102.21 59.1471C100.923 58.8821 99.5822 59.096 98.408 59.7534C97.2339 60.4109 96.2967 61.4728 95.7506 62.7643L67.3437 135.328C67.0973 135.916 66.9719 136.552 66.9761 137.192C66.9803 137.831 67.114 138.46 67.368 139.034C67.6276 139.584 67.9962 140.064 68.4485 140.443C68.9007 140.822 69.4259 141.09 69.9881 141.228L133.405 158.668Z" fill="white"/>
<path d="M158.627 108.543L158.576 108.537L84.7498 89.8933C84.6404 89.865 84.5467 89.7914 84.489 89.6885C84.4314 89.5856 84.4145 89.4617 84.442 89.3439C84.4706 89.2256 84.5408 89.123 84.6379 89.0579C84.735 88.9928 84.8513 88.9704 84.9621 88.9953L158.787 107.648C158.842 107.661 158.894 107.685 158.94 107.72C158.985 107.755 159.024 107.799 159.054 107.85C159.083 107.902 159.103 107.959 159.111 108.018C159.12 108.078 159.117 108.139 159.103 108.198C159.075 108.307 159.011 108.401 158.923 108.464C158.836 108.528 158.731 108.556 158.627 108.543Z" fill="white"/>
<path d="M153.971 120.663L153.92 120.656L80.1488 101.659C80.038 101.631 79.943 101.557 79.8846 101.453C79.8262 101.349 79.8093 101.224 79.8374 101.105C79.8656 100.986 79.9366 100.882 80.0348 100.818C80.133 100.754 80.2504 100.733 80.3611 100.761L154.129 119.786C154.24 119.807 154.339 119.874 154.403 119.974C154.467 120.073 154.491 120.196 154.469 120.316C154.448 120.436 154.383 120.543 154.289 120.613C154.195 120.683 154.079 120.711 153.967 120.69L153.971 120.663Z" fill="white"/>
<path d="M89.8282 101.916L89.7858 101.91L88.6153 101.693C88.5003 101.67 88.3914 101.622 88.2952 101.552C88.199 101.482 88.1175 101.392 88.056 101.286C88.0005 101.178 87.9664 101.058 87.956 100.934C87.9455 100.81 87.9587 100.685 87.995 100.565L89.1063 97.1467C89.187 96.9232 89.3366 96.7349 89.53 96.6135C89.7234 96.4921 89.9488 96.445 90.1682 96.4802L91.3399 96.6889C91.4549 96.7116 91.5638 96.7593 91.66 96.8292C91.7562 96.8991 91.8377 96.9897 91.8992 97.0953C91.9547 97.2038 91.9887 97.3237 91.9992 97.4477C92.0097 97.5716 91.9965 97.697 91.9602 97.8161L90.8489 101.235C90.7749 101.455 90.6333 101.642 90.4476 101.766C90.2619 101.89 90.0433 101.943 89.8282 101.916ZM90.0068 97.3848C90.0068 97.3848 89.9219 97.3737 89.9136 97.4374L88.8108 100.857L89.9473 101.006C89.9659 101.011 89.9858 101.009 90.0031 100.999C90.0204 100.989 90.0337 100.973 90.0404 100.953L91.1529 97.5254L90.0068 97.3848Z" fill="white"/>
<path d="M96.2966 103.114L91.3103 102.193C91.2496 102.18 91.1923 102.154 91.1423 102.115C91.0923 102.077 91.0507 102.027 91.0203 101.97C90.99 101.914 90.9717 101.852 90.9667 101.787C90.9618 101.723 90.9703 101.657 90.9916 101.596L92.1377 98.043C92.1679 97.9592 92.2194 97.8857 92.2862 97.831C92.812 97.3721 93.3885 96.7902 93.9491 96.197C95.4802 94.6476 96.3866 93.7849 97.0862 94.1079C97.1849 94.1511 97.2725 94.2185 97.3421 94.3047C97.4117 94.3909 97.4613 94.4935 97.4871 94.6046C97.6448 95.2455 97.02 96.395 96.4999 97.2064C97.2211 97.3095 97.9196 97.5385 98.5678 97.8841C98.8432 98.0868 99.4717 98.5578 96.7383 102.903C96.6928 102.982 96.6261 103.044 96.5471 103.082C96.4682 103.12 96.3807 103.131 96.2966 103.114ZM91.9382 101.349L96.149 102.132C96.8872 101.028 97.488 99.8269 97.9359 98.5606C97.201 98.2736 96.4367 98.0774 95.6574 97.9756C95.5829 97.9673 95.5122 97.9373 95.4532 97.8888C95.3941 97.8403 95.3489 97.7751 95.3225 97.7004C95.294 97.628 95.2843 97.5484 95.2946 97.47C95.3049 97.3915 95.3346 97.317 95.3808 97.2544C95.9028 96.5607 96.319 95.7837 96.6134 94.9532C95.842 95.4893 95.1311 96.1204 94.4956 96.8332C93.9676 97.3751 93.4117 97.9319 92.8847 98.3999L91.9382 101.349Z" fill="white"/>
<path d="M132.744 152.046L88.9739 140.11C88.5996 140.02 88.25 139.842 87.9502 139.589C87.6505 139.336 87.408 139.014 87.2401 138.646C87.0722 138.278 86.9831 137.873 86.9791 137.461C86.9752 137.049 87.0565 136.639 87.2172 136.261C87.5599 135.433 88.1615 134.755 88.9168 134.346C89.6721 133.937 90.5329 133.823 91.3484 134.024L135.129 145.878C135.517 145.965 135.88 146.144 136.192 146.4C136.505 146.657 136.759 146.986 136.937 147.364C137.114 147.741 137.211 148.157 137.219 148.583C137.227 149.008 137.147 149.432 136.985 149.823C136.623 150.661 136.001 151.343 135.226 151.749C134.451 152.155 133.573 152.26 132.744 152.046Z" fill="white"/>
<path d="M126.065 132.01L97.9447 124.547C97.2344 124.39 96.5687 124.065 95.9962 123.595C95.4237 123.125 94.959 122.522 94.636 121.831C94.313 121.139 94.1399 120.376 94.1294 119.597C94.1189 118.818 94.2713 118.043 94.5754 117.33L95.3797 115.269C96.0321 113.704 97.1686 112.421 98.5944 111.639C100.02 110.858 101.646 110.627 103.194 110.986L131.344 118.287C132.067 118.443 132.746 118.769 133.331 119.243C133.916 119.717 134.392 120.326 134.726 121.027C135.06 121.727 135.242 122.501 135.26 123.293C135.278 124.084 135.131 124.873 134.83 125.603L134.021 127.7C133.356 129.29 132.197 130.592 130.744 131.379C129.291 132.166 127.636 132.389 126.065 132.01Z" fill="white"/>
<path d="M134.515 147.538L134.855 146.657L131.523 145.749L131.192 146.631L130.534 146.453L129.239 149.755L133.913 151.023L135.208 147.712L134.515 147.538ZM131.978 149.326C131.85 149.302 131.729 149.246 131.625 149.164C131.521 149.081 131.436 148.974 131.377 148.85C131.318 148.726 131.287 148.589 131.286 148.449C131.285 148.309 131.313 148.17 131.369 148.043C131.487 147.766 131.69 147.54 131.944 147.404C132.198 147.269 132.487 147.231 132.761 147.299C132.89 147.323 133.012 147.379 133.117 147.462C133.222 147.545 133.307 147.654 133.366 147.779C133.424 147.904 133.455 148.042 133.456 148.183C133.456 148.324 133.426 148.464 133.368 148.591C133.252 148.869 133.049 149.095 132.794 149.229C132.54 149.364 132.251 149.398 131.978 149.326Z" fill="white"/>
<path d="M100.55 129.034L100.473 129.024L92.9712 127.025C92.8614 126.994 92.7679 126.919 92.7107 126.815C92.6534 126.71 92.6369 126.585 92.6647 126.467C92.6971 126.35 92.7697 126.25 92.8677 126.187C92.9656 126.124 93.0816 126.103 93.192 126.128L100.694 128.128C100.806 128.15 100.904 128.218 100.967 128.318C101.03 128.419 101.052 128.542 101.03 128.662C101.007 128.782 100.941 128.888 100.846 128.957C100.752 129.026 100.636 129.053 100.524 129.031L100.55 129.034Z" fill="white"/>
<path d="M111.01 131.828L110.959 131.821L103.408 129.806C103.354 129.792 103.303 129.767 103.259 129.732C103.215 129.697 103.177 129.652 103.15 129.601C103.122 129.55 103.104 129.494 103.097 129.435C103.09 129.376 103.094 129.316 103.108 129.258C103.121 129.199 103.145 129.143 103.179 129.094C103.212 129.045 103.254 129.003 103.303 128.972C103.351 128.94 103.405 128.919 103.46 128.91C103.516 128.901 103.573 128.904 103.627 128.919L111.179 130.934C111.234 130.948 111.286 130.973 111.331 131.009C111.376 131.045 111.414 131.09 111.443 131.142C111.471 131.194 111.49 131.252 111.497 131.312C111.504 131.372 111.5 131.433 111.486 131.492C111.455 131.599 111.391 131.691 111.304 131.752C111.217 131.814 111.113 131.841 111.01 131.828Z" fill="white"/>
<path d="M129.776 123.748L129.726 123.741L101.992 116.485C101.883 116.455 101.789 116.379 101.732 116.275C101.675 116.171 101.658 116.046 101.686 115.927C101.716 115.809 101.789 115.707 101.887 115.644C101.986 115.581 102.103 115.561 102.213 115.588L129.946 122.844C130.058 122.866 130.156 122.935 130.219 123.035C130.282 123.135 130.304 123.259 130.282 123.379C130.259 123.498 130.193 123.605 130.099 123.674C130.004 123.743 129.888 123.77 129.776 123.748Z" fill="white"/>
<path d="M124.313 126.606L124.262 126.6L100.497 120.335C100.387 120.307 100.294 120.233 100.236 120.13C100.178 120.027 100.162 119.903 100.189 119.786C100.217 119.668 100.288 119.566 100.385 119.503C100.482 119.439 100.598 119.419 100.708 119.446L124.483 125.703C124.592 125.733 124.685 125.809 124.741 125.913C124.797 126.018 124.811 126.143 124.781 126.26C124.754 126.368 124.692 126.463 124.606 126.526C124.52 126.59 124.416 126.618 124.313 126.606Z" fill="white"/>
<path d="M119.714 110.388C119.477 110.357 119.325 110.069 118.662 108.473C118.365 108.434 118.077 108.397 117.814 108.362C117.118 108.223 116.46 107.925 115.884 107.489C115.309 107.053 114.83 106.489 114.478 105.834C114.285 105.447 114.175 105.018 114.157 104.577C114.138 104.136 114.212 103.694 114.372 103.284C115.176 101.223 117.915 100.137 120.603 100.821C121.303 100.958 121.965 101.254 122.545 101.689C123.125 102.124 123.609 102.688 123.965 103.344C124.158 103.731 124.268 104.16 124.286 104.601C124.304 105.042 124.231 105.484 124.072 105.894C123.766 106.549 123.319 107.117 122.768 107.551C122.217 107.985 121.579 108.272 120.907 108.387C120.493 109.444 120.283 110 120.254 110.088C120.225 110.179 120.173 110.26 120.104 110.321C120.035 110.383 119.952 110.422 119.863 110.435L119.714 110.388ZM119.011 107.584C119.084 107.593 119.152 107.621 119.211 107.666C119.27 107.711 119.317 107.771 119.349 107.841C119.524 108.28 119.662 108.613 119.781 108.823L120.208 107.731C120.236 107.661 120.28 107.599 120.336 107.551C120.392 107.503 120.459 107.471 120.529 107.458C121.099 107.391 121.647 107.175 122.125 106.829C122.604 106.483 122.998 106.018 123.272 105.475C123.383 105.187 123.433 104.877 123.42 104.569C123.407 104.26 123.33 103.959 123.196 103.688C122.89 103.154 122.483 102.695 122.001 102.34C121.519 101.986 120.972 101.743 120.394 101.627C118.123 101.052 115.78 101.95 115.158 103.544C115.047 103.832 114.996 104.141 115.01 104.45C115.023 104.759 115.1 105.06 115.234 105.331C115.537 105.863 115.941 106.32 116.42 106.673C116.9 107.026 117.445 107.267 118.02 107.38C118.343 107.455 118.672 107.498 119.004 107.509L119.011 107.584Z" fill="white"/>
<path d="M118.201 104.414C118.136 104.568 118.024 104.694 117.883 104.772C117.743 104.85 117.582 104.874 117.429 104.84C117.36 104.826 117.294 104.795 117.238 104.75C117.182 104.705 117.136 104.646 117.104 104.579C117.072 104.512 117.055 104.437 117.054 104.361C117.053 104.285 117.068 104.209 117.098 104.14C117.16 103.985 117.27 103.858 117.41 103.779C117.549 103.701 117.709 103.677 117.861 103.712C117.931 103.727 117.997 103.758 118.053 103.803C118.11 103.848 118.156 103.906 118.188 103.973C118.221 104.041 118.239 104.115 118.241 104.191C118.243 104.267 118.23 104.343 118.201 104.414Z" fill="white"/>
<path d="M119.895 104.848C119.833 105.005 119.721 105.133 119.58 105.211C119.439 105.289 119.277 105.312 119.124 105.275C119.054 105.259 118.988 105.227 118.932 105.181C118.876 105.135 118.831 105.076 118.799 105.008C118.767 104.939 118.75 104.864 118.75 104.788C118.749 104.711 118.764 104.635 118.794 104.565C118.859 104.412 118.971 104.287 119.112 104.21C119.252 104.134 119.412 104.112 119.564 104.148C119.634 104.162 119.699 104.193 119.756 104.238C119.812 104.283 119.858 104.342 119.89 104.409C119.921 104.476 119.939 104.551 119.94 104.627C119.941 104.703 119.925 104.779 119.895 104.848Z" fill="white"/>
<path d="M121.598 105.284C121.534 105.439 121.422 105.567 121.281 105.644C121.14 105.722 120.98 105.746 120.826 105.711C120.757 105.694 120.693 105.661 120.638 105.614C120.582 105.567 120.537 105.508 120.506 105.441C120.475 105.373 120.457 105.299 120.456 105.223C120.454 105.147 120.468 105.071 120.496 105.001C120.562 104.848 120.674 104.722 120.814 104.646C120.955 104.57 121.115 104.548 121.267 104.583C121.337 104.597 121.402 104.628 121.458 104.673C121.515 104.719 121.56 104.777 121.592 104.845C121.624 104.912 121.641 104.987 121.642 105.063C121.643 105.139 121.628 105.214 121.598 105.284Z" fill="white"/>
<path d="M142.503 113.961C142.401 113.947 142.307 113.895 142.238 113.815C142.173 113.735 142.136 113.633 142.134 113.527C142.133 113.42 142.166 113.315 142.228 113.231C143.474 111.641 145.089 110.43 146.905 109.723L146.698 108.927C146.674 108.856 146.666 108.779 146.676 108.702C146.686 108.626 146.713 108.553 146.755 108.491C146.803 108.431 146.865 108.386 146.933 108.359C147.002 108.333 147.075 108.325 147.146 108.338L151.013 108.982C151.083 108.995 151.148 109.026 151.204 109.072C151.259 109.118 151.303 109.178 151.332 109.246C151.357 109.316 151.365 109.392 151.355 109.467C151.345 109.542 151.318 109.613 151.276 109.674L149.205 113.106C149.166 113.175 149.111 113.231 149.045 113.27C148.98 113.308 148.906 113.328 148.832 113.326C148.759 113.325 148.687 113.304 148.624 113.265C148.561 113.226 148.509 113.17 148.473 113.103L147.903 112.047C146.099 112.366 144.349 112.99 142.719 113.896C142.653 113.938 142.579 113.96 142.503 113.961ZM147.702 109.364L147.841 109.882C147.873 109.998 147.86 110.123 147.806 110.231C147.751 110.338 147.66 110.419 147.551 110.455C146.552 110.807 145.61 111.328 144.761 111.997C145.877 111.606 147.018 111.307 148.174 111.101C148.258 111.087 148.343 111.1 148.42 111.138C148.496 111.176 148.56 111.237 148.603 111.315L148.97 112.002L150.303 109.797L147.702 109.364Z" fill="white"/>
<path d="M146.945 116.078L141.245 114.611C141.184 114.598 141.128 114.571 141.079 114.531C141.03 114.491 140.991 114.439 140.965 114.38C140.938 114.321 140.923 114.257 140.921 114.191C140.919 114.126 140.93 114.06 140.954 113.999L143.041 108.597C143.08 108.496 143.151 108.413 143.242 108.362C143.332 108.311 143.436 108.296 143.534 108.319L146.089 108.968C146.2 108.996 146.295 109.07 146.353 109.174C146.412 109.278 146.429 109.403 146.4 109.523C146.372 109.642 146.301 109.745 146.203 109.809C146.105 109.874 145.988 109.894 145.877 109.866L143.682 109.301L141.931 113.849L146.797 115.096L147.58 113.07C147.6 113.013 147.631 112.96 147.671 112.916C147.71 112.872 147.758 112.837 147.81 112.812C147.863 112.788 147.919 112.775 147.976 112.775C148.032 112.774 148.088 112.786 148.14 112.81C148.244 112.856 148.325 112.944 148.367 113.055C148.409 113.166 148.408 113.291 148.364 113.404L147.447 115.801C147.407 115.904 147.335 115.988 147.242 116.039C147.15 116.09 147.045 116.104 146.945 116.078Z" fill="white"/>
<path d="M177.869 68.986L177.827 68.9805L97.4121 49.9938C97.3573 49.982 97.3055 49.9585 97.2596 49.9247C97.2138 49.8909 97.1749 49.8475 97.1453 49.797C97.1157 49.7465 97.096 49.69 97.0873 49.6309C97.0787 49.5717 97.0812 49.511 97.0948 49.4524C97.1068 49.3935 97.1297 49.3375 97.1621 49.2879C97.1945 49.2382 97.2358 49.1958 97.2835 49.1632C97.3312 49.1306 97.3843 49.1084 97.4398 49.098C97.4952 49.0877 97.5519 49.0893 97.6063 49.1028L178.022 68.0803C178.077 68.0933 178.129 68.1179 178.175 68.1527C178.221 68.1874 178.259 68.2317 178.289 68.2829C178.318 68.3341 178.338 68.3912 178.346 68.4509C178.355 68.5106 178.352 68.5718 178.338 68.6308C178.315 68.7416 178.254 68.8396 178.167 68.9055C178.08 68.9713 177.974 69.0001 177.869 68.986Z" fill="white"/>
<path d="M113.548 48.8363L113.463 48.8252L110.608 48.2296C110.515 48.2174 110.506 48.2163 110.548 48.0922C111.07 46.8089 111.583 45.5244 112.104 44.2411C112.121 44.1137 112.121 44.1137 112.264 44.1416L113.336 44.3837C113.413 44.3937 113.447 44.3981 113.494 44.3025C113.7 43.9129 113.906 43.5233 114.121 43.1348L114.279 42.8499C114.29 42.768 114.293 42.7407 114.235 42.7238L112.943 42.4438C112.858 42.4327 112.841 42.4305 112.884 42.3064C113.034 41.9466 113.176 41.5856 113.327 41.2258C113.392 41.0767 113.502 40.9544 113.638 40.8783C113.775 40.8022 113.931 40.7767 114.08 40.8059L114.96 41.0043C115.037 41.0143 115.07 41.0187 115.102 40.9117L115.638 39.584C115.647 39.5112 115.652 39.4747 115.594 39.4579C115.119 39.3958 114.665 39.2347 114.183 39.1623C113.854 39.12 113.519 39.1601 113.204 39.2796C112.889 39.399 112.603 39.5945 112.368 39.8507C112.124 40.0882 111.93 40.3787 111.799 40.702C111.634 41.1063 111.468 41.5196 111.312 41.925C111.3 42.016 111.238 42.0264 111.154 42.0062L110.056 41.7608C109.98 41.7508 109.955 41.7475 109.916 41.8443C109.721 42.3465 109.518 42.8475 109.314 43.3485C109.302 43.4395 109.3 43.4577 109.366 43.4757L110.482 43.7143C110.559 43.7242 110.576 43.7265 110.535 43.8414L108.966 47.7279C108.955 47.8098 108.951 47.8371 108.834 47.8125L103.663 46.7197L103.578 46.7086L107.875 35.949L117.867 38.237L113.548 48.8363Z" fill="white"/>
<path d="M83.5636 26.1415L30.4129 29.4753C29.1312 29.5552 27.8722 29.9045 26.7079 30.5032C25.5435 31.1019 24.4966 31.9383 23.627 32.9645C22.7574 33.9907 22.0821 35.1867 21.6398 36.4841C21.1974 37.7815 20.9966 39.1548 21.0489 40.5257L22.5519 80.4169C22.6598 83.1857 23.7905 85.7756 25.6956 87.618C27.6008 89.4604 30.1249 90.4048 32.7137 90.2439L78.2372 87.3845L85.7627 96.3946L86.557 86.8248C89.0103 86.4858 91.2693 85.1658 92.8784 83.131C94.4876 81.0962 95.3273 78.4978 95.2284 75.8597L93.7158 35.9765C93.6654 34.6049 93.3628 33.2622 92.8252 32.0254C92.2876 30.7886 91.5256 29.6818 90.5827 28.7683C89.6398 27.8549 88.5345 27.1527 87.3301 26.702C86.1257 26.2512 84.8458 26.0608 83.5636 26.1415Z" fill="url(#paint2_linear_95_647)"/>
<path d="M30.8942 90.6355C28.5314 90.3211 26.3609 89.1289 24.7594 87.2658C23.1579 85.4026 22.2266 82.986 22.1269 80.4354L20.6058 40.5511C20.5505 39.1188 20.7602 37.6839 21.2226 36.3285C21.6851 34.9731 22.3913 33.7239 23.3008 32.6526C24.2102 31.5813 25.305 30.7089 26.5224 30.0854C27.7398 29.4619 29.0558 29.0996 30.395 29.0194L83.5457 25.6855C86.2428 25.5167 88.8731 26.4983 90.8602 28.4152C92.8473 30.3322 94.0292 33.0282 94.1469 35.9125L95.6596 75.7957C95.7628 78.4891 94.9318 81.1463 93.3263 83.2568C91.7207 85.3673 89.4539 86.7822 86.9614 87.2294L86.2037 96.3875C86.1949 96.4756 86.1625 96.5594 86.1104 96.6291C86.0584 96.6987 85.9889 96.7511 85.9104 96.78C85.8319 96.8088 85.7476 96.8129 85.6678 96.7918C85.588 96.7706 85.5161 96.725 85.4606 96.6606L78.0772 87.8172L32.762 90.6668C32.1388 90.7168 31.5136 90.7063 30.8942 90.6355ZM83.5817 26.5974L30.431 29.9313C29.2053 30.0074 28.0011 30.3412 26.8875 30.9135C25.7739 31.4859 24.7726 32.2856 23.9408 33.267C23.1091 34.2483 22.4632 35.3921 22.0402 36.6329C21.6171 37.8737 21.4252 39.1871 21.4753 40.4982L22.9868 80.3905C23.0898 83.0367 24.1698 85.512 25.9899 87.2737C27.81 89.0353 30.2216 89.9395 32.6958 89.788L78.2193 86.9286C78.2836 86.9236 78.3478 86.9343 78.4072 86.9597C78.4666 86.9851 78.5197 87.0246 78.5624 87.0753L85.4066 95.2928L86.155 86.8C86.1655 86.6944 86.2091 86.5952 86.2787 86.5186C86.3483 86.4419 86.4397 86.3923 86.538 86.3779C88.8799 86.0413 91.0329 84.773 92.5668 82.8267C94.1007 80.8804 94.9024 78.3993 94.8119 75.8793L93.3077 35.9972C93.2047 33.351 92.1247 30.8757 90.3046 29.114C88.4845 27.3523 86.0729 26.4481 83.5987 26.5997L83.5817 26.5974Z" fill="#231F20"/>
<path d="M36.0985 56.8424L49.0761 56.0217L49.8359 76.135L38.607 76.8419L36.0985 56.8424Z" fill="#4444A5"/>
<path d="M38.5474 77.297C38.4546 77.2843 38.3688 77.2393 38.3032 77.1688C38.2377 77.0984 38.1959 77.0064 38.1843 76.907L35.7182 56.913C35.7029 56.8525 35.6992 56.789 35.7074 56.7265C35.7156 56.6639 35.7355 56.6035 35.7658 56.549C35.8048 56.4997 35.8531 56.4597 35.9073 56.4316C35.9616 56.4036 36.0206 56.3882 36.0804 56.3865L49.058 55.5657C49.1145 55.5625 49.1709 55.5712 49.2238 55.5915C49.2768 55.6118 49.3252 55.6432 49.3664 55.6839C49.4076 55.7246 49.4408 55.7737 49.4639 55.8285C49.487 55.8833 49.4996 55.9427 49.5011 56.0032L50.2621 76.1074C50.2664 76.2282 50.226 76.3469 50.1495 76.4374C50.073 76.528 49.9667 76.5832 49.8538 76.5909L38.6249 77.2979L38.5474 77.297ZM36.5863 57.2672L38.9812 76.354L49.4169 75.7099L48.709 56.5198L36.5863 57.2672Z" fill="#231F20"/>
<path d="M46.0191 74.451C46.8342 74.5575 47.5876 73.9349 47.702 73.0603C47.8164 72.1857 47.2484 71.3902 46.4334 71.2836C45.6183 71.177 44.8649 71.7997 44.7505 72.6743C44.6362 73.5489 45.2041 74.3444 46.0191 74.451Z" fill="#231F20"/>
<path d="M49.1274 57.2781C49.1274 57.2781 49.9191 57.0947 52.1537 54.3876C54.3882 51.6805 57.5698 44.7001 57.7693 43.5043C57.9688 42.3084 57.3581 37.4796 57.9929 36.4518C58.6276 35.4239 61.3676 34.4585 62.6578 36.1361C64.0172 38.1164 64.8989 40.4306 65.2266 42.878C65.2873 44.5245 64.4985 51.2161 64.4985 51.2161L77.544 50.4042C79.4478 50.2921 79.961 51.7108 79.8665 53.2906C79.772 54.8705 78.1523 56.8341 78.1523 56.8341C78.1523 56.8341 79.8069 57.3745 79.3725 59.706C79.2667 60.3678 79.0185 60.9968 78.6475 61.543C78.2766 62.0891 77.7932 62.5373 77.2359 62.8518C77.5901 63.133 77.8412 63.5376 77.9474 63.9979C78.0536 64.4582 78.0085 64.9465 77.8195 65.3812C77.6755 65.9115 77.4358 66.4081 77.114 66.8425C76.7922 67.277 76.3948 67.6408 75.9443 67.9131C76.3903 68.1504 76.728 68.5677 76.8844 69.0749C77.0408 69.5821 77.0034 70.1384 76.7802 70.6237C76.1187 72.6478 75.0668 73.9636 73.4671 74.1247C71.8674 74.2858 56.0704 75.2285 54.5021 75.3474C52.9338 75.4663 52.8749 74.5977 52.0446 74.3503C51.268 74.2104 50.4746 74.1908 49.6887 74.2921L49.1274 57.2781Z" fill="white"/>
<path d="M53.8829 75.7293C53.3842 75.6664 52.9174 75.4441 52.5431 75.0912C52.384 74.9364 52.1972 74.8175 51.9936 74.7416C51.2729 74.6136 50.5369 74.5985 49.8084 74.6965C49.7507 74.7052 49.6921 74.701 49.6364 74.6842C49.5807 74.6673 49.529 74.6382 49.4848 74.5986C49.4403 74.5589 49.4041 74.5095 49.3788 74.4536C49.3534 74.3976 49.3393 74.3364 49.3375 74.2739L48.6928 57.3045C48.6894 57.1979 48.7203 57.0926 48.7803 57.0062C48.8402 56.9197 48.9257 56.8573 49.0223 56.8292C49.0817 56.837 49.8524 56.4842 51.8309 54.0861C54.0751 51.371 57.1793 44.4546 57.3477 43.4306C57.3973 42.6274 57.393 41.8225 57.3349 41.022C57.2313 38.6479 57.1995 36.9127 57.6375 36.2016C57.986 35.7731 58.4125 35.4253 58.8901 35.1802C59.3676 34.9351 59.8858 34.798 60.4116 34.7777C60.893 34.7251 61.3771 34.7961 61.8235 34.9849C62.27 35.1737 62.6659 35.4749 62.9783 35.8632C64.4035 37.9162 65.3272 40.3232 65.6676 42.8708C65.7169 44.2751 65.1793 49.1111 64.9905 50.7527L77.4983 49.963C77.8628 49.915 78.2312 49.9509 78.5789 50.0682C78.9266 50.1855 79.2455 50.3816 79.5141 50.6432C79.8079 51.0043 80.0269 51.4286 80.1568 51.8887C80.2868 52.3489 80.3249 52.8349 80.2688 53.3154C80.0814 54.5629 79.5693 55.7346 78.7916 56.6955C79.2238 57.0455 79.547 57.5267 79.7205 58.0783C79.894 58.6299 79.91 59.2271 79.7665 59.7945C79.5637 61.0511 78.9112 62.1818 77.9485 62.9449C78.1964 63.3126 78.3535 63.7424 78.4058 64.1954C78.458 64.6483 78.4036 65.1101 78.2475 65.539C77.9711 66.467 77.4396 67.2884 76.7232 67.8946C77.0639 68.2549 77.2931 68.7189 77.3807 69.226C77.4683 69.733 77.4103 70.2593 77.2142 70.736C76.4396 73.0971 75.2023 74.3794 73.5324 74.5498C72.2561 74.6791 61.962 75.2954 57.0064 75.5916L54.554 75.743C54.33 75.758 54.1056 75.7535 53.8829 75.7293ZM51.7672 73.7678C51.9272 73.7739 52.0861 73.7947 52.2422 73.8299C52.5387 73.9317 52.8106 74.0998 53.0403 74.3231C53.233 74.5106 53.4626 74.6497 53.713 74.7305C53.9633 74.8112 54.2282 74.8316 54.4888 74.7902L56.9485 74.649C61.8848 74.3689 72.1727 73.7332 73.4745 73.6073C74.7763 73.4813 75.7586 72.4341 76.4189 70.4191C76.6078 70.0472 76.6525 69.613 76.5433 69.2117C76.4341 68.8104 76.1798 68.4748 75.8362 68.2785C75.7627 68.2422 75.7004 68.1844 75.6566 68.1115C75.6127 68.0387 75.5891 67.9538 75.5882 67.8665C75.5917 67.7792 75.617 67.6941 75.6616 67.6201C75.7062 67.5461 75.7684 67.486 75.8416 67.4461C76.6348 66.9676 77.2251 66.1764 77.4838 65.2447C77.9081 63.8468 77.1607 63.2955 77.0734 63.2378C77.0088 63.1923 76.9569 63.1292 76.9227 63.0549C76.8885 62.9806 76.8733 62.8976 76.8786 62.8143C76.885 62.7319 76.9123 62.6527 76.9576 62.5851C77.003 62.5176 77.0646 62.4644 77.1358 62.4313C77.6219 62.1394 78.041 61.733 78.3608 61.2436C78.6805 60.7542 78.8924 60.1947 78.98 59.6084C79.2944 57.798 78.1777 57.3002 78.0456 57.2552C77.9791 57.2279 77.9196 57.1845 77.8716 57.1285C77.8237 57.0725 77.7884 57.0053 77.7687 56.932C77.746 56.8616 77.7393 56.7862 77.749 56.7119C77.7587 56.6376 77.7846 56.5664 77.8246 56.5042C78.2534 55.9956 79.3835 54.4123 79.422 53.2602C79.4735 52.9056 79.4559 52.5448 79.3702 52.2006C79.2846 51.8564 79.1328 51.5362 78.9244 51.2604C78.7363 51.0915 78.5164 50.9676 78.279 50.8967C78.0416 50.8257 77.7919 50.8094 77.5463 50.8488L64.5008 51.6607C64.4384 51.6615 64.3767 51.6491 64.3193 51.6241C64.2618 51.5991 64.2098 51.562 64.1662 51.5151C64.1239 51.4669 64.0923 51.4091 64.0737 51.3459C64.0552 51.2826 64.05 51.2154 64.0588 51.1492C64.0671 51.0855 64.8452 44.4759 64.7823 42.9124C64.451 40.5611 63.5933 38.3404 62.2819 36.4387C62.0552 36.1621 61.769 35.9487 61.4471 35.8165C61.1253 35.6842 60.7772 35.6368 60.4318 35.6783C60.0356 35.6895 59.6439 35.7843 59.2793 35.9575C58.9147 36.1306 58.5843 36.3786 58.3072 36.6872C57.9911 37.1921 58.0859 39.4354 58.1463 40.9522C58.216 41.8196 58.2172 42.693 58.1499 43.5632C57.9312 44.8399 54.6929 51.924 52.3846 54.6677C51.5577 55.7755 50.5786 56.7434 49.4818 57.5373L50.0908 73.7244C50.6506 73.6844 51.2117 73.6989 51.7672 73.7678Z" fill="#231F20"/>
<path d="M63.2629 140.479L75.0836 134.85L63.3587 135.788L63.4283 132.354C63.4483 131.472 63.3058 130.598 63.009 129.781C62.7121 128.964 62.2667 128.221 61.6982 127.593C61.1297 126.966 60.4493 126.468 59.6958 126.126C58.9423 125.784 58.1305 125.605 57.3069 125.601L19.0013 125.377C18.1777 125.372 17.3583 125.54 16.5898 125.873C15.8213 126.206 15.1189 126.696 14.5226 127.316C13.9264 127.937 13.4481 128.674 13.115 129.487C12.7819 130.3 12.6006 131.173 12.5814 132.055L12.0049 156.252C11.9893 157.138 12.1373 158.015 12.4404 158.834C12.7435 159.652 13.1957 160.396 13.7711 161.022C14.3465 161.647 15.0337 162.143 15.7933 162.48C16.553 162.817 17.3701 162.989 18.1977 162.986L56.4863 163.207C58.1507 163.216 59.7621 162.517 60.9663 161.263C62.1704 160.009 62.8687 158.303 62.9074 156.521L63.2629 140.479Z" fill="url(#paint3_linear_95_647)"/>
<path d="M17.4076 163.42C15.781 163.204 14.2955 162.356 13.2315 161.036C12.1676 159.717 11.5989 158.017 11.6329 156.258L12.2094 132.062C12.256 130.161 13.0025 128.344 14.286 127.007C15.5695 125.669 17.2859 124.92 19.0606 124.922L57.3578 125.145C59.1343 125.158 60.8206 125.925 62.0472 127.277C63.2739 128.63 63.9407 130.458 63.9017 132.36L63.8358 135.305L75.0909 134.397C75.1926 134.387 75.2939 134.416 75.3764 134.478C75.4589 134.541 75.5172 134.634 75.5408 134.74C75.5645 134.845 75.5518 134.958 75.5052 135.056C75.4586 135.154 75.3811 135.231 75.2867 135.275L63.7152 140.778L63.3761 156.564C63.3336 158.467 62.5872 160.288 61.3009 161.627C60.0146 162.965 58.2936 163.712 56.5164 163.702L18.2277 163.481C17.953 163.48 17.679 163.46 17.4076 163.42ZM57.9778 126.142C57.7564 126.1 57.5327 126.07 57.3078 126.055L19.0107 125.832C18.2427 125.827 17.4786 125.984 16.7619 126.294C16.0453 126.604 15.3902 127.062 14.834 127.64C14.2778 128.217 13.8314 128.905 13.5203 129.663C13.2092 130.421 13.0395 131.234 13.0209 132.057L12.4432 156.263C12.4078 157.923 12.9886 159.518 14.0582 160.699C15.1279 161.88 16.5991 162.551 18.1493 162.563L56.4464 162.786C57.9968 162.793 59.4979 162.142 60.6207 160.976C61.7435 159.809 62.3963 158.221 62.4361 156.561L62.8134 140.485C62.8169 140.396 62.8432 140.31 62.8895 140.236C62.9357 140.162 63 140.103 63.0752 140.065L72.6504 135.513L63.3668 136.252C63.3083 136.258 63.2496 136.25 63.1943 136.23C63.1391 136.21 63.0885 136.178 63.0456 136.136C62.9639 136.045 62.9182 135.923 62.9176 135.796L62.9957 132.362C63.0296 130.83 62.5384 129.347 61.6148 128.194C60.6911 127.042 59.3991 126.299 57.9826 126.106L57.9778 126.142Z" fill="#231F20"/>
<path d="M21.8637 142.341L30.1754 142.437L29.8187 155.323L22.6274 155.234L21.8637 142.341Z" fill="#4444A5"/>
<path d="M22.5679 155.689C22.4701 155.676 22.3801 155.628 22.313 155.551C22.246 155.475 22.206 155.376 22.1999 155.271L21.4362 142.377C21.4322 142.313 21.4408 142.249 21.4616 142.188C21.4823 142.127 21.5147 142.071 21.5567 142.024C21.5986 141.978 21.6491 141.94 21.705 141.916C21.7608 141.891 21.8207 141.879 21.8808 141.88L30.1828 141.984C30.2957 141.986 30.4026 142.036 30.4802 142.122C30.5577 142.209 30.5997 142.325 30.5969 142.446L30.2451 155.36C30.2431 155.421 30.23 155.48 30.2064 155.536C30.1828 155.591 30.1492 155.642 30.1076 155.683C30.0661 155.725 30.0173 155.758 29.9641 155.78C29.911 155.802 29.8545 155.812 29.798 155.811L22.6152 155.723L22.5679 155.689ZM22.3214 142.799L23.0321 154.778L29.4046 154.861L29.7306 142.87L22.3214 142.799Z" fill="#4444A5"/>
<path d="M27.5229 154.078C28.0475 154.147 28.5324 153.746 28.6061 153.183C28.6797 152.62 28.3141 152.108 27.7895 152.04C27.2649 151.971 26.7799 152.372 26.7063 152.935C26.6327 153.498 26.9983 154.01 27.5229 154.078Z" fill="#231F20"/>
<path d="M30.1457 143.257C30.1457 143.257 30.6652 143.177 32.1973 141.554C33.837 139.542 35.1979 137.291 36.2371 134.871C36.4134 134.116 36.2257 131 36.67 130.373C37.1143 129.746 38.9022 129.267 39.6582 130.412C40.4467 131.743 40.9166 133.266 41.0274 134.849C40.9935 135.9 40.2148 140.14 40.2148 140.14L48.5434 140.238C49.7571 140.258 50.0063 141.189 49.9009 142.193C49.6786 143.024 49.2488 143.778 48.6583 144.373C48.9723 144.546 49.2103 144.843 49.3237 145.202C49.4371 145.561 49.4173 145.955 49.2684 146.304C49.1775 146.721 48.9976 147.112 48.743 147.445C48.4883 147.778 48.1659 148.044 47.8012 148.223C48.016 148.419 48.16 148.69 48.2087 148.989C48.2575 149.289 48.2082 149.6 48.069 149.869C47.8324 150.527 47.3657 151.064 46.7692 151.365C47.0449 151.538 47.2439 151.821 47.3231 152.154C47.4023 152.486 47.3553 152.841 47.1923 153.142C46.6829 154.399 45.9592 155.184 44.937 155.217C43.9148 155.25 33.7413 155.077 32.8025 155.065C31.8638 155.053 31.8044 154.518 31.2953 154.322C30.8063 154.195 30.3016 154.145 29.7966 154.172L30.1457 143.257Z" fill="white"/>
<path d="M32.5369 155.447C32.1353 155.401 31.7621 155.212 31.4771 154.91C31.401 154.815 31.3039 154.742 31.1944 154.697C30.7625 154.567 30.3136 154.508 29.8628 154.523C29.7471 154.527 29.6354 154.482 29.5513 154.399C29.5101 154.355 29.4782 154.302 29.4576 154.243C29.437 154.185 29.4282 154.122 29.4318 154.059L29.7302 143.203C29.731 143.1 29.7657 142.999 29.8281 142.919C29.8906 142.84 29.9769 142.785 30.0719 142.766C30.7738 142.358 31.3987 141.811 31.9129 141.155C33.494 139.203 34.8127 137.025 35.8297 134.688C35.8919 134.188 35.9203 133.684 35.9146 133.181C35.9509 131.584 36.0066 130.499 36.3288 130.013C36.5852 129.735 36.8927 129.516 37.2312 129.372C37.5696 129.229 37.9314 129.162 38.2927 129.178C38.6244 129.167 38.9521 129.242 39.2487 129.395C39.5453 129.548 39.8021 129.775 39.9978 130.058C40.842 131.467 41.3419 133.085 41.4524 134.766C41.4265 135.623 40.9763 138.406 40.7247 139.605L48.5446 139.702C48.8004 139.688 49.0551 139.733 49.2918 139.832C49.5285 139.932 49.742 140.084 49.9182 140.279C50.1048 140.547 50.2366 140.855 50.3051 141.183C50.3737 141.51 50.3774 141.851 50.3163 142.183C50.1578 142.953 49.8049 143.666 49.2963 144.243C49.538 144.511 49.7056 144.846 49.7809 145.211C49.8562 145.577 49.8365 145.959 49.7238 146.317C49.5419 147.099 49.1023 147.788 48.4868 148.257C48.6063 148.515 48.6703 148.8 48.6741 149.09C48.6779 149.38 48.6214 149.669 48.5088 149.935C48.3002 150.489 47.9564 150.975 47.514 151.342C47.6873 151.611 47.789 151.926 47.8083 152.254C47.8276 152.582 47.7638 152.912 47.6237 153.208C47.0095 154.738 46.1199 155.538 44.9777 155.565C44.1118 155.59 37.4971 155.512 34.3138 155.448L32.8251 155.42C32.7298 155.437 32.6334 155.446 32.5369 155.447ZM30.9111 153.697C31.1112 153.717 31.308 153.761 31.4976 153.83C31.7113 153.914 31.9031 154.05 32.0581 154.227C32.1623 154.344 32.2898 154.434 32.4316 154.491C32.5733 154.548 32.7257 154.57 32.8777 154.556L34.3675 154.575C37.3036 154.617 44.1812 154.729 44.9951 154.706C45.809 154.683 46.3951 154.093 46.8696 152.905C47.2032 152.07 46.6925 151.753 46.6367 151.718C46.5658 151.676 46.5071 151.614 46.4668 151.539C46.4266 151.463 46.4063 151.377 46.408 151.29C46.4149 151.202 46.4445 151.117 46.4935 151.045C46.5426 150.973 46.6091 150.916 46.6857 150.882C46.9227 150.757 47.1352 150.583 47.311 150.371C47.4868 150.159 47.6223 149.912 47.7099 149.646C48.0109 148.861 47.5948 148.548 47.596 148.538C47.531 148.493 47.4796 148.428 47.4477 148.352C47.4158 148.276 47.4047 148.191 47.4156 148.108C47.4266 148.024 47.4591 147.945 47.5094 147.88C47.5598 147.814 47.6261 147.765 47.7007 147.738C47.9977 147.584 48.2593 147.361 48.4658 147.084C48.6723 146.808 48.8182 146.487 48.8925 146.144C49.1361 145.139 48.5988 144.828 48.4848 144.776C48.4196 144.747 48.3625 144.701 48.319 144.642C48.2754 144.583 48.2468 144.513 48.2357 144.438C48.2237 144.365 48.2285 144.289 48.2499 144.218C48.2712 144.146 48.3085 144.081 48.3583 144.028C48.8841 143.514 49.2688 142.856 49.4695 142.128C49.5474 141.723 49.4752 141.305 49.2682 140.963C49.1695 140.862 49.0521 140.785 48.9233 140.737C48.7946 140.688 48.6573 140.669 48.5202 140.68L40.1916 140.581C40.1295 140.577 40.069 140.56 40.0136 140.53C39.9582 140.501 39.9091 140.459 39.869 140.409C39.8317 140.357 39.8052 140.297 39.7912 140.233C39.7773 140.169 39.7763 140.103 39.7882 140.038C40.0561 138.582 40.5726 135.623 40.5913 134.82C40.4758 133.337 40.0325 131.912 39.2978 130.661C39.1765 130.496 39.0201 130.364 38.8414 130.276C38.6626 130.189 38.4663 130.147 38.2683 130.156C37.8096 130.135 37.3578 130.305 37.0073 130.63C36.8045 131.489 36.718 132.372 36.7505 133.253C36.7632 133.824 36.726 134.395 36.6394 134.96C35.5879 137.453 34.1916 139.768 32.4983 141.824C31.9228 142.475 31.2684 143.041 30.5533 143.505L30.2702 153.651C30.4761 153.659 30.699 153.67 30.9111 153.697Z" fill="#231F20"/>
<path d="M210.815 186.778L210.476 142.207C210.471 141.474 210.332 140.752 210.066 140.082C209.799 139.412 209.411 138.808 208.924 138.303C208.436 137.798 207.859 137.403 207.224 137.14C206.59 136.877 205.911 136.752 205.226 136.771L152.954 138.267L141.635 126.604L145.464 138.546C144.275 138.825 143.205 139.537 142.441 140.561C141.678 141.585 141.267 142.857 141.28 144.155L141.618 188.735C141.624 189.467 141.764 190.189 142.031 190.857C142.298 191.526 142.686 192.13 143.174 192.634C143.661 193.138 144.239 193.532 144.873 193.794C145.507 194.056 146.185 194.181 146.869 194.162L205.692 192.505C207.067 192.454 208.378 191.824 209.337 190.751C210.297 189.678 210.828 188.25 210.815 186.778Z" fill="url(#paint4_linear_95_647)"/>
<path d="M145.996 194.575C144.659 194.395 143.435 193.707 142.545 192.637C141.655 191.566 141.158 190.184 141.143 188.738L140.804 144.167C140.793 142.843 141.189 141.543 141.931 140.469C142.673 139.395 143.72 138.606 144.911 138.224L141.235 126.755C141.206 126.657 141.208 126.551 141.241 126.453C141.274 126.355 141.337 126.271 141.418 126.214C141.501 126.161 141.599 126.138 141.694 126.151C141.789 126.163 141.878 126.21 141.944 126.283L153.137 137.791L205.231 136.272C206.726 136.237 208.163 136.835 209.229 137.936C210.295 139.038 210.904 140.554 210.923 142.154L211.261 186.725C211.27 188.326 210.685 189.878 209.636 191.04C208.587 192.202 207.159 192.88 205.663 192.927L146.835 194.62C146.554 194.623 146.274 194.608 145.996 194.575ZM142.592 128.256L145.847 138.393C145.864 138.454 145.869 138.52 145.86 138.584C145.852 138.649 145.831 138.711 145.798 138.766C145.767 138.824 145.726 138.874 145.676 138.914C145.626 138.954 145.569 138.982 145.509 138.996C144.411 139.243 143.421 139.892 142.712 140.831C142.003 141.77 141.619 142.939 141.628 144.136L141.967 188.707C141.972 189.38 142.1 190.043 142.345 190.658C142.591 191.273 142.947 191.828 143.395 192.291C143.843 192.755 144.374 193.118 144.957 193.359C145.539 193.6 146.163 193.716 146.792 193.698L205.606 192.04C206.875 192.002 208.088 191.428 208.978 190.443C209.869 189.457 210.365 188.141 210.357 186.783L210.026 142.213C210.014 140.855 209.5 139.567 208.595 138.631C207.691 137.696 206.471 137.189 205.202 137.222L152.938 138.718C152.882 138.719 152.826 138.708 152.774 138.685C152.722 138.663 152.675 138.629 152.636 138.586L142.592 128.256Z" fill="#231F20"/>
<path d="M198.52 164.434L184.706 163.405L182.963 184.848L194.906 185.734L198.52 164.434Z" fill="#4444A5"/>
<path d="M182.903 185.303C182.795 185.289 182.697 185.232 182.628 185.142C182.56 185.052 182.527 184.937 182.535 184.82L184.274 163.413C184.279 163.353 184.296 163.295 184.322 163.241C184.349 163.188 184.385 163.14 184.429 163.101C184.472 163.062 184.522 163.032 184.576 163.014C184.63 162.995 184.687 162.988 184.743 162.993L198.549 164.012C198.609 164.015 198.667 164.032 198.72 164.061C198.773 164.09 198.819 164.132 198.855 164.182C198.926 164.286 198.955 164.416 198.937 164.544L195.289 185.84C195.273 185.953 195.216 186.056 195.131 186.128C195.047 186.199 194.94 186.234 194.834 186.225L182.873 185.336L182.903 185.303ZM185.099 163.901L183.423 184.427L194.531 185.241L197.982 164.854L185.099 163.901Z" fill="#231F20"/>
<path d="M186.745 183.103C187.617 183.217 188.422 182.551 188.544 181.616C188.666 180.681 188.059 179.831 187.188 179.717C186.317 179.603 185.511 180.268 185.389 181.203C185.267 182.138 185.874 182.989 186.745 183.103Z" fill="#231F20"/>
<path d="M184.6 164.743C184.6 164.743 183.764 164.541 181.506 161.626C179.247 158.711 176.18 151.228 176.02 149.948C175.859 148.668 176.734 143.561 176.141 142.428C175.547 141.295 172.636 140.267 171.177 142.057C169.626 144.154 168.57 146.615 168.1 149.227C167.958 150.976 168.489 158.128 168.489 158.128L154.65 157.095C152.624 156.951 152.039 158.457 152.034 160.142C152.03 161.826 153.694 163.941 153.694 163.941C153.694 163.941 151.946 164.509 152.268 166.995C152.343 167.699 152.571 168.372 152.932 168.961C153.294 169.55 153.78 170.038 154.352 170.387C153.962 170.681 153.676 171.108 153.542 171.596C153.407 172.084 153.432 172.603 153.613 173.067C153.884 174.197 154.56 175.16 155.497 175.748C155.009 175.993 154.628 176.433 154.437 176.971C154.245 177.509 154.259 178.103 154.474 178.623C155.054 180.782 156.145 182.202 157.845 182.397C159.545 182.591 176.384 183.775 178.015 183.896C179.647 184.017 179.774 183.117 180.644 182.86C181.479 182.723 182.325 182.713 183.158 182.828L184.6 164.743Z" fill="white"/>
<path d="M157.699 182.85C155.961 182.622 154.726 181.248 154.024 178.768C153.839 178.256 153.804 177.694 153.922 177.155C154.04 176.616 154.307 176.124 154.686 175.744C153.946 175.088 153.415 174.201 153.164 173.203C153.015 172.743 152.978 172.249 153.057 171.765C153.135 171.282 153.326 170.825 153.612 170.438C153.115 170.034 152.701 169.527 152.392 168.946C152.083 168.365 151.885 167.723 151.812 167.055C151.682 166.45 151.725 165.814 151.937 165.229C152.149 164.644 152.519 164.138 152.999 163.776C152.213 162.74 151.719 161.482 151.576 160.146C151.538 159.639 151.6 159.126 151.757 158.641C151.913 158.156 152.163 157.71 152.488 157.331C152.784 157.057 153.13 156.853 153.502 156.733C153.875 156.612 154.266 156.578 154.65 156.633L167.994 157.628C167.864 155.917 167.513 150.687 167.64 149.185C168.115 146.474 169.211 143.919 170.829 141.752C171.173 141.349 171.601 141.038 172.076 140.844C172.551 140.65 173.061 140.58 173.562 140.638C174.121 140.662 174.666 140.811 175.164 141.075C175.661 141.339 176.099 141.713 176.45 142.173C176.877 142.932 176.765 144.778 176.547 147.304C176.444 148.159 176.401 149.02 176.417 149.88C176.559 150.972 179.547 158.398 181.821 161.325C183.873 163.972 184.678 164.281 184.711 164.294C184.806 164.32 184.89 164.383 184.945 164.47C185 164.557 185.023 164.663 185.011 164.769L183.507 182.864C183.503 182.927 183.486 182.988 183.458 183.043C183.43 183.098 183.391 183.147 183.344 183.186C183.252 183.262 183.136 183.297 183.021 183.282C182.246 183.167 181.457 183.176 180.68 183.309C180.457 183.386 180.25 183.51 180.071 183.674C179.771 183.935 179.424 184.127 179.054 184.238C178.683 184.349 178.295 184.376 177.917 184.318L175.208 184.121C169.977 183.752 159.077 182.937 157.721 182.815L157.699 182.85ZM173.689 141.58L173.511 141.557C173.139 141.507 172.759 141.553 172.403 141.692C172.047 141.831 171.726 142.058 171.466 142.354C169.98 144.376 168.961 146.741 168.494 149.251C168.35 150.944 168.876 158.002 168.884 158.077C168.888 158.144 168.879 158.21 168.857 158.273C168.836 158.335 168.802 158.393 168.759 158.441C168.714 158.488 168.662 158.526 168.603 158.55C168.545 158.574 168.483 158.585 168.421 158.582L154.582 157.549C154.316 157.506 154.044 157.523 153.783 157.599C153.522 157.674 153.278 157.808 153.066 157.99C152.832 158.294 152.658 158.645 152.555 159.022C152.452 159.399 152.423 159.793 152.469 160.18C152.461 161.429 153.596 163.104 154.03 163.68C154.075 163.738 154.106 163.807 154.12 163.882C154.134 163.956 154.131 164.033 154.112 164.107C154.09 164.181 154.051 164.248 153.998 164.303C153.946 164.357 153.882 164.398 153.812 164.419C153.677 164.467 152.432 164.952 152.696 166.958C152.764 167.585 152.967 168.184 153.289 168.708C153.611 169.231 154.043 169.666 154.552 169.978C154.624 170.012 154.684 170.068 154.725 170.14C154.766 170.211 154.787 170.294 154.784 170.379C154.786 170.462 154.767 170.545 154.729 170.618C154.69 170.691 154.634 170.752 154.566 170.794C154.262 171.04 154.043 171.389 153.947 171.782C153.85 172.175 153.88 172.589 154.033 172.956C154.265 173.963 154.863 174.824 155.696 175.348C155.769 175.387 155.831 175.448 155.872 175.524C155.914 175.6 155.933 175.688 155.929 175.776C155.925 175.865 155.897 175.951 155.848 176.023C155.799 176.096 155.732 176.152 155.655 176.186C155.463 176.286 155.291 176.425 155.148 176.596C155.006 176.767 154.896 176.966 154.824 177.181C154.753 177.396 154.722 177.624 154.732 177.85C154.743 178.077 154.795 178.298 154.887 178.501C155.467 180.66 156.488 181.821 157.885 181.957C159.282 182.094 170.107 182.889 175.338 183.259L178.039 183.454C178.319 183.501 178.607 183.48 178.882 183.395C179.157 183.309 179.413 183.16 179.63 182.959C179.905 182.721 180.222 182.545 180.56 182.442C181.297 182.291 182.048 182.258 182.79 182.345L184.192 165.032C183.047 164.18 182.042 163.132 181.216 161.93C178.927 158.984 175.805 151.392 175.638 150.028C175.608 149.107 175.648 148.183 175.758 147.266C175.898 145.665 176.102 143.247 175.785 142.641C175.246 142.008 174.495 141.627 173.689 141.58Z" fill="#231F20"/>
<path d="M222.026 73.6128L180.477 57.552C179.78 57.2815 179.037 57.1618 178.291 57.1999C177.545 57.2379 176.81 57.433 176.13 57.7738C175.449 58.1147 174.835 58.5947 174.324 59.1864C173.812 59.7781 173.413 60.4698 173.148 61.2221L164.761 85.0547L153.081 88.1558L162.92 90.2942L162.3 92.0646C162.033 92.8164 161.907 93.6144 161.929 94.4129C161.95 95.2114 162.119 95.9947 162.425 96.7177C162.731 97.4407 163.169 98.0892 163.713 98.626C164.257 99.1628 164.897 99.5773 165.596 99.8457L207.144 115.906C208.553 116.45 210.116 116.369 211.49 115.681C212.864 114.993 213.937 113.754 214.473 112.236L225.321 81.3939C225.855 79.8753 225.808 78.203 225.19 76.7441C224.572 75.2851 223.434 74.159 222.026 73.6128Z" fill="url(#paint5_linear_95_647)"/>
<path d="M208.319 116.68C207.866 116.621 207.42 116.506 206.992 116.34L165.478 100.284C163.963 99.6973 162.738 98.4861 162.073 96.9167C161.408 95.3474 161.357 93.5482 161.931 91.9146L162.374 90.6395L153.021 88.6109C152.965 88.612 152.908 88.6011 152.856 88.5789C152.803 88.5566 152.756 88.5234 152.716 88.4812C152.675 88.439 152.644 88.3886 152.622 88.3328C152.6 88.2771 152.589 88.2171 152.589 88.1564C152.589 88.0956 152.6 88.0352 152.622 87.9786C152.644 87.922 152.676 87.8704 152.716 87.8267C152.756 87.7829 152.804 87.7479 152.856 87.7236C152.909 87.6994 152.965 87.6863 153.022 87.6853L164.477 84.6565L172.783 61.0448C173.364 59.4311 174.511 58.1155 175.976 57.3821C177.44 56.6487 179.105 56.5564 180.611 57.1251L222.16 73.1768C223.674 73.7655 224.897 74.9769 225.562 76.5456C226.227 78.1143 226.279 79.9124 225.707 81.5462L214.858 112.389C214.363 113.79 213.44 114.979 212.241 115.757C211.041 116.536 209.637 116.859 208.26 116.673L208.319 116.68ZM154.994 88.1006L162.979 89.8391C163.039 89.8534 163.095 89.8809 163.143 89.9199C163.192 89.9589 163.232 90.0085 163.261 90.0656C163.29 90.1226 163.308 90.1858 163.312 90.2511C163.317 90.3163 163.309 90.3821 163.288 90.4442L162.66 92.2135C162.17 93.6174 162.216 95.162 162.789 96.5088C163.361 97.8556 164.413 98.8947 165.714 99.3984L207.291 115.509C207.935 115.759 208.622 115.87 209.312 115.835C210.001 115.799 210.68 115.619 211.309 115.304C211.938 114.989 212.506 114.546 212.979 113.999C213.452 113.453 213.821 112.813 214.066 112.118L224.902 81.2372C225.392 79.8322 225.346 78.2865 224.774 76.9383C224.202 75.59 223.15 74.5491 221.849 74.0432L180.326 57.9858C179.68 57.7358 178.993 57.6256 178.303 57.6612C177.613 57.6969 176.934 57.8778 176.304 58.1936C175.675 58.5094 175.108 58.9539 174.635 59.5016C174.162 60.0494 173.793 60.6896 173.549 61.3857L165.162 85.2183C165.136 85.2883 165.095 85.3507 165.042 85.4002C164.989 85.4498 164.926 85.4849 164.858 85.5025L154.994 88.1006Z" fill="#231F20"/>
<path d="M211.234 89.9752L200.488 86.9221L196.064 103.664L205.363 106.305L211.234 89.9752Z" fill="#4444A5"/>
<path d="M205.304 106.76L205.244 106.753L195.946 104.111C195.892 104.095 195.841 104.068 195.797 104.03C195.754 103.993 195.717 103.947 195.691 103.895C195.664 103.842 195.647 103.784 195.641 103.724C195.636 103.664 195.641 103.604 195.657 103.546L200.073 86.7939C200.106 86.6777 200.179 86.5785 200.277 86.5172C200.375 86.4558 200.49 86.437 200.6 86.4646L211.344 89.5268C211.402 89.5422 211.457 89.5706 211.504 89.6103C211.55 89.6499 211.589 89.6998 211.616 89.7567C211.642 89.8141 211.656 89.8767 211.658 89.9406C211.66 90.0046 211.65 90.0686 211.628 90.1286L205.766 106.46C205.731 106.558 205.666 106.642 205.582 106.696C205.498 106.751 205.4 106.774 205.304 106.76ZM196.599 103.336L205.106 105.763L210.658 90.2887L200.795 87.4806L196.599 103.336Z" fill="#231F20"/>
<path d="M199.532 102.942C200.234 103.033 200.884 102.497 200.982 101.743C201.081 100.989 200.591 100.303 199.889 100.211C199.186 100.119 198.537 100.656 198.438 101.41C198.339 102.164 198.829 102.85 199.532 102.942Z" fill="#231F20"/>
<path d="M200.206 87.9591C200.206 87.9591 199.58 87.6643 198.206 84.976C196.856 81.757 195.961 78.3333 195.55 74.816C195.599 73.7764 197.063 69.8392 196.683 68.8545C196.303 67.8698 194.23 66.5711 192.824 67.7573C191.303 69.168 190.12 70.9484 189.377 72.9441C189.016 74.3134 188.444 80.0797 188.444 80.0797L177.672 77.0233C176.093 76.5668 175.425 77.655 175.178 79.0114C174.932 80.3678 175.948 82.2965 175.948 82.2965C175.481 82.3899 175.061 82.6674 174.771 83.0738C174.481 83.4801 174.343 83.9856 174.384 84.4896C174.343 85.0624 174.427 85.6352 174.631 86.1619C174.835 86.6886 175.152 87.1544 175.557 87.522C175.204 87.6908 174.914 87.9844 174.737 88.3529C174.56 88.7213 174.507 89.1417 174.586 89.5426C174.641 90.4822 175.038 91.3546 175.691 91.9737C175.272 92.0906 174.91 92.378 174.683 92.7741C174.455 93.1702 174.38 93.6434 174.474 94.0918C174.65 95.9107 175.291 97.2073 176.598 97.6374C177.905 98.0674 191.029 101.737 192.301 102.098C193.574 102.459 193.793 101.774 194.517 101.712C195.194 101.738 195.862 101.866 196.503 102.092L200.206 87.9591Z" fill="white"/>
<path d="M192.627 102.64C192.467 102.632 192.308 102.611 192.152 102.578L190.197 102.026C186.036 100.862 177.491 98.4577 176.433 98.1064C175.044 97.647 174.225 96.3271 174.022 94.1808C173.947 93.7448 173.993 93.2924 174.154 92.8793C174.316 92.4662 174.585 92.1104 174.93 91.8556C174.465 91.2138 174.186 90.4376 174.127 89.6214C174.078 89.2333 174.117 88.8366 174.241 88.4646C174.365 88.0926 174.569 87.7561 174.838 87.4834C174.191 86.6569 173.867 85.5916 173.933 84.5047C173.919 84.0023 174.041 83.5037 174.285 83.069C174.528 82.6343 174.883 82.2822 175.306 82.0552C174.85 81.109 174.649 80.0416 174.726 78.9707C174.765 78.548 174.887 78.1373 175.085 77.7658C175.282 77.3942 175.55 77.0703 175.871 76.8154C176.152 76.6396 176.464 76.5299 176.785 76.4937C177.107 76.4575 177.431 76.4957 177.735 76.6057L188.036 79.4987C188.229 78.0243 188.64 74.0234 188.952 72.8238C189.717 70.7327 190.951 68.868 192.543 67.3966C192.885 67.1215 193.281 66.9368 193.7 66.8579C194.118 66.779 194.547 66.8081 194.949 66.9428C195.399 67.0556 195.82 67.2687 196.185 67.5684C196.55 67.8681 196.851 68.2477 197.068 68.6825C197.313 69.3811 196.966 70.7799 196.422 72.8286C196.224 73.485 196.071 74.1547 195.962 74.8327C196.377 78.2625 197.253 81.601 198.564 84.745C199.787 87.1359 200.366 87.5263 200.39 87.5388C200.478 87.5842 200.548 87.6624 200.586 87.7592C200.624 87.8559 200.628 87.9647 200.597 88.0657L196.869 102.195C196.854 102.255 196.827 102.312 196.791 102.361C196.755 102.411 196.71 102.452 196.659 102.482C196.607 102.513 196.549 102.531 196.491 102.536C196.432 102.541 196.373 102.533 196.318 102.512C195.731 102.297 195.117 102.176 194.493 102.153C194.318 102.177 194.148 102.24 193.995 102.338C193.578 102.593 193.099 102.699 192.627 102.64ZM177.193 77.3864C176.892 77.3241 176.578 77.3817 176.31 77.5486C175.881 77.9402 175.608 78.4918 175.548 79.0874C175.525 80.1363 175.776 81.1659 176.272 82.0611C176.306 82.1288 176.324 82.2046 176.324 82.2821C176.324 82.3596 176.307 82.4363 176.274 82.5057C176.24 82.5735 176.191 82.6313 176.131 82.6736C176.071 82.716 176.003 82.7416 175.932 82.7479C175.83 82.7346 174.837 82.938 174.762 84.5019C174.729 84.9992 174.802 85.496 174.975 85.9548C175.148 86.4136 175.417 86.8224 175.761 87.1506C175.823 87.1984 175.872 87.2635 175.902 87.3392C175.932 87.4148 175.942 87.4981 175.931 87.5802C175.921 87.6622 175.889 87.7401 175.841 87.8055C175.793 87.8709 175.729 87.9213 175.656 87.9515C175.589 87.9426 174.895 88.2963 174.989 89.4935C175.034 90.3062 175.371 91.0632 175.929 91.6067C175.994 91.6587 176.043 91.7306 176.069 91.8132C176.095 91.8958 176.097 91.9852 176.075 92.0702C176.056 92.1547 176.015 92.232 175.956 92.2932C175.898 92.3544 175.825 92.3969 175.745 92.4158C175.59 92.4622 175.444 92.541 175.316 92.6477C175.188 92.7543 175.081 92.8867 175 93.0371C174.919 93.1875 174.867 93.3531 174.846 93.5241C174.825 93.6951 174.836 93.8683 174.878 94.0335C175.051 95.8149 175.649 96.8467 176.707 97.198C177.765 97.5493 186.311 99.9444 190.43 101.103L192.393 101.656C192.597 101.737 192.816 101.767 193.034 101.744C193.252 101.721 193.464 101.646 193.653 101.525C193.908 101.378 194.187 101.285 194.473 101.252C195.047 101.237 195.619 101.312 196.169 101.474L199.702 88.0505C198.936 87.1845 198.3 86.1961 197.817 85.1194C196.434 81.8246 195.517 78.3201 195.096 74.7196C195.201 73.9692 195.367 73.2289 195.593 72.5073C195.9 71.344 196.421 69.4034 196.264 68.8922C195.911 68.2863 195.348 67.857 194.695 67.6965C194.422 67.6021 194.131 67.5788 193.846 67.6283C193.56 67.6779 193.289 67.799 193.053 67.9817C191.607 69.3332 190.477 71.0295 189.758 72.9291C189.405 74.2438 188.842 79.9373 188.834 79.9919C188.826 80.0587 188.805 80.1232 188.772 80.1811C188.739 80.239 188.696 80.2891 188.644 80.328C188.592 80.3638 188.533 80.388 188.473 80.3992C188.412 80.4103 188.35 80.4082 188.29 80.3928L177.52 77.3273L177.193 77.3864Z" fill="#231F20"/>
<defs>
<linearGradient id="paint0_linear_95_647" x1="132.235" y1="14.3902" x2="107.821" y2="201.072" gradientUnits="userSpaceOnUse">
<stop stop-color="#DA67FA"/>
<stop offset="1" stop-color="#F49867"/>
</linearGradient>
<linearGradient id="paint1_linear_95_647" x1="130.329" y1="31.563" x2="111.797" y2="173.273" gradientUnits="userSpaceOnUse">
<stop stop-color="#FFE259"/>
<stop offset="1" stop-color="#FFA751"/>
</linearGradient>
<linearGradient id="paint2_linear_95_647" x1="62.7085" y1="23.2435" x2="53.5676" y2="93.1407" gradientUnits="userSpaceOnUse">
<stop stop-color="#DA67FA"/>
<stop offset="1" stop-color="#F49867"/>
</linearGradient>
<linearGradient id="paint3_linear_95_647" x1="45.0536" y1="123.953" x2="39.5764" y2="165.835" gradientUnits="userSpaceOnUse">
<stop stop-color="#DA67FA"/>
<stop offset="1" stop-color="#F49867"/>
</linearGradient>
<linearGradient id="paint4_linear_95_647" x1="179.54" y1="131.561" x2="170.934" y2="197.37" gradientUnits="userSpaceOnUse">
<stop stop-color="#DA67FA"/>
<stop offset="1" stop-color="#F49867"/>
</linearGradient>
<linearGradient id="paint5_linear_95_647" x1="192.644" y1="58.9895" x2="185.55" y2="113.234" gradientUnits="userSpaceOnUse">
<stop stop-color="#DA67FA"/>
<stop offset="1" stop-color="#F49867"/>
</linearGradient>
</defs>
</svg>
