<svg width="299" height="314" viewBox="0 0 299 314" fill="none" xmlns="http://www.w3.org/2000/svg">
<g filter="url(#filter0_d_62_3012)">
<path d="M262.012 141.558C261.604 141.558 261.212 141.39 260.923 141.092C260.634 140.794 260.472 140.39 260.472 139.969V133.614C260.472 133.192 260.634 132.788 260.923 132.49C261.212 132.192 261.604 132.025 262.012 132.025C262.421 132.025 262.812 132.192 263.101 132.49C263.39 132.788 263.552 133.192 263.552 133.614V139.969C263.552 140.39 263.39 140.794 263.101 141.092C262.812 141.39 262.421 141.558 262.012 141.558Z" fill="#DFEAEF"/>
<path d="M262.012 156.016C261.604 156.016 261.212 155.849 260.923 155.551C260.634 155.253 260.472 154.849 260.472 154.427V148.072C260.472 147.651 260.634 147.246 260.923 146.948C261.212 146.651 261.604 146.483 262.012 146.483C262.421 146.483 262.812 146.651 263.101 146.948C263.39 147.246 263.552 147.651 263.552 148.072V154.427C263.552 154.849 263.39 155.253 263.101 155.551C262.812 155.849 262.421 156.016 262.012 156.016Z" fill="#DFEAEF"/>
<path d="M272.13 145.577H265.97C265.562 145.577 265.17 145.41 264.881 145.112C264.592 144.814 264.43 144.41 264.43 143.989C264.43 143.567 264.592 143.163 264.881 142.865C265.17 142.567 265.562 142.4 265.97 142.4H272.13C272.538 142.4 272.93 142.567 273.219 142.865C273.508 143.163 273.67 143.567 273.67 143.989C273.67 144.41 273.508 144.814 273.219 145.112C272.93 145.41 272.538 145.577 272.13 145.577Z" fill="#DFEAEF"/>
<path d="M258.116 145.577H251.956C251.548 145.577 251.156 145.41 250.867 145.112C250.578 144.814 250.416 144.41 250.416 143.989C250.416 143.567 250.578 143.163 250.867 142.865C251.156 142.567 251.548 142.4 251.956 142.4H258.116C258.524 142.4 258.916 142.567 259.205 142.865C259.494 143.163 259.656 143.567 259.656 143.989C259.656 144.41 259.494 144.814 259.205 145.112C258.916 145.41 258.524 145.577 258.116 145.577Z" fill="#DFEAEF"/>
<path d="M184.797 16.3095C184.388 16.3095 183.996 16.1421 183.708 15.8441C183.419 15.5462 183.257 15.142 183.257 14.7206V8.36528C183.257 7.9439 183.419 7.53977 183.708 7.2418C183.996 6.94384 184.388 6.77644 184.797 6.77644C185.205 6.77644 185.597 6.94384 185.886 7.2418C186.174 7.53977 186.337 7.9439 186.337 8.36528V14.7206C186.337 15.142 186.174 15.5462 185.886 15.8441C185.597 16.1421 185.205 16.3095 184.797 16.3095Z" fill="#DFEAEF"/>
<path d="M184.797 30.7838C184.388 30.7838 183.996 30.6164 183.708 30.3185C183.419 30.0205 183.257 29.6164 183.257 29.195V22.7602C183.257 22.3388 183.419 21.9347 183.708 21.6367C183.996 21.3387 184.388 21.1713 184.797 21.1713C185.205 21.1713 185.597 21.3387 185.886 21.6367C186.174 21.9347 186.337 22.3388 186.337 22.7602V29.195C186.337 29.6164 186.174 30.0205 185.886 30.3185C185.597 30.6164 185.205 30.7838 184.797 30.7838Z" fill="#DFEAEF"/>
<path d="M194.914 20.3928H188.754C188.346 20.3928 187.954 20.2254 187.665 19.9274C187.377 19.6295 187.214 19.2253 187.214 18.804C187.214 18.3826 187.377 17.9784 187.665 17.6805C187.954 17.3825 188.346 17.2151 188.754 17.2151H194.914C195.323 17.2151 195.714 17.3825 196.003 17.6805C196.292 17.9784 196.454 18.3826 196.454 18.804C196.454 19.2253 196.292 19.6295 196.003 19.9274C195.714 20.2254 195.323 20.3928 194.914 20.3928Z" fill="#DFEAEF"/>
<path d="M180.9 20.3928H174.74C174.332 20.3928 173.94 20.2254 173.651 19.9274C173.363 19.6295 173.2 19.2253 173.2 18.804C173.2 18.3826 173.363 17.9784 173.651 17.6805C173.94 17.3825 174.332 17.2151 174.74 17.2151H180.9C181.309 17.2151 181.701 17.3825 181.989 17.6805C182.278 17.9784 182.44 18.3826 182.44 18.804C182.44 19.2253 182.278 19.6295 181.989 19.9274C181.701 20.2254 181.309 20.3928 180.9 20.3928Z" fill="#DFEAEF"/>
<path d="M272.423 95.9104C272.014 95.9104 271.622 95.743 271.334 95.445C271.045 95.147 270.883 94.7429 270.883 94.3215V82.5006C270.883 82.0792 271.045 81.675 271.334 81.3771C271.622 81.0791 272.014 80.9117 272.423 80.9117C272.831 80.9117 273.223 81.0791 273.511 81.3771C273.8 81.675 273.963 82.0792 273.963 82.5006V94.3215C273.963 94.7429 273.8 95.147 273.511 95.445C273.223 95.743 272.831 95.9104 272.423 95.9104Z" fill="#DFEAEF"/>
<path d="M278.136 89.9999H266.74C266.332 89.9999 265.94 89.8325 265.651 89.5345C265.362 89.2366 265.2 88.8324 265.2 88.411C265.2 87.9897 265.362 87.5855 265.651 87.2876C265.94 86.9896 266.332 86.8222 266.74 86.8222H278.182C278.591 86.8222 278.982 86.9896 279.271 87.2876C279.56 87.5855 279.722 87.9897 279.722 88.411C279.722 88.8324 279.56 89.2366 279.271 89.5345C278.982 89.8325 278.591 89.9999 278.182 89.9999H278.136Z" fill="#DFEAEF"/>
<path d="M138.886 291.102L230.432 231.715C236.79 227.591 238.704 218.93 234.706 212.371L122.527 28.2999C118.53 21.7405 110.135 19.7665 103.778 23.8907L12.231 83.2769C5.87326 87.4012 3.95988 96.0621 7.95739 102.621L120.136 286.692C124.133 293.252 132.528 295.226 138.886 291.102Z" fill="#093F68"/>
<path d="M131.682 294.865C129.118 294.871 126.594 294.205 124.347 292.93C122.101 291.654 120.205 289.81 118.838 287.572L6.6494 103.505C5.58752 101.771 4.8678 99.8379 4.53148 97.8164C4.19516 95.7949 4.24886 93.7249 4.6895 91.7248C5.13015 89.7248 5.94907 87.8341 7.09933 86.1613C8.24958 84.4884 9.70856 83.0662 11.3926 81.9762L102.946 22.5695C106.345 20.3711 110.451 19.6533 114.363 20.5737C118.275 21.494 121.673 23.9773 123.813 27.479L236.017 211.546C238.158 215.045 238.865 219.277 237.985 223.313C237.104 227.349 234.707 230.86 231.32 233.075L139.767 292.482C137.347 294.054 134.542 294.881 131.682 294.865ZM110.984 23.3639C108.721 23.3573 106.504 24.0188 104.593 25.2705L13.0404 84.6614C11.6997 85.5296 10.5381 86.662 9.62201 87.9938C8.70589 89.3256 8.05324 90.8306 7.70138 92.4229C7.34953 94.0151 7.30538 95.6633 7.57145 97.2732C7.83752 98.883 8.40859 100.423 9.252 101.805L121.441 285.872C123.146 288.663 125.855 290.642 128.973 291.375C132.092 292.108 135.364 291.535 138.073 289.781L229.626 230.39C230.965 229.52 232.126 228.387 233.04 227.055C233.955 225.722 234.606 224.217 234.956 222.625C235.307 221.033 235.35 219.385 235.082 217.776C234.815 216.166 234.243 214.627 233.399 213.246L121.21 29.1632C120.123 27.3807 118.613 25.913 116.825 24.8985C115.036 23.8839 113.026 23.3558 110.984 23.3639Z" fill="#093F68"/>
<path d="M152.18 280.61L244.098 221.479C250.482 217.372 252.43 208.704 248.45 202.118L136.753 17.3001C132.772 10.7141 124.371 8.7041 117.987 12.8107L26.0692 71.9419C19.6856 76.0485 17.7375 84.7166 21.7178 91.3026L133.415 276.12C137.395 282.706 145.797 284.716 152.18 280.61Z" fill="url(#paint0_linear_62_3012)"/>
<path d="M145.942 285.618C143.377 285.621 140.853 284.952 138.606 283.674C136.36 282.395 134.465 280.549 133.099 278.309L20.9098 94.2421C19.8486 92.5072 19.1298 90.5732 18.7947 88.5511C18.4595 86.529 18.5145 84.4585 18.9566 82.4584C19.3987 80.4582 20.2192 78.5678 21.3709 76.8956C22.5227 75.2233 23.9831 73.802 25.6684 72.7133L117.206 13.3225C120.607 11.119 124.716 10.3984 128.632 11.3189C132.547 12.2395 135.949 14.7259 138.088 18.232L250.277 202.299C252.393 205.8 253.08 210.022 252.188 214.044C251.297 218.066 248.899 221.56 245.519 223.764L153.966 283.155C151.571 284.743 148.789 285.597 145.942 285.618ZM125.245 14.0374C122.983 14.0387 120.767 14.6996 118.854 15.9441L27.3008 75.3508C25.9586 76.2175 24.7955 77.3492 23.8782 78.6809C22.9609 80.0126 22.3075 81.518 21.9555 83.1108C21.6036 84.7036 21.5599 86.3525 21.8271 87.9627C22.0942 89.573 22.667 91.113 23.5124 92.4944L135.717 276.561C137.419 279.352 140.125 281.331 143.241 282.063C146.357 282.796 149.627 282.223 152.333 280.47L243.886 221.063C246.591 219.307 248.509 216.515 249.219 213.3C249.93 210.086 249.374 206.712 247.675 203.92L135.47 19.9162C134.633 18.5318 133.538 17.3329 132.248 16.3892C130.957 15.4455 129.498 14.7757 127.955 14.4188C127.069 14.1819 126.16 14.0539 125.245 14.0374Z" fill="#093F68"/>
<path d="M138.228 254.481L227.258 196.727C230.585 194.57 231.586 190.038 229.494 186.606L140.555 40.6675C138.463 37.2355 134.071 36.2026 130.745 38.3605L41.7142 96.1145C38.3877 98.2723 37.3866 102.804 39.4782 106.236L128.418 252.174C130.509 255.606 134.902 256.639 138.228 254.481Z" fill="url(#paint1_linear_62_3012)"/>
<path d="M134.454 257.225C132.99 257.229 131.55 256.849 130.268 256.121C128.986 255.392 127.904 254.34 127.124 253.063L38.1578 107.112C37.5532 106.12 37.1442 105.015 36.954 103.86C36.7638 102.704 36.7962 101.522 37.0494 100.38C37.3026 99.2376 37.7715 98.1581 38.4294 97.2031C39.0873 96.2481 39.9213 95.4363 40.8836 94.8141L129.926 37.0439C131.867 35.787 134.212 35.3756 136.446 35.8998C138.681 36.424 140.623 37.841 141.846 39.8402L230.812 185.791C232.025 187.797 232.419 190.216 231.908 192.52C231.397 194.824 230.023 196.826 228.086 198.089L139.043 255.875C137.668 256.763 136.077 257.231 134.454 257.225ZM134.516 38.8392C133.468 38.8417 132.443 39.1502 131.559 39.729L42.516 97.4992C41.8938 97.9008 41.3549 98.4255 40.9303 99.043C40.5056 99.6606 40.2037 100.359 40.0419 101.097C39.8802 101.836 39.8617 102.6 39.9877 103.346C40.1136 104.092 40.3815 104.805 40.7758 105.443L129.68 251.378C130.472 252.668 131.727 253.581 133.17 253.918C134.614 254.254 136.128 253.987 137.38 253.174L226.423 195.403C227.045 195.002 227.584 194.477 228.008 193.86C228.433 193.242 228.735 192.544 228.897 191.805C229.059 191.067 229.077 190.303 228.951 189.557C228.825 188.811 228.557 188.098 228.163 187.459L139.243 41.5403C138.855 40.8999 138.348 40.3455 137.75 39.9091C137.153 39.4727 136.477 39.163 135.763 38.9981C135.355 38.8906 134.936 38.8372 134.516 38.8392Z" fill="#093F68"/>
<path d="M98.264 47.3872C99.4717 47.3872 100.451 46.3771 100.451 45.131C100.451 43.885 99.4717 42.8749 98.264 42.8749C97.0562 42.8749 96.0771 43.885 96.0771 45.131C96.0771 46.3771 97.0562 47.3872 98.264 47.3872Z" fill="#093F68"/>
<path d="M59.8102 71.6647C59.4748 71.6658 59.1483 71.554 58.8802 71.3462C58.6121 71.1384 58.4171 70.846 58.3248 70.5134C58.2324 70.1808 58.2478 69.8262 58.3686 69.5035C58.4894 69.1808 58.7089 68.9075 58.994 68.7253L88.5928 49.5162C88.7647 49.4057 88.956 49.3311 89.1558 49.2968C89.3556 49.2625 89.5601 49.2691 89.7574 49.3163C89.9548 49.3636 90.1412 49.4504 90.306 49.5719C90.4708 49.6935 90.6108 49.8473 90.7179 50.0247C90.8251 50.202 90.8974 50.3994 90.9307 50.6056C90.9639 50.8118 90.9575 51.0227 90.9117 51.2263C90.8659 51.4299 90.7817 51.6222 90.6639 51.7922C90.5462 51.9622 90.3971 52.1067 90.2252 52.2173L60.6264 71.4263C60.3813 71.583 60.0985 71.6656 59.8102 71.6647Z" fill="#093F68"/>
<path d="M190.402 247.676C195.488 247.676 199.611 243.422 199.611 238.175C199.611 232.928 195.488 228.674 190.402 228.674C185.316 228.674 181.193 232.928 181.193 238.175C181.193 243.422 185.316 247.676 190.402 247.676Z" fill="#093F68"/>
<path d="M52.449 173.462C52.1182 173.457 51.7975 173.343 51.5345 173.136C51.2714 172.929 51.0799 172.641 50.9883 172.313C50.8968 171.985 50.91 171.635 51.0261 171.315C51.1421 170.996 51.3549 170.723 51.6328 170.538L58.8246 165.867C58.9953 165.738 59.1898 165.647 59.3962 165.599C59.6025 165.551 59.8162 165.548 60.0239 165.589C60.2316 165.63 60.4288 165.715 60.6034 165.838C60.7779 165.961 60.926 166.12 61.0383 166.305C61.1507 166.49 61.2249 166.697 61.2565 166.912C61.288 167.128 61.2762 167.348 61.2216 167.559C61.1671 167.77 61.071 167.967 60.9395 168.138C60.8079 168.309 60.6437 168.45 60.457 168.552L53.2652 173.223C53.0201 173.38 52.7373 173.463 52.449 173.462Z" fill="#093F68"/>
<path d="M218.307 190.399C218.049 190.398 217.796 190.331 217.57 190.203C217.344 190.076 217.152 189.892 217.013 189.668L193.421 151.154C193.202 150.798 193.13 150.367 193.219 149.956C193.309 149.545 193.553 149.187 193.898 148.962C194.243 148.736 194.661 148.662 195.059 148.754C195.458 148.846 195.805 149.098 196.023 149.454L219.616 187.936C219.724 188.112 219.798 188.309 219.832 188.514C219.867 188.72 219.862 188.931 219.817 189.134C219.773 189.338 219.69 189.53 219.574 189.701C219.457 189.872 219.309 190.017 219.139 190.129C218.89 190.293 218.602 190.387 218.307 190.399Z" fill="#DFEAEF"/>
<path d="M70.6518 133.057C70.3941 133.057 70.1406 132.99 69.9146 132.862C69.6886 132.734 69.4973 132.55 69.3582 132.327L64.6304 124.748C64.5186 124.571 64.442 124.374 64.4049 124.166C64.3679 123.959 64.3713 123.746 64.4148 123.54C64.4582 123.336 64.5404 123.142 64.6567 122.97C64.7729 122.798 64.921 122.652 65.0924 122.539L144.094 71.045C144.436 70.8231 144.849 70.7486 145.244 70.8378C145.638 70.927 145.983 71.1726 146.204 71.5217L165.855 101.964C165.98 102.137 166.071 102.334 166.12 102.544C166.17 102.754 166.177 102.972 166.142 103.185C166.107 103.398 166.03 103.601 165.916 103.783C165.802 103.964 165.654 104.12 165.48 104.24C165.306 104.36 165.11 104.442 164.904 104.481C164.698 104.521 164.486 104.516 164.282 104.468C164.078 104.42 163.885 104.33 163.716 104.202C163.547 104.075 163.405 103.913 163.298 103.727L144.479 74.5722L68.08 124.366L71.9608 130.611C72.1808 130.965 72.2556 131.394 72.169 131.805C72.0824 132.216 71.8414 132.575 71.4988 132.803C71.2465 132.971 70.9521 133.06 70.6518 133.057Z" fill="#DFEAEF"/>
<path d="M108.828 172.778C108.617 172.778 108.408 172.732 108.215 172.645C108.022 172.557 107.848 172.43 107.704 172.27C107.427 171.962 107.28 171.553 107.294 171.133C107.309 170.714 107.484 170.317 107.781 170.03L168.657 111.243C168.956 110.954 169.353 110.799 169.761 110.813C170.17 110.826 170.557 111.007 170.836 111.314C171.116 111.622 171.266 112.031 171.253 112.453C171.24 112.875 171.065 113.274 170.767 113.562L109.876 172.349C109.592 172.624 109.217 172.777 108.828 172.778Z" fill="#093F68"/>
<path d="M159.849 200.917C159.584 200.916 159.324 200.845 159.094 200.71C158.917 200.609 158.761 200.473 158.635 200.31C158.509 200.146 158.415 199.959 158.36 199.758C158.304 199.558 158.287 199.347 158.31 199.14C158.333 198.933 158.395 198.732 158.493 198.549L194.36 132.771C194.564 132.405 194.901 132.137 195.297 132.027C195.693 131.916 196.114 131.973 196.47 132.184C196.825 132.394 197.085 132.742 197.192 133.15C197.298 133.558 197.244 133.994 197.04 134.36L161.158 200.138C161.023 200.373 160.831 200.568 160.602 200.705C160.373 200.841 160.113 200.914 159.849 200.917Z" fill="#093F68"/>
<path d="M135.147 147.357C134.891 147.358 134.638 147.294 134.412 147.169C134.186 147.044 133.994 146.863 133.853 146.642C132.297 143.962 130.2 141.658 127.705 139.888C125.21 138.117 122.375 136.92 119.393 136.378C111.231 134.948 100.99 138.364 91.9961 145.514C91.7817 145.689 91.526 145.801 91.2553 145.84C90.9847 145.88 90.7089 145.844 90.4561 145.736C90.2079 145.635 89.9893 145.469 89.822 145.255C89.6546 145.04 89.5441 144.785 89.5013 144.513C88.9486 141.628 87.613 138.965 85.6501 136.832C83.6871 134.7 81.1774 133.187 78.4134 132.47C75.5687 131.794 72.6142 131.777 69.7624 132.42C66.9105 133.062 64.2322 134.349 61.9199 136.187C61.7563 136.311 61.5706 136.4 61.3735 136.449C61.1765 136.499 60.9719 136.507 60.7716 136.475C60.5712 136.442 60.3791 136.369 60.2062 136.26C60.0333 136.151 59.883 136.007 59.764 135.838C59.5254 135.5 59.4255 135.079 59.486 134.665C59.5466 134.252 59.7626 133.88 60.0873 133.629C62.7736 131.514 65.8795 130.037 69.1833 129.304C72.487 128.57 75.907 128.599 79.1987 129.387C82.1332 130.183 84.8339 131.708 87.0648 133.83C89.2957 135.952 90.9889 138.605 91.9961 141.558C101.236 134.773 111.354 131.739 119.886 133.232C123.292 133.845 126.531 135.204 129.384 137.219C132.238 139.233 134.639 141.856 136.425 144.91C136.574 145.15 136.658 145.427 136.668 145.712C136.678 145.997 136.613 146.279 136.481 146.529C136.349 146.779 136.154 146.988 135.916 147.134C135.679 147.279 135.408 147.357 135.132 147.357H135.147Z" fill="#093F68"/>
<path d="M115.82 178.673C115.453 178.673 115.098 178.538 114.819 178.292C100.666 165.994 79.6608 172.985 79.399 173.049C79.013 173.18 78.5924 173.148 78.2289 172.96C77.8655 172.773 77.5885 172.445 77.4585 172.048C77.3933 171.849 77.3667 171.64 77.3802 171.431C77.3937 171.222 77.447 171.018 77.5372 170.831C77.6274 170.643 77.7525 170.476 77.9055 170.338C78.0585 170.201 78.2363 170.096 78.4288 170.03C79.3528 169.728 101.267 162.419 116.759 175.861C117.004 176.07 117.179 176.351 117.263 176.667C117.346 176.982 117.333 177.317 117.225 177.624C117.117 177.932 116.92 178.198 116.66 178.386C116.4 178.573 116.091 178.674 115.774 178.673H115.82Z" fill="#093F68"/>
<path d="M207.388 207.558C206.998 207.559 206.622 207.407 206.336 207.133C206.05 206.858 205.876 206.482 205.848 206.081C205.814 205.089 205.576 204.117 205.151 203.227C204.727 202.337 204.125 201.55 203.384 200.917C200.828 198.74 196.254 197.866 190.818 198.518C190.565 198.547 190.309 198.511 190.073 198.414C189.837 198.316 189.627 198.159 189.464 197.958C189.301 197.756 189.189 197.516 189.137 197.259C189.086 197.002 189.097 196.736 189.17 196.484C189.908 193.965 190.092 191.308 189.709 188.706C189.326 186.105 188.386 183.624 186.956 181.444C185.527 179.265 183.645 177.442 181.446 176.108C179.248 174.773 176.788 173.962 174.248 173.732C173.839 173.694 173.462 173.49 173.199 173.165C172.936 172.84 172.809 172.421 172.846 172C172.883 171.579 173.08 171.189 173.395 170.918C173.71 170.647 174.116 170.516 174.525 170.554C177.336 170.806 180.064 171.662 182.535 173.068C185.005 174.474 187.163 176.398 188.869 178.717C190.575 181.035 191.792 183.696 192.441 186.529C193.089 189.362 193.155 192.304 192.635 195.165C196.454 194.959 201.737 195.372 205.34 198.454C206.405 199.359 207.274 200.484 207.892 201.756C208.51 203.029 208.863 204.421 208.928 205.842C208.943 206.051 208.918 206.261 208.853 206.459C208.789 206.658 208.688 206.841 208.555 206.999C208.422 207.157 208.26 207.287 208.078 207.38C207.896 207.473 207.699 207.528 207.496 207.542L207.388 207.558Z" fill="#093F68"/>
<path d="M192.065 209.147C191.689 209.15 191.325 209.011 191.042 208.757C190.758 208.502 190.574 208.149 190.525 207.765C190.055 204.461 188.626 201.381 186.427 198.931C184.228 196.481 181.362 194.775 178.205 194.037C178.007 193.994 177.819 193.91 177.652 193.792C177.485 193.673 177.342 193.522 177.232 193.346C177.122 193.17 177.046 192.974 177.01 192.768C176.973 192.562 176.977 192.351 177.02 192.146C177.062 191.942 177.142 191.748 177.257 191.575C177.372 191.403 177.519 191.256 177.69 191.142C177.86 191.028 178.05 190.95 178.25 190.913C178.449 190.875 178.654 190.879 178.852 190.923C182.617 191.819 186.033 193.866 188.651 196.797C191.27 199.728 192.97 203.407 193.528 207.352C193.581 207.769 193.471 208.19 193.223 208.524C192.974 208.857 192.608 209.076 192.204 209.131L192.065 209.147Z" fill="#093F68"/>
<path d="M186.09 69.8534C180.842 68.6087 175.398 68.5171 170.113 69.5846C164.828 70.6522 159.819 72.855 155.413 76.0499C142.462 85.1539 134.516 98.6908 128.571 112.466C128.356 112.979 128.315 113.553 128.455 114.093C128.596 114.633 128.909 115.108 129.345 115.441C129.78 115.775 130.312 115.946 130.853 115.928C131.395 115.91 131.915 115.703 132.329 115.342C136.852 110.943 142.568 108.072 148.714 107.112C160.757 105.618 165.793 110.83 165.793 110.83L186.09 69.8534Z" fill="#F56132"/>
<path d="M130.773 117.566C129.934 117.561 129.119 117.276 128.448 116.756C127.705 116.22 127.169 115.43 126.936 114.526C126.702 113.622 126.785 112.662 127.17 111.815C131.913 100.82 139.921 85.0109 154.551 74.7311C159.142 71.3957 164.368 69.1043 169.882 68.0087C175.396 66.9131 181.073 67.0382 186.537 68.3758C186.752 68.4434 186.95 68.5588 187.117 68.7139C187.285 68.869 187.417 69.06 187.505 69.2736C187.593 69.4871 187.635 69.718 187.627 69.9499C187.62 70.1818 187.563 70.4092 187.461 70.616L167.164 111.592C167.054 111.819 166.893 112.015 166.695 112.164C166.496 112.313 166.266 112.411 166.024 112.45C165.784 112.487 165.538 112.464 165.308 112.384C165.078 112.304 164.869 112.169 164.7 111.989C164.7 111.989 159.926 107.366 148.899 108.812C143.061 109.707 137.633 112.443 133.361 116.645C132.634 117.263 131.715 117.591 130.773 117.566ZM177.836 70.4572C170.137 70.4568 162.619 72.8668 156.276 77.3686C142.308 87.1717 134.577 102.472 129.973 113.102C129.887 113.29 129.869 113.505 129.922 113.706C129.976 113.907 130.098 114.081 130.265 114.198C130.409 114.331 130.596 114.404 130.789 114.404C130.982 114.404 131.168 114.331 131.312 114.198C136.05 109.56 142.066 106.551 148.53 105.586C157.431 104.474 162.775 106.873 165.239 108.478L183.811 71.0132C181.839 70.6487 179.839 70.4627 177.836 70.4572Z" fill="#093F68"/>
<path d="M230.103 103.012C232.848 107.792 234.587 113.114 235.207 118.633C235.828 124.151 235.317 129.742 233.707 135.043C229.241 150.551 219.139 162.467 208.235 172.492C207.83 172.875 207.309 173.102 206.76 173.135C206.212 173.168 205.669 173.004 205.224 172.672C204.779 172.339 204.458 171.859 204.317 171.311C204.175 170.763 204.221 170.181 204.447 169.664C207.135 163.888 208.043 157.4 207.05 151.075C204.77 138.777 198.441 135.409 198.441 135.409L230.103 103.012Z" fill="#F56132"/>
<path d="M206.68 174.765C205.836 174.757 205.017 174.473 204.339 173.954C203.607 173.42 203.079 172.638 202.845 171.745C202.612 170.852 202.688 169.902 203.061 169.061C205.64 163.584 206.517 157.419 205.571 151.409C203.492 140.144 197.871 136.887 197.763 136.855C197.548 136.739 197.362 136.572 197.221 136.368C197.079 136.164 196.987 135.929 196.951 135.681C196.915 135.433 196.936 135.18 197.013 134.942C197.09 134.704 197.221 134.488 197.394 134.313L229.056 101.916C229.216 101.751 229.409 101.624 229.622 101.544C229.835 101.464 230.063 101.434 230.288 101.455C230.513 101.477 230.73 101.55 230.924 101.668C231.118 101.786 231.285 101.947 231.412 102.139C234.296 107.107 236.125 112.65 236.781 118.401C237.437 124.152 236.903 129.981 235.216 135.504C230.18 152.981 218.014 165.692 209.298 173.636C208.594 174.339 207.659 174.741 206.68 174.765ZM200.859 135.25C203.076 137.188 206.911 141.717 208.559 150.805C209.621 157.453 208.669 164.278 205.833 170.348C205.746 170.524 205.726 170.728 205.777 170.919C205.829 171.11 205.947 171.275 206.11 171.38C206.262 171.517 206.456 171.592 206.657 171.592C206.858 171.592 207.052 171.517 207.204 171.38C215.627 163.627 227.393 151.377 232.213 134.678C235.067 125.03 234.195 114.618 229.78 105.618L200.859 135.25Z" fill="#093F68"/>
<path d="M247.967 86.5839C230.088 111.831 212.84 127.592 196.347 137.331L164.684 113.499C168.688 94.4327 177.99 72.5862 195.869 47.3554C202.309 38.1901 209.99 30.025 218.677 23.1097C243.763 3.24923 268.111 1.75572 268.111 1.75572C268.111 1.75572 274.147 26.1444 263.414 56.8408C259.662 67.4626 254.461 77.4779 247.967 86.5839Z" fill="url(#paint2_linear_62_3012)"/>
<path d="M196.347 138.92C196.019 138.917 195.7 138.806 195.438 138.602L163.776 114.77C163.539 114.591 163.358 114.347 163.251 114.066C163.145 113.784 163.118 113.477 163.175 113.181C167.656 91.8111 177.944 69.9805 194.622 46.4498C201.148 37.1683 208.927 28.8969 217.722 21.8863C242.901 1.94638 267.002 0.262206 268.003 0.21454C268.352 0.203124 268.696 0.31492 268.975 0.531515C269.255 0.748111 269.455 1.05659 269.543 1.40617C269.789 2.40714 275.564 26.6052 264.8 57.4128C261.007 68.1972 255.732 78.3637 249.138 87.6007C232.475 111.147 215.427 127.894 197.055 138.777C196.833 138.882 196.59 138.931 196.347 138.92ZM166.409 112.784L196.439 135.425C214.103 124.748 230.565 108.415 246.72 85.6465C253.132 76.647 258.265 66.7493 261.966 56.2529C268.031 39.3901 269.73 21.1869 266.894 3.43989C249.646 6.04948 233.353 13.2443 219.616 24.3172C211.046 31.1472 203.464 39.2045 197.101 48.2452C180.947 71.045 170.906 92.1766 166.409 112.784Z" fill="#093F68"/>
<path d="M190.079 152.441L152.626 124.208L164.715 113.483L196.316 137.3L190.079 152.441Z" fill="#093F68"/>
<path d="M190.094 154.03C189.768 154.031 189.45 153.926 189.186 153.728L151.717 125.495C151.535 125.347 151.385 125.162 151.277 124.952C151.168 124.741 151.103 124.509 151.086 124.271C151.077 124.031 151.121 123.792 151.214 123.572C151.307 123.352 151.448 123.156 151.625 123L163.714 112.275C163.987 112.05 164.327 111.927 164.676 111.927C165.026 111.927 165.366 112.05 165.639 112.275L197.224 136.108C197.505 136.32 197.709 136.624 197.801 136.97C197.893 137.316 197.869 137.684 197.733 138.015L191.573 153.156C191.48 153.377 191.341 153.573 191.165 153.729C190.989 153.886 190.781 154 190.556 154.062C190.402 154.081 190.245 154.07 190.094 154.03ZM155.105 124.096L189.432 149.979L194.422 137.84L164.807 115.501L155.105 124.096Z" fill="#093F68"/>
<path d="M223.543 81.9445C232.805 81.9445 240.314 74.1979 240.314 64.642C240.314 55.0861 232.805 47.3395 223.543 47.3395C214.281 47.3395 206.772 55.0861 206.772 64.642C206.772 74.1979 214.281 81.9445 223.543 81.9445Z" fill="#68E1FD"/>
<path d="M223.512 83.5333C219.398 83.5249 215.407 82.0874 212.182 79.4526C208.956 76.8179 206.685 73.1393 205.734 69.0099C204.783 64.8805 205.207 60.541 206.939 56.6909C208.67 52.8408 211.608 49.7044 215.278 47.7874C218.949 45.8704 223.138 45.2844 227.17 46.124C231.203 46.9636 234.844 49.1798 237.507 52.4153C240.169 55.6508 241.698 59.7171 241.847 63.9587C241.996 68.2003 240.756 72.37 238.327 75.7957C236.626 78.2014 234.396 80.1569 231.821 81.5019C229.246 82.8469 226.398 83.543 223.512 83.5333ZM223.62 48.9919C219.998 48.9899 216.495 50.3208 213.739 52.7454C210.983 55.1699 209.156 58.5291 208.586 62.219C208.016 65.909 208.741 69.6877 210.629 72.8759C212.518 76.0641 215.447 78.4527 218.89 79.6123C222.333 80.7719 226.064 80.6265 229.412 79.2021C232.76 77.7778 235.506 75.1679 237.156 71.8418C238.806 68.5156 239.252 64.6912 238.414 61.0562C237.576 57.4211 235.508 54.2138 232.583 52.0107C229.98 50.0517 226.842 48.9948 223.62 48.9919Z" fill="#093F68"/>
<path d="M263.414 56.7931L218.754 23.0621C243.84 3.20156 268.188 1.70805 268.188 1.70805C268.188 1.70805 274.147 26.0967 263.414 56.7931Z" fill="#F56132"/>
<path d="M263.414 58.382C263.088 58.377 262.772 58.2719 262.505 58.0801L217.768 24.349C217.577 24.201 217.421 24.0091 217.315 23.7885C217.208 23.5679 217.152 23.3246 217.152 23.078C217.152 22.8313 217.208 22.588 217.315 22.3674C217.421 22.1468 217.577 21.9549 217.768 21.8069C242.947 1.86694 267.048 0.182768 268.049 0.135103C268.399 0.123687 268.742 0.235482 269.022 0.452078C269.302 0.668674 269.502 0.977156 269.589 1.32673C269.835 2.3277 275.61 26.5257 264.846 57.3333C264.766 57.565 264.636 57.7745 264.465 57.9454C264.294 58.1163 264.087 58.244 263.86 58.3184C263.715 58.3621 263.565 58.3835 263.414 58.382ZM221.264 23.0462L262.644 54.251C268.155 37.9357 269.616 20.456 266.894 3.40812C250.332 5.91482 234.643 12.6668 221.264 23.0462Z" fill="#093F68"/>
<path d="M207.55 93.2647C208.684 91.6636 208.348 89.4192 206.8 88.2516C205.251 87.0841 203.076 87.4356 201.942 89.0367L165.041 141.131C163.907 142.732 164.243 144.976 165.792 146.144C167.34 147.311 169.515 146.96 170.649 145.359L207.55 93.2647Z" fill="#FFBC0E"/>
<path d="M167.857 148.422C166.932 148.417 166.027 148.15 165.24 147.648C164.453 147.147 163.816 146.431 163.399 145.58C162.982 144.729 162.8 143.775 162.875 142.824C162.95 141.873 163.277 140.962 163.822 140.191L200.782 88.0933C201.163 87.5397 201.649 87.0714 202.21 86.7164C202.771 86.3615 203.396 86.1272 204.047 86.0278C205.028 85.8649 206.035 86.0074 206.938 86.4371C207.841 86.8668 208.599 87.5642 209.116 88.4403C209.633 89.3165 209.886 90.3317 209.841 91.3566C209.797 92.3814 209.458 93.3693 208.867 94.1944L171.907 146.292C171.121 147.401 169.942 148.144 168.627 148.358C168.371 148.394 168.114 148.416 167.857 148.422ZM204.817 89.1419H204.509C204.257 89.1847 204.016 89.2783 203.799 89.4173C203.582 89.5564 203.394 89.7381 203.246 89.9522L166.286 142.05C166.136 142.261 166.027 142.5 165.967 142.754C165.907 143.008 165.896 143.271 165.934 143.53C165.973 143.788 166.06 144.036 166.192 144.259C166.324 144.482 166.497 144.677 166.702 144.831C167.116 145.144 167.635 145.275 168.143 145.195C168.651 145.114 169.107 144.829 169.412 144.402L206.372 92.3037C206.586 92.0086 206.717 91.6578 206.749 91.2904C206.781 90.9231 206.714 90.5538 206.554 90.2239C206.394 89.894 206.148 89.6165 205.844 89.4226C205.54 89.2287 205.189 89.126 204.832 89.126L204.817 89.1419Z" fill="#093F68"/>
<path d="M230.889 75.8592C230.557 75.8583 230.234 75.7467 229.968 75.541C229.703 75.3353 229.509 75.0466 229.415 74.7178C229.322 74.389 229.334 74.0379 229.449 73.7167C229.565 73.3956 229.778 73.1216 230.057 72.9357C231.645 71.5386 232.824 69.7117 233.461 67.6608C235.262 62.6401 231.536 58.3343 231.382 58.1278C231.104 57.818 230.957 57.4072 230.973 56.9856C230.989 56.5639 231.166 56.1661 231.466 55.8795C231.767 55.593 232.165 55.4412 232.573 55.4576C232.982 55.474 233.368 55.6572 233.645 55.9669C233.861 56.2053 238.82 61.8456 236.34 68.6777C235.499 71.3811 233.889 73.7613 231.72 75.5097C231.483 75.7088 231.194 75.8305 230.889 75.8592Z" fill="white"/>
<path d="M224.975 78.7509C224.567 78.7762 224.165 78.633 223.859 78.3529C223.553 78.0729 223.367 77.6788 223.343 77.2574C223.318 76.836 223.457 76.4218 223.729 76.106C224 75.7902 224.382 75.5985 224.79 75.5732C225.79 75.3911 226.766 75.0926 227.701 74.6835C228.07 74.5403 228.479 74.5488 228.842 74.7071C229.205 74.8654 229.496 75.1615 229.654 75.5344C229.812 75.9072 229.825 76.3283 229.691 76.711C229.557 77.0937 229.286 77.4086 228.933 77.591C227.729 78.1242 226.467 78.5082 225.175 78.735L224.975 78.7509Z" fill="white"/>
<path d="M52.3258 106.333C51.9911 106.339 51.6635 106.233 51.3927 106.029C51.122 105.826 50.9228 105.538 50.8253 105.207C50.7278 104.877 50.7374 104.523 50.8525 104.198C50.9677 103.874 51.1821 103.597 51.4634 103.41L58.609 98.532C58.7777 98.4156 58.967 98.3348 59.1661 98.2942C59.3651 98.2536 59.57 98.254 59.7689 98.2953C59.9679 98.3366 60.1569 98.4181 60.3252 98.5351C60.4935 98.652 60.6377 98.8022 60.7496 98.9768C60.9725 99.3271 61.0522 99.754 60.9715 100.165C60.8907 100.575 60.656 100.936 60.3184 101.169L53.1728 106.063C52.9222 106.237 52.6277 106.331 52.3258 106.333Z" fill="#DFEAEF"/>
<path d="M56.145 111.433C55.8927 111.434 55.6442 111.37 55.4213 111.248C55.1985 111.126 55.008 110.95 54.8668 110.734C54.754 110.56 54.6757 110.365 54.6363 110.159C54.5969 109.954 54.5973 109.743 54.6374 109.538C54.6775 109.332 54.7564 109.137 54.8698 108.964C54.9832 108.79 55.1287 108.641 55.298 108.526L61.689 104.141C62.03 103.907 62.4471 103.822 62.8486 103.906C63.25 103.989 63.6029 104.234 63.8296 104.585C64.0562 104.937 64.1382 105.368 64.0573 105.782C63.9764 106.196 63.7394 106.56 63.3984 106.794L57.0074 111.179C56.7507 111.35 56.4505 111.439 56.145 111.433Z" fill="#DFEAEF"/>
<path d="M59.6715 116.565C59.3425 116.563 59.023 116.451 58.7597 116.248C58.4964 116.044 58.3033 115.759 58.2086 115.434C58.1139 115.109 58.1226 114.761 58.2334 114.441C58.3443 114.122 58.5514 113.847 58.8245 113.658L65.2155 109.273C65.3829 109.143 65.5742 109.049 65.7777 108.998C65.9812 108.947 66.1927 108.94 66.3991 108.976C66.6056 109.012 66.8027 109.091 66.9785 109.209C67.1543 109.326 67.305 109.479 67.4214 109.659C67.5378 109.839 67.6175 110.041 67.6556 110.253C67.6936 110.466 67.6893 110.684 67.6428 110.895C67.5964 111.105 67.5087 111.304 67.3853 111.479C67.2619 111.653 67.1052 111.8 66.9249 111.91L60.534 116.295C60.279 116.472 59.9787 116.566 59.6715 116.565Z" fill="#DFEAEF"/>
<path d="M86.1441 89.4915C85.8134 89.4872 85.4927 89.3732 85.2296 89.1662C84.9666 88.9593 84.7751 88.6705 84.6835 88.3425C84.592 88.0146 84.6052 87.6649 84.7212 87.3453C84.8373 87.0257 85.05 86.7531 85.328 86.568L132.76 55.538C132.931 55.4263 133.121 55.3505 133.321 55.3148C133.52 55.2792 133.724 55.2844 133.921 55.3301C134.119 55.3758 134.305 55.4612 134.471 55.5814C134.636 55.7016 134.777 55.8542 134.885 56.0305C134.993 56.2068 135.067 56.4034 135.101 56.609C135.136 56.8146 135.131 57.0252 135.087 57.2288C135.042 57.4324 134.96 57.625 134.843 57.7956C134.727 57.9662 134.579 58.1115 134.408 58.2231L86.9758 89.2531C86.7262 89.4127 86.4377 89.4954 86.1441 89.4915Z" fill="#DFEAEF"/>
<path d="M162.02 215.185C161.913 215.2 161.804 215.2 161.697 215.185C161.299 215.093 160.952 214.843 160.733 214.489C160.513 214.134 160.439 213.705 160.526 213.294C162.852 202.172 152.688 195.896 152.256 195.626C151.921 195.406 151.681 195.061 151.587 194.663C151.492 194.265 151.55 193.845 151.749 193.49C151.948 193.135 152.272 192.873 152.653 192.759C153.035 192.645 153.444 192.687 153.796 192.877C153.92 192.957 166.332 200.583 163.514 213.977C163.431 214.322 163.239 214.628 162.969 214.846C162.698 215.065 162.364 215.184 162.02 215.185Z" fill="#093F68"/>
</g>
<defs>
<filter id="filter0_d_62_3012" x="4.31372" y="0.134308" width="294.408" height="313.731" filterUnits="userSpaceOnUse" color-interpolation-filters="sRGB">
<feFlood flood-opacity="0" result="BackgroundImageFix"/>
<feColorMatrix in="SourceAlpha" type="matrix" values="0 0 0 0 0 0 0 0 0 0 0 0 0 0 0 0 0 0 127 0" result="hardAlpha"/>
<feOffset dx="15" dy="15"/>
<feGaussianBlur stdDeviation="2"/>
<feComposite in2="hardAlpha" operator="out"/>
<feColorMatrix type="matrix" values="0 0 0 0 0 0 0 0 0 0 0 0 0 0 0 0 0 0 0.25 0"/>
<feBlend mode="normal" in2="BackgroundImageFix" result="effect1_dropShadow_62_3012"/>
<feBlend mode="normal" in="SourceGraphic" in2="effect1_dropShadow_62_3012" result="shape"/>
</filter>
<linearGradient id="paint0_linear_62_3012" x1="198.139" y1="251.044" x2="66.2808" y2="46.0736" gradientUnits="userSpaceOnUse">
<stop stop-color="#AE67FA"/>
<stop offset="1" stop-color="#F49867"/>
</linearGradient>
<linearGradient id="paint1_linear_62_3012" x1="185.025" y1="113.637" x2="82.1842" y2="176.311" gradientUnits="userSpaceOnUse">
<stop stop-color="#FFE259"/>
<stop offset="1" stop-color="#FFA751"/>
</linearGradient>
<linearGradient id="paint2_linear_62_3012" x1="164.684" y1="69.5436" x2="269.802" y2="69.5436" gradientUnits="userSpaceOnUse">
<stop stop-color="#FFE259"/>
<stop offset="1" stop-color="#FFA751"/>
</linearGradient>
</defs>
</svg>
