<svg width="765" height="888" viewBox="0 0 765 888" fill="none" xmlns="http://www.w3.org/2000/svg">
<rect x="-209.922" y="834.137" width="410" height="312" transform="rotate(-35.838 -209.922 834.137)" fill="url(#paint0_linear_54_943)"/>
<g filter="url(#filter0_d_54_943)">
<path fill-rule="evenodd" clip-rule="evenodd" d="M-205.15 56.536L-198.309 92.9208C-191.899 131.204 -179.29 205.383 -111.296 208.203C-43.9454 210.532 77.7175 142.912 97.8397 207.229C118.605 272.035 39.5462 467.861 68.2554 520.907C96.5344 575.853 233.655 486.61 293.062 500.7C352.899 512.891 335.023 628.415 364.375 681.952C392.011 736.407 467.518 729.365 503.741 772.55C540.607 816.225 537.115 911.535 537.086 958.271L535.339 1005.93L489.184 1066.51L467.316 1049.84C444.805 1032.69 401.068 999.369 356.688 965.555C312.952 932.232 268.572 898.419 224.836 865.096C180.456 831.282 136.076 797.469 92.34 764.146C47.9604 730.333 4.22387 697.009 -40.1558 663.196C-83.8923 629.873 -128.272 596.06 -172.652 562.246C-216.388 528.923 -260.768 495.11 -304.504 461.787C-348.884 427.973 -392.62 394.65 -415.132 377.498L-437 360.837L-205.15 56.536Z" fill="url(#paint1_linear_54_943)"/>
</g>
<defs>
<filter id="filter0_d_54_943" x="-437" y="56.536" width="993.186" height="1028.97" filterUnits="userSpaceOnUse" color-interpolation-filters="sRGB">
<feFlood flood-opacity="0" result="BackgroundImageFix"/>
<feColorMatrix in="SourceAlpha" type="matrix" values="0 0 0 0 0 0 0 0 0 0 0 0 0 0 0 0 0 0 127 0" result="hardAlpha"/>
<feOffset dx="15" dy="15"/>
<feGaussianBlur stdDeviation="2"/>
<feComposite in2="hardAlpha" operator="out"/>
<feColorMatrix type="matrix" values="0 0 0 0 0 0 0 0 0 0 0 0 0 0 0 0 0 0 0.25 0"/>
<feBlend mode="normal" in2="BackgroundImageFix" result="effect1_dropShadow_54_943"/>
<feBlend mode="normal" in="SourceGraphic" in2="effect1_dropShadow_54_943" result="shape"/>
</filter>
<linearGradient id="paint0_linear_54_943" x1="-209.922" y1="849.137" x2="200.078" y2="1146.14" gradientUnits="userSpaceOnUse">
<stop stop-color="#136ACD"/>
<stop offset="0.456833" stop-color="#593BD7"/>
<stop offset="1" stop-color="#A40AE3"/>
</linearGradient>
<linearGradient id="paint1_linear_54_943" x1="-133.5" y1="218.5" x2="424" y2="906.5" gradientUnits="userSpaceOnUse">
<stop stop-color="#0D6FCD"/>
<stop offset="0.479648" stop-color="#533FD2"/>
<stop offset="1" stop-color="#A40AE3"/>
</linearGradient>
</defs>
</svg>
