<svg width="688" height="580" viewBox="0 0 688 580" fill="none" xmlns="http://www.w3.org/2000/svg">
<g filter="url(#filter0_d_54_940)">
<rect x="735.181" y="-196.594" width="410" height="312" transform="rotate(57.1692 735.181 -196.594)" fill="url(#paint0_linear_54_940)"/>
<path fill-rule="evenodd" clip-rule="evenodd" d="M148.761 -203.431L169.556 -193.363C191.396 -183.273 233.723 -163.602 238.801 -119.7C243.571 -76.2857 211.828 -9.10592 249 13.8238C286.48 37.2413 392.448 17.3622 423.729 44.0164C456.054 70.6928 412.957 144.368 423.926 184.546C433.85 224.701 497.842 231.358 529.431 258.5C561.448 284.689 561.371 331.85 587.497 361.763C613.931 392.164 667.305 404.851 693.563 412.148L720.25 418.492L751.916 398.473L741.431 381.887C730.637 364.814 709.666 331.642 688.387 297.982C667.416 264.81 646.137 231.15 625.166 197.978C603.887 164.318 582.608 130.659 561.637 97.4868C540.357 63.827 519.387 30.6551 498.107 -3.00468C477.137 -36.1766 455.857 -69.8364 434.578 -103.496C413.607 -136.668 392.328 -170.328 371.357 -203.5C350.078 -237.16 329.107 -270.331 318.313 -287.405L307.828 -303.991L148.761 -203.431Z" fill="url(#paint1_linear_54_940)"/>
</g>
<defs>
<filter id="filter0_d_54_940" x="148.761" y="-303.991" width="827.706" height="741.483" filterUnits="userSpaceOnUse" color-interpolation-filters="sRGB">
<feFlood flood-opacity="0" result="BackgroundImageFix"/>
<feColorMatrix in="SourceAlpha" type="matrix" values="0 0 0 0 0 0 0 0 0 0 0 0 0 0 0 0 0 0 127 0" result="hardAlpha"/>
<feOffset dx="15" dy="15"/>
<feGaussianBlur stdDeviation="2"/>
<feComposite in2="hardAlpha" operator="out"/>
<feColorMatrix type="matrix" values="0 0 0 0 0 0 0 0 0 0 0 0 0 0 0 0 0 0 0.25 0"/>
<feBlend mode="normal" in2="BackgroundImageFix" result="effect1_dropShadow_54_940"/>
<feBlend mode="normal" in="SourceGraphic" in2="effect1_dropShadow_54_940" result="shape"/>
</filter>
<linearGradient id="paint0_linear_54_940" x1="776.732" y1="97.0097" x2="1064.89" y2="103.229" gradientUnits="userSpaceOnUse">
<stop stop-color="#8026B1"/>
<stop offset="1" stop-color="#9911A9"/>
</linearGradient>
<linearGradient id="paint1_linear_54_940" x1="243.446" y1="-132.28" x2="725.122" y2="247.465" gradientUnits="userSpaceOnUse">
<stop stop-color="#B448C4"/>
<stop offset="0.479648" stop-color="#741EAD"/>
<stop offset="1" stop-color="#AF0BA7"/>
</linearGradient>
</defs>
</svg>
